SplineFontDB: 3.0
FontName: ArmataHL
FullName: Armata Hairline
FamilyName: Armata
Weight: Hairline
Copyright: Copyright (c) 2016, Jasper @ Cannot Into Space Fonts, All Rights Reserved.
Version: 0.9.7 "Resistance"
ItalicAngle: 0
UnderlinePosition: -100
UnderlineWidth: 50
Ascent: 800
Descent: 200
InvalidEm: 0
sfntRevision: 0x0000f852
LayerCount: 2
Layer: 0 0 "Back" 1
Layer: 1 0 "Fore" 0
XUID: [1021 1014 1531800021 26744]
StyleMap: 0x0000
FSType: 0
OS2Version: 4
OS2_WeightWidthSlopeOnly: 0
OS2_UseTypoMetrics: 1
CreationTime: 1438368694
ModificationTime: 1470720504
PfmFamily: 33
TTFWeight: 100
TTFWidth: 5
LineGap: 90
VLineGap: 0
Panose: 2 0 5 3 0 0 0 0 0 0
OS2TypoAscent: 800
OS2TypoAOffset: 0
OS2TypoDescent: -200
OS2TypoDOffset: 0
OS2TypoLinegap: 90
OS2WinAscent: 777
OS2WinAOffset: 0
OS2WinDescent: 230
OS2WinDOffset: 0
HheadAscent: 777
HheadAOffset: 0
HheadDescent: -230
HheadDOffset: 0
OS2SubXSize: 650
OS2SubYSize: 699
OS2SubXOff: 0
OS2SubYOff: 140
OS2SupXSize: 650
OS2SupYSize: 699
OS2SupXOff: 0
OS2SupYOff: 479
OS2StrikeYSize: 49
OS2StrikeYPos: 258
OS2CapHeight: 580
OS2XHeight: 451
OS2Vendor: 'CiSf'
OS2CodePages: 00000001.00000000
OS2UnicodeRanges: 00000003.00000000.00000000.00000000
Lookup: 1 0 0 "'smcp' Lowercase to Small Capitals lookup 0" { "'smcp' Lowercase to Small Capitals lookup 0-1"  } ['smcp' ('DFLT' <'dflt' > 'cyrl' <'dflt' > 'grek' <'dflt' > 'latn' <'dflt' > ) ]
MarkAttachClasses: 1
DEI: 91125
LangName: 1049 "" "" "+BEIEPgQ9BDoEMARP +BDsEOAQ9BDgETwAA" "" "" "" "" "" "" "" "" "" "" "" "" "" "+BBAEQAQ8BDAEQgQw" "+BEIEPgQ9BDoEMARP +BDsEOAQ9BDgETwAA" "" "+BBcEOwQ+BDkA +BEEEPgQyBEsA +BD8EQARLBDMEMARCBEwA +BD0EMAAA +BDoEQAQ+BDIEMARCBDgA +BDIA +BEIEPgAA +BDIEQAQ1BDwETwAA +BDoEMAQ6 +BDwEPgQ5 +BDoEPgRC +BDgEMwRABDAENQRC +BD0EMAAA +BEEEOgRABDgEPwQ6BDUA."

StartChar: .notdef
Encoding: 65536 -1 0
Width: 389
VWidth: 985
Flags: HW
LayerCount: 2
Fore
SplineSet
32.2998046875 0 m 1
 32.2998046875 503 l 1
 352.799804688 503 l 1
 352.799804688 0 l 1
 32.2998046875 0 l 1
52.2998046875 20 m 1
 332.799804688 20 l 1
 332.799804688 483 l 1
 52.2998046875 483 l 1
 52.2998046875 20 l 1
EndSplineSet
EndChar

StartChar: exmark
Encoding: 33 33 2
Width: 134
VWidth: 985
Flags: HW
LayerCount: 2
Fore
SplineSet
27.2001953125 26 m 0xc0
 27.2001953125 46 44.2001953125 63 65.2001953125 63 c 0
 86.2001953125 63 103.200195312 46 103.200195312 26 c 0
 103.200195312 6 86.2001953125 -11 65.2001953125 -11 c 0
 44.2001953125 -11 27.2001953125 6 27.2001953125 26 c 0xc0
29.2001953125 560 m 1
 101.200195312 560 l 1
 84.2001953125 127 l 1
 46.2001953125 127 l 1xa0
 29.2001953125 560 l 1
EndSplineSet
EndChar

StartChar: enquot
Encoding: 34 34 3
Width: 206
VWidth: 985
Flags: HW
LayerCount: 2
Fore
SplineSet
34.849609375 762 m 1
 90.849609375 762 l 1
 78.849609375 622 l 1
 46.849609375 622 l 1
 34.849609375 762 l 1
109.849609375 762 m 5
 165.849609375 762 l 5
 153.849609375 622 l 5
 121.849609375 622 l 5
 109.849609375 762 l 5
EndSplineSet
EndChar

StartChar: number
Encoding: 35 35 4
Width: 491
VWidth: 985
Flags: HW
LayerCount: 2
Fore
SplineSet
23.7998046875 158 m 1
 34.7998046875 201 l 1
 143.849609375 201 l 1
 172.75 328 l 1
 68.7998046875 328 l 1
 79.7998046875 371 l 1
 182.950195312 371 l 1
 223.75 550 l 1
 264.150390625 550 l 1
 217.799804688 371 l 1
 327.150390625 371 l 1
 375.150390625 550 l 1
 416.150390625 550 l 1
 368.150390625 371 l 1
 464.150390625 371 l 1
 453.150390625 328 l 1
 356.150390625 328 l 1
 322.150390625 201 l 1
 419.150390625 201 l 1
 408.150390625 158 l 1
 310.150390625 158 l 1
 268.150390625 0 l 1
 227.150390625 0 l 1
 269.150390625 158 l 1
 168.5 158 l 1
 132.799804688 0 l 1
 91.7998046875 0 l 1
 133.650390625 158 l 1
 23.7998046875 158 l 1
178.700195312 201 m 1
 281.150390625 201 l 1
 315.150390625 328 l 1
 207.599609375 328 l 1
 178.700195312 201 l 1
EndSplineSet
EndChar

StartChar: dollar
Encoding: 36 36 5
Width: 429
VWidth: 985
Flags: HW
LayerCount: 2
Fore
SplineSet
22.9501953125 34 m 1
 58.9501953125 11 97.9501953125 -7 187.150390625 -10 c 1
 187.150390625 -80 l 1
 223.700195312 -80 l 1
 223.700195312 -11 l 1
 310.25 -6 397.25 71 397.25 145 c 0
 397.25 268 313.25 289 210.950195312 312 c 0
 169.299804688 323 70.9501953125 328 70.9501953125 411 c 0
 70.9501953125 482 127.950195312 518 189.700195312 517 c 0
 277.25 517 315.25 493 337.25 482 c 1
 370.25 515 l 1
 335.25 537 305.25 555 223.700195312 559 c 1
 223.700195312 630 l 1
 187.150390625 630 l 1
 187.150390625 560 l 1
 91.9501953125 559 23.9501953125 484 23.9501953125 411 c 0
 23.9501953125 307 106.950195312 289 196.5 269 c 0
 253.450195312 255 350.25 245 350.25 145 c 0
 350.25 69 269.599609375 32 216.049804688 32 c 4
 125.950195312 32 77.9501953125 62 55.9501953125 73 c 1
 22.9501953125 34 l 1
EndSplineSet
EndChar

StartChar: percent
Encoding: 37 37 6
Width: 599
VWidth: 985
Flags: HW
LayerCount: 2
Fore
SplineSet
22.9501953125 404 m 0x2f80
 22.9501953125 485 62.900390625 561 137.700195312 561 c 0
 212.5 561 252.450195312 484 252.450195312 404 c 0
 252.450195312 323 211.650390625 246 137.700195312 246 c 0
 63.75 246 22.9501953125 323 22.9501953125 404 c 0x2f80
56.9501953125 404 m 0
 56.9501953125 340 79.900390625 279 137.700195312 279 c 0
 195.5 279 218.450195312 340 218.450195312 404 c 0
 218.450195312 468 195.5 528 137.700195312 528 c 0
 79.900390625 528 56.9501953125 468 56.9501953125 404 c 0
146.950195312 0 m 5x4f80
 450.724609375 550 l 5
 480.205078125 550 l 5
 184.950195312 0 l 5
 146.950195312 0 l 5x4f80
339.650390625 147 m 4
 367.849609375 228 407.280273438 304 475.549804688 304 c 4
 543.819335938 304 583.25 227 569.150390625 147 c 4
 569.150390625 66 528.349609375 -11 454.400390625 -11 c 4x9f80
 380.450195312 -11 339.650390625 66 339.650390625 147 c 4
373.650390625 147 m 4
 373.650390625 83 396.599609375 22 454.400390625 22 c 4
 512.200195312 22 535.150390625 83 535.150390625 147 c 4
 549.25 211 528.303710938 271 475.549804688 271 c 4
 422.795898438 271 401.849609375 211 373.650390625 147 c 4
EndSplineSet
EndChar

StartChar: ampersand
Encoding: 38 38 7
Width: 372
VWidth: 985
Flags: HW
LayerCount: 2
Fore
SplineSet
23.7998046875 153 m 0xbd
 23.7998046875 279 128.599609375 292 128.599609375 292 c 1
 128.599609375 292 42.7998046875 317 42.7998046875 414 c 0
 42.7998046875 437 47.7998046875 560 192.349609375 560 c 0
 236.549804688 560 295.200195312 528 310.950195312 509 c 1
 280.75 481 l 1
 275.650390625 491 222.099609375 518 191.5 518 c 0
 133.700195312 518 85.25 486 85.25 414 c 0xbb
 85.25 332 194.900390625 307 194.900390625 307 c 1
 194.900390625 271 l 1
 118.400390625 266 70.7998046875 219 70.7998046875 153 c 0
 70.7998046875 72 120.950195312 32 188.950195312 32 c 0xbd
 251 32 291.799804688 62 307.950195312 94 c 1
 307.950195312 197 l 1
 221.25 197 l 1
 238.25 240 l 1
 410.950195312 240 l 1
 390.950195312 197 l 1
 350.950195312 197 l 1
 350.950195312 0 l 1
 307.950195312 0 l 1x7d
 307.950195312 33 l 1
 283.299804688 9 243.349609375 -11 188.950195312 -11 c 0
 100.549804688 -11 23.7998046875 33 23.7998046875 153 c 0xbd
EndSplineSet
EndChar

StartChar: apostrophe
Encoding: 39 39 8
Width: 131
VWidth: 985
Flags: HW
LayerCount: 2
Fore
SplineSet
34.849609375 762 m 1
 90.849609375 762 l 1
 78.849609375 622 l 1
 46.849609375 622 l 1
 34.849609375 762 l 1
EndSplineSet
EndChar

StartChar: parenleft
Encoding: 40 40 9
Width: 229
VWidth: 985
Flags: HW
LayerCount: 2
Fore
SplineSet
26.349609375 290 m 0
 26.349609375 490 93.349609375 664 197.349609375 679 c 1
 197.349609375 614 l 1
 101.349609375 588 79.349609375 402 79.349609375 290 c 4
 79.349609375 179 101.349609375 -19 197.349609375 -37 c 1
 197.349609375 -100 l 1
 92.349609375 -85 26.349609375 90 26.349609375 290 c 0
EndSplineSet
EndChar

StartChar: parenright
Encoding: 41 41 10
Width: 229
VWidth: 985
Flags: HW
LayerCount: 2
Fore
SplineSet
26.349609375 -37 m 1
 122.349609375 -19 144.349609375 179 144.349609375 290 c 4
 144.349609375 402 122.349609375 588 26.349609375 614 c 1
 26.349609375 679 l 1
 130.349609375 664 197.349609375 490 197.349609375 290 c 0
 197.349609375 90 131.349609375 -85 26.349609375 -100 c 1
 26.349609375 -37 l 1
EndSplineSet
EndChar

StartChar: asterisk
Encoding: 42 42 11
Width: 331
VWidth: 985
Flags: HW
LayerCount: 2
Fore
SplineSet
26.349609375 506 m 1
 131.349609375 579 l 1
 26.349609375 652 l 1
 47.349609375 681 l 1
 144.349609375 612 l 1
 144.349609375 732 l 1
 181.349609375 732 l 1
 181.349609375 612 l 1
 278.349609375 681 l 1
 299.349609375 652 l 1
 194.349609375 579 l 1
 299.349609375 506 l 1
 278.349609375 478 l 1
 181.349609375 545 l 1
 181.349609375 428 l 1
 144.349609375 428 l 1
 144.349609375 545 l 1
 47.349609375 478 l 1
 26.349609375 506 l 1
EndSplineSet
EndChar

StartChar: plus
Encoding: 43 43 12
Width: 456
VWidth: 985
Flags: HW
LayerCount: 2
Fore
SplineSet
32.2998046875 239 m 1
 32.2998046875 281 l 1
 205 281 l 1
 205 463 l 1
 247 463 l 1
 247 281 l 1
 419.700195312 281 l 1
 419.700195312 239 l 1
 247 239 l 1
 247 57 l 1
 205 57 l 1
 205 239 l 1
 32.2998046875 239 l 1
EndSplineSet
EndChar

StartChar: comma
Encoding: 44 44 13
Width: 140
VWidth: 985
Flags: HW
LayerCount: 2
Fore
SplineSet
29.75 41 m 0x80
 29.75 61 46.75 78 67.75 78 c 0
 88.75 78 105.75 61 105.75 41 c 0x80
 104.75 14 99.75 -25 95.75 -39 c 1
 88.75 -39 l 1x40
 90.75 -23 94.75 4 67.75 4 c 0
 46.75 4 29.75 21 29.75 41 c 0x80
EndSplineSet
EndChar

StartChar: hyphen
Encoding: 45 45 14
Width: 450
VWidth: 985
Flags: HW
LayerCount: 2
Fore
SplineSet
32.2998046875 239 m 1
 32.2998046875 281 l 1
 413.400390625 281 l 1
 413.400390625 239 l 1
 32.2998046875 239 l 1
EndSplineSet
EndChar

StartChar: period
Encoding: 46 46 15
Width: 141
VWidth: 985
Flags: HW
LayerCount: 2
Fore
SplineSet
30.599609375 41 m 0
 30.599609375 61 47.599609375 78 68.599609375 78 c 0
 89.599609375 78 106.599609375 61 106.599609375 41 c 0
 106.599609375 21 89.599609375 4 68.599609375 4 c 0
 47.599609375 4 30.599609375 21 30.599609375 41 c 0
EndSplineSet
EndChar

StartChar: slash
Encoding: 47 47 16
Width: 426
VWidth: 985
Flags: HW
LayerCount: 2
Fore
SplineSet
22.099609375 -87 m 1
 353.650390625 637 l 1
 400.650390625 637 l 1
 69.099609375 -87 l 1
 22.099609375 -87 l 1
EndSplineSet
EndChar

StartChar: zero
Encoding: 48 48 17
Width: 453
VWidth: 985
Flags: HW
LayerCount: 2
Fore
SplineSet
25.5 275 m 0
 25.5 424 94.150390625 560 223.349609375 560 c 0
 352.549804688 560 421.200195312 423 421.200195312 275 c 4
 421.200195312 126 351.700195312 -11 223.349609375 -11 c 4
 95 -11 25.5 126 25.5 275 c 0
69.5 275 m 0
 69.5 153 112.849609375 30 223.349609375 30 c 0
 333.849609375 30 377.200195312 153 377.200195312 275 c 4
 377.200195312 397 333.849609375 519 223.349609375 519 c 0
 112.849609375 519 69.5 397 69.5 275 c 0
EndSplineSet
EndChar

StartChar: one
Encoding: 49 49 18
Width: 202
VWidth: 985
Flags: HW
LayerCount: 2
Fore
SplineSet
23.7998046875 441 m 1
 23.7998046875 485 l 1
 110.799804688 560 l 1
 166.799804688 560 l 1
 166.799804688 0 l 1
 123.799804688 0 l 1
 123.799804688 519 l 1
 23.7998046875 441 l 1
EndSplineSet
EndChar

StartChar: two
Encoding: 50 50 19
Width: 378
VWidth: 985
Flags: HW
LayerCount: 2
Fore
SplineSet
193.099609375 560 m 0
 307.049804688 560 344.049804688 466 341.049804688 398 c 0
 335.049804688 262 129.650390625 43 129.650390625 43 c 1
 350.049804688 43 l 1
 341.049804688 0 l 1
 24.650390625 0 l 1
 24.650390625 0 301.049804688 285 301.049804688 404 c 0
 301.049804688 477 256 518 193.950195312 518 c 0
 161.650390625 518 113.650390625 488 102.650390625 440 c 1
 45.650390625 440 l 1
 56.650390625 494 118.650390625 560 193.099609375 560 c 0
EndSplineSet
EndChar

StartChar: three
Encoding: 51 51 20
Width: 375
VWidth: 985
Flags: HW
LayerCount: 2
Fore
SplineSet
23.7998046875 60 m 5xe8
 45.7998046875 97 l 5
 63.7998046875 64 111.799804688 32 181.200195312 32 c 0
 249.200195312 32 299.349609375 72 299.349609375 153 c 0xe8
 301.900390625 219 251.75 266 175.25 271 c 1
 175.25 307 l 1
 175.25 307 284.900390625 332 284.900390625 414 c 0
 284.900390625 486 236.450195312 518 178.650390625 518 c 0
 148.049804688 518 85.7998046875 491 79.7998046875 481 c 1
 44.7998046875 509 l 1
 62.7998046875 528 131.799804688 560 177.799804688 560 c 0
 324.900390625 560 329.900390625 437 329.900390625 414 c 0xf0
 329.900390625 317 241.549804688 292 241.549804688 292 c 1
 241.549804688 292 348.900390625 279 346.349609375 153 c 0
 346.349609375 33 269.599609375 -11 181.200195312 -11 c 0
 100.799804688 -11 45.7998046875 24 23.7998046875 60 c 5xe8
EndSplineSet
EndChar

StartChar: four
Encoding: 52 52 21
Width: 419
VWidth: 985
Flags: HW
LayerCount: 2
Fore
SplineSet
28.0498046875 176 m 1
 238.150390625 550 l 1
 287.099609375 550 l 1
 287.099609375 212 l 1
 379.099609375 212 l 1
 391.099609375 176 l 1
 287.099609375 176 l 1
 287.099609375 0 l 1
 244.099609375 0 l 1
 244.099609375 176 l 1
 28.0498046875 176 l 1
96.0498046875 212 m 1
 244.099609375 212 l 1
 244.099609375 480 l 1
 96.0498046875 212 l 1
EndSplineSet
EndChar

StartChar: five
Encoding: 53 53 22
Width: 383
VWidth: 985
Flags: HW
LayerCount: 2
Fore
SplineSet
307.849609375 177 m 0
 307.849609375 79 240.700195312 32 184.599609375 32 c 0
 99.7998046875 32 61.7998046875 72 55.7998046875 84 c 1
 23.7998046875 45 l 1
 47.7998046875 21 68.7998046875 -11 184.599609375 -11 c 0
 268.75 -11 353.849609375 52 353.849609375 173 c 0
 353.849609375 308 277.25 354 198.200195312 354 c 0
 165.049804688 354 87.7998046875 347 86.7998046875 324 c 1
 96.7998046875 513 l 1
 323.849609375 513 l 1
 343.849609375 550 l 1
 56.7998046875 550 l 1
 44.7998046875 271 l 1
 124.799804688 317 307.849609375 366 307.849609375 177 c 0
EndSplineSet
EndChar

StartChar: six
Encoding: 54 54 23
Width: 386
VWidth: 985
Flags: HW
LayerCount: 2
Fore
SplineSet
24.650390625 176 m 0
 24.650390625 429 38.650390625 555 325.900390625 557 c 1
 316.900390625 514 l 1
 178.450195312 513 72.2001953125 475 72.2001953125 303 c 1
 72.2001953125 303 96.849609375 362 191.200195312 362 c 0
 278.75 362 356.900390625 279 356.900390625 176 c 0
 356.900390625 73 278.75 -11 191.200195312 -11 c 0
 103.650390625 -11 24.650390625 73 24.650390625 176 c 0
69.650390625 176 m 0
 69.650390625 98 124.900390625 34 191.200195312 34 c 0
 257.5 34 311.900390625 98 311.900390625 176 c 0
 311.900390625 254 257.5 317 191.200195312 317 c 0
 116.400390625 317 69.650390625 255 69.650390625 176 c 0
EndSplineSet
EndChar

StartChar: seven
Encoding: 55 55 24
Width: 403
VWidth: 985
Flags: HW
LayerCount: 2
Fore
SplineSet
23.7998046875 513 m 1
 40.7998046875 550 l 1
 375.900390625 550 l 1
 148.799804688 0 l 1
 100.799804688 0 l 1
 317.900390625 513 l 1
 23.7998046875 513 l 1
EndSplineSet
EndChar

StartChar: eight
Encoding: 56 56 25
Width: 372
VWidth: 985
Flags: HW
LayerCount: 2
Fore
SplineSet
26.349609375 153 m 0xf2
 26.349609375 259 118.950195312 292 118.950195312 292 c 1
 118.950195312 292 54.349609375 327 54.349609375 414 c 0
 54.349609375 427 55.349609375 560 183.549804688 560 c 0
 315.650390625 560 316.650390625 427 316.650390625 414 c 0xec
 316.650390625 327 248.150390625 292 248.150390625 292 c 1
 248.150390625 292 344.650390625 259 340.75 153 c 0
 340.75 53 276.200195312 -11 183.549804688 -11 c 0
 90.900390625 -11 26.349609375 53 26.349609375 153 c 0xf2
71.349609375 153 m 0xf2
 71.349609375 92 110.450195312 32 183.549804688 32 c 0
 256.650390625 32 295.75 92 295.75 153 c 0
 295.75 197 249 271 183.549804688 271 c 0
 118.099609375 271 71.349609375 197 71.349609375 153 c 0xf2
93.4501953125 414 m 0xec
 93.4501953125 344 148.700195312 313 183.549804688 313 c 0
 218.400390625 313 273.650390625 344 273.650390625 414 c 0
 273.650390625 476 230.299804688 518 183.549804688 518 c 0
 136.799804688 518 93.4501953125 476 93.4501953125 414 c 0xec
EndSplineSet
EndChar

StartChar: nine
Encoding: 57 57 26
Width: 409
VWidth: 985
Flags: HW
LayerCount: 2
Fore
SplineSet
24.650390625 370 m 0
 24.650390625 267 108.650390625 184 201.599609375 184 c 0
 302.400390625 184 331.400390625 243 331.400390625 243 c 1
 331.400390625 71 214.349609375 33 64.650390625 32 c 1
 55.650390625 -11 l 1
 365.400390625 -9 379.400390625 117 379.400390625 370 c 0
 379.400390625 473 294.400390625 557 201.599609375 557 c 4
 108.650390625 557 24.650390625 473 24.650390625 370 c 0
69.650390625 370 m 0
 69.650390625 448 133.650390625 512 201.599609375 512 c 4
 269.400390625 512 334.400390625 448 334.400390625 370 c 0
 334.400390625 291 279.400390625 229 201.599609375 229 c 0
 133.650390625 229 69.650390625 292 69.650390625 370 c 0
EndSplineSet
EndChar

StartChar: colon
Encoding: 58 58 27
Width: 143
VWidth: 985
Flags: HW
LayerCount: 2
Fore
SplineSet
31.4501953125 26 m 0
 31.4501953125 46 48.4501953125 63 69.4501953125 63 c 0
 90.4501953125 63 107.450195312 46 107.450195312 26 c 0
 107.450195312 6 90.4501953125 -11 69.4501953125 -11 c 0
 48.4501953125 -11 31.4501953125 6 31.4501953125 26 c 0
31.4501953125 266 m 4
 31.4501953125 286 48.4501953125 303 69.4501953125 303 c 4
 90.4501953125 303 107.450195312 286 107.450195312 266 c 4
 107.450195312 246 90.4501953125 229 69.4501953125 229 c 4
 48.4501953125 229 31.4501953125 246 31.4501953125 266 c 4
EndSplineSet
EndChar

StartChar: scolon
Encoding: 59 59 28
Width: 142
VWidth: 985
Flags: HW
LayerCount: 2
Fore
SplineSet
30.599609375 41 m 0xc0
 30.599609375 61 47.599609375 78 68.599609375 78 c 0
 89.599609375 78 106.599609375 61 106.599609375 41 c 0xc0
 105.599609375 14 100.599609375 -25 96.599609375 -39 c 1
 89.599609375 -39 l 1xa0
 91.599609375 -23 95.599609375 4 68.599609375 4 c 0
 47.599609375 4 30.599609375 21 30.599609375 41 c 0xc0
30.599609375 266 m 0
 30.599609375 286 47.599609375 303 68.599609375 303 c 0
 89.599609375 303 106.599609375 286 106.599609375 266 c 4
 106.599609375 246 89.599609375 229 68.599609375 229 c 0
 47.599609375 229 30.599609375 246 30.599609375 266 c 0
EndSplineSet
EndChar

StartChar: less
Encoding: 60 60 29
Width: 410
VWidth: 985
Flags: HW
LayerCount: 2
Fore
SplineSet
23.7998046875 267 m 5
 379.400390625 487 l 5
 379.400390625 436 l 5
 105.799804688 267 l 5
 379.400390625 98 l 1
 379.400390625 47 l 1
 23.7998046875 267 l 5
EndSplineSet
EndChar

StartChar: equal
Encoding: 61 61 30
Width: 447
VWidth: 985
Flags: HW
LayerCount: 2
Fore
SplineSet
31.4501953125 153 m 1
 31.4501953125 195 l 1
 412.549804688 195 l 1
 412.549804688 153 l 1
 31.4501953125 153 l 1
31.4501953125 343 m 1
 31.4501953125 385 l 1
 412.549804688 385 l 1
 412.549804688 343 l 1
 31.4501953125 343 l 1
EndSplineSet
EndChar

StartChar: greater
Encoding: 62 62 31
Width: 410
VWidth: 985
Flags: HW
LayerCount: 2
Fore
SplineSet
23.7998046875 47 m 1
 23.7998046875 98 l 1
 297.400390625 267 l 5
 23.7998046875 436 l 5
 23.7998046875 487 l 5
 379.400390625 267 l 5
 23.7998046875 47 l 1
EndSplineSet
EndChar

StartChar: question
Encoding: 63 63 32
Width: 353
VWidth: 985
Flags: HW
LayerCount: 2
Fore
SplineSet
23.7998046875 417 m 1xd8
 23.7998046875 511 103.799804688 561 181.799804688 561 c 0
 256.849609375 561 324.400390625 495 324.400390625 413 c 0
 324.400390625 279 194.799804688 300 194.799804688 207 c 9
 194.799804688 127 l 1
 146.799804688 127 l 1
 146.799804688 221 l 17
 146.799804688 327 278.400390625 302 276.400390625 413 c 0
 274.700195312 535 85.7998046875 540 74.7998046875 417 c 1
 23.7998046875 417 l 1xd8
132.799804688 26 m 4xe8
 132.799804688 46 149.799804688 63 170.799804688 63 c 4
 191.799804688 63 206.700195312 46 206.700195312 26 c 4
 206.700195312 6 191.799804688 -11 170.799804688 -11 c 4
 149.799804688 -11 132.799804688 6 132.799804688 26 c 4xe8
EndSplineSet
EndChar

StartChar: at
Encoding: 64 64 33
Width: 521
VWidth: 985
Flags: HW
LayerCount: 2
Fore
SplineSet
28.900390625 306 m 4
 28.900390625 426 118.450195312 550 251.75 550 c 4
 401.400390625 550 490.950195312 442 490.950195312 291 c 4
 490.950195312 182 417.549804688 86 305.299804688 86 c 4
 243.25 86 127.799804688 114 127.799804688 204 c 4
 127.799804688 292 172.799804688 381 248.349609375 382 c 4
 376.200195312 383 391.200195312 168 391.200195312 168 c 5
 405.650390625 175 437.950195312 198 437.950195312 291 c 4
 437.950195312 400 364.200195312 502 261.099609375 502 c 4
 136.799804688 502 81.900390625 402 81.900390625 301 c 4
 81.900390625 32 255.150390625 -13 481.950195312 58 c 13
 475.950195312 12 l 21
 204.150390625 -59 28.900390625 35 28.900390625 306 c 4
177.799804688 207 m 4
 177.799804688 141 251.75 130 298.5 130 c 4
 329.099609375 130 351.200195312 145 351.200195312 145 c 5
 351.200195312 145 314.650390625 336 263.650390625 336 c 4
 199.049804688 336 177.799804688 276 177.799804688 207 c 4
EndSplineSet
EndChar

StartChar: A
Encoding: 65 65 34
Width: 450
VWidth: 985
Flags: HW
LayerCount: 2
Fore
SplineSet
20.400390625 0 m 1
 203.799804688 550 l 1
 241.200195312 550 l 1
 424.599609375 0 l 1
 380.599609375 0 l 1
 321.950195312 183 l 1
 123.049804688 183 l 1
 64.400390625 0 l 1
 20.400390625 0 l 1
134.950195312 219 m 1
 310.049804688 219 l 1
 222.5 492 l 1
 134.950195312 219 l 1
EndSplineSet
EndChar

StartChar: B
Encoding: 66 66 35
Width: 384
VWidth: 985
Flags: HW
LayerCount: 2
Fore
SplineSet
30.599609375 0 m 1xf4
 30.599609375 550 l 5
 182.549804688 550 l 2
 269.25 550 326.400390625 499 326.400390625 417 c 0xf8
 326.400390625 324 278.599609375 288 256.5 281 c 1
 326.900390625 262 351.900390625 192 351.900390625 142 c 0
 351.900390625 54 294.75 0 209.75 0 c 2
 30.599609375 0 l 1xf4
74.599609375 36 m 1
 199.549804688 36 l 2
 263.299804688 36 310.900390625 78 310.900390625 142 c 0xf4
 310.900390625 215 263.299804688 256 199.549804688 256 c 2
 74.599609375 256 l 1
 74.599609375 36 l 1
74.599609375 293 m 1
 174.049804688 293 l 2
 235.25 293 285.400390625 332 285.400390625 417 c 0xf8
 285.400390625 472 236.099609375 513 174.049804688 513 c 2
 74.599609375 513 l 1
 74.599609375 293 l 1
EndSplineSet
EndChar

StartChar: C
Encoding: 67 67 36
Width: 458
VWidth: 985
Flags: HW
LayerCount: 2
Fore
SplineSet
26.349609375 275 m 0
 26.349609375 414 95.4501953125 560 234.849609375 560 c 4
 335.150390625 560 426.5 504 426.5 405 c 1
 378.5 405 l 1
 378.5 465 324.950195312 518 238.25 518 c 0
 138.799804688 518 73.349609375 406 73.349609375 275 c 0
 73.349609375 161 121.799804688 32 234.849609375 32 c 0
 322.400390625 32 378.5 87 378.5 142 c 1
 426.5 142 l 1
 426.5 52 335.150390625 -11 234.849609375 -11 c 0
 103.950195312 -11 26.349609375 95 26.349609375 275 c 0
EndSplineSet
EndChar

StartChar: D
Encoding: 68 68 37
Width: 424
VWidth: 985
Flags: HW
LayerCount: 2
Fore
SplineSet
30.599609375 0 m 1
 30.599609375 550 l 1
 73.599609375 550 l 2
 296.299804688 550 390.450195312 422 390.450195312 274 c 0
 390.450195312 125 295.450195312 0 73.599609375 0 c 2
 30.599609375 0 l 1
73.599609375 41 m 1
 277.599609375 41 346.450195312 152 346.450195312 274 c 0
 346.450195312 396 277.599609375 509 73.599609375 509 c 5
 73.599609375 41 l 1
EndSplineSet
EndChar

StartChar: E
Encoding: 69 69 38
Width: 399
VWidth: 985
Flags: HW
LayerCount: 2
Fore
SplineSet
30.599609375 0 m 1
 30.599609375 550 l 5
 367 550 l 1
 367 514 l 1
 73.599609375 514 l 1
 73.599609375 302 l 1
 317 302 l 1
 317 266 l 1
 73.599609375 266 l 1
 73.599609375 36 l 1
 367 36 l 1
 367 0 l 1
 30.599609375 0 l 1
EndSplineSet
EndChar

StartChar: F
Encoding: 70 70 39
Width: 397
VWidth: 985
Flags: HW
LayerCount: 2
Fore
SplineSet
30.599609375 0 m 1
 30.599609375 550 l 5
 367 550 l 1
 367 514 l 1
 73.599609375 514 l 1
 73.599609375 302 l 1
 317 302 l 1
 317 266 l 1
 73.599609375 266 l 1
 73.599609375 0 l 1
 30.599609375 0 l 1
EndSplineSet
EndChar

StartChar: G
Encoding: 71 71 40
Width: 459
VWidth: 985
Flags: HW
LayerCount: 2
Fore
SplineSet
26.349609375 275 m 0xbc
 26.349609375 414 95.4501953125 560 234.849609375 560 c 4
 335.150390625 560 421.5 504 421.5 405 c 1
 378.5 405 l 1
 378.5 465 324.950195312 518 238.25 518 c 0
 138.799804688 518 73.349609375 406 73.349609375 275 c 0
 73.349609375 161 121.799804688 32 234.849609375 32 c 0xbc
 322.400390625 32 378.5 87 378.5 142 c 2
 378.5 227 l 1
 228.049804688 227 l 1
 228.049804688 270 l 1
 421.5 270 l 1
 421.5 0 l 1
 378.5 0 l 1x7c
 378.5 47 l 1
 345.349609375 11 293.5 -11 234.849609375 -11 c 0
 103.950195312 -11 26.349609375 95 26.349609375 275 c 0xbc
EndSplineSet
EndChar

StartChar: H
Encoding: 72 72 41
Width: 388
VWidth: 985
Flags: HW
LayerCount: 2
Fore
SplineSet
30.599609375 0 m 1
 30.599609375 550 l 1
 73.599609375 550 l 1
 73.599609375 302 l 1
 306.5 302 l 5
 306.5 550 l 5
 349.5 550 l 5
 349.5 0 l 5
 306.5 0 l 5
 306.5 266 l 5
 73.599609375 266 l 1
 73.599609375 0 l 1
 30.599609375 0 l 1
EndSplineSet
EndChar

StartChar: I
Encoding: 73 73 42
Width: 112
VWidth: 985
Flags: HW
LayerCount: 2
Fore
SplineSet
30.599609375 0 m 5
 30.599609375 550 l 1
 73.599609375 550 l 1
 73.599609375 0 l 5
 30.599609375 0 l 5
EndSplineSet
EndChar

StartChar: J
Encoding: 74 74 43
Width: 365
VWidth: 985
Flags: HW
LayerCount: 2
Fore
SplineSet
21.25 44 m 1
 59.25 65 l 1
 90.25 41 128.25 31 169.299804688 32 c 0
 244.950195312 32 284.900390625 73 284.900390625 162 c 2
 284.900390625 550 l 1
 328.900390625 550 l 1
 328.900390625 148 l 2
 328.900390625 38 267.900390625 -11 168.450195312 -11 c 0
 106.25 -11 55.25 13 21.25 44 c 1
EndSplineSet
EndChar

StartChar: K
Encoding: 75 75 44
Width: 402
VWidth: 985
Flags: HW
LayerCount: 2
Fore
SplineSet
30.599609375 0 m 1
 30.599609375 550 l 1
 73.599609375 550 l 1
 73.599609375 265 l 5
 320.950195312 550 l 5
 373.950195312 550 l 5
 168.799804688 320 l 5
 373.950195312 0 l 1
 320.950195312 0 l 1
 141.599609375 288 l 5
 73.599609375 209 l 5
 73.599609375 0 l 1
 30.599609375 0 l 1
EndSplineSet
EndChar

StartChar: L
Encoding: 76 76 45
Width: 368
VWidth: 985
Flags: HW
LayerCount: 2
Fore
SplineSet
28.900390625 0 m 1
 28.900390625 550 l 1
 71.900390625 550 l 1
 71.900390625 43 l 1
 336.400390625 43 l 5
 336.400390625 0 l 1
 28.900390625 0 l 1
EndSplineSet
EndChar

StartChar: M
Encoding: 77 77 46
Width: 536
VWidth: 985
Flags: HW
LayerCount: 2
Fore
SplineSet
30.599609375 0 m 1
 30.599609375 550 l 1
 74.599609375 550 l 1
 264.150390625 213 l 1
 453.700195312 550 l 1
 497.700195312 550 l 1
 497.700195312 0 l 1
 453.700195312 0 l 1
 453.700195312 466 l 1
 264.150390625 127 l 1
 74.599609375 466 l 1
 74.599609375 0 l 1
 30.599609375 0 l 1
EndSplineSet
EndChar

StartChar: N
Encoding: 78 78 47
Width: 413
VWidth: 985
Flags: HW
LayerCount: 2
Fore
SplineSet
30.599609375 0 m 1
 30.599609375 550 l 1
 74.599609375 550 l 1
 332.150390625 77 l 1
 332.150390625 550 l 1
 375.150390625 550 l 13
 375.150390625 0 l 1
 332.150390625 0 l 1
 74.599609375 468 l 1
 74.599609375 0 l 1
 30.599609375 0 l 1
EndSplineSet
EndChar

StartChar: O
Encoding: 79 79 48
Width: 538
VWidth: 985
Flags: HW
LayerCount: 2
Fore
SplineSet
25.5 275 m 0
 25.5 424 136.650390625 560 265.849609375 560 c 4
 395.049804688 560 506.200195312 423 506.200195312 275 c 0
 506.200195312 126 394.200195312 -11 265.849609375 -11 c 0
 137.5 -11 25.5 126 25.5 275 c 0
69.5 275 m 0
 69.5 153 155.349609375 30 265.849609375 30 c 0
 376.349609375 30 462.200195312 153 462.200195312 275 c 0
 462.200195312 397 376.349609375 519 265.849609375 519 c 0
 155.349609375 519 69.5 397 69.5 275 c 0
EndSplineSet
EndChar

StartChar: P
Encoding: 80 80 49
Width: 384
VWidth: 985
Flags: HW
LayerCount: 2
Fore
SplineSet
30.599609375 0 m 1
 30.599609375 550 l 1
 209.75 550 l 2
 294.75 550 352.900390625 496 351.900390625 408 c 0
 351.900390625 388 359.900390625 257 174.049804688 257 c 9
 74.599609375 257 l 1
 74.599609375 0 l 13
 30.599609375 0 l 1
74.599609375 294 m 1
 199.549804688 294 l 2
 263.299804688 294 310.900390625 335 310.900390625 408 c 0
 310.900390625 472 263.299804688 514 199.549804688 514 c 2
 74.599609375 514 l 1
 74.599609375 294 l 1
EndSplineSet
EndChar

StartChar: Q
Encoding: 81 81 50
Width: 543
VWidth: 985
Flags: HW
LayerCount: 2
Fore
SplineSet
25.5 275 m 0xb8
 25.5 424 136.650390625 560 265.849609375 560 c 4
 395.049804688 560 506.200195312 423 506.200195312 275 c 0
 506.200195312 201 475.200195312 130 431.599609375 77 c 1
 514.200195312 0 l 1
 464.200195312 0 l 1x78
 409.5 53 l 1
 369.549804688 14 320.25 -11 265.849609375 -11 c 0
 137.5 -11 25.5 126 25.5 275 c 0xb8
69.5 275 m 0
 69.5 153 155.349609375 30 265.849609375 30 c 0xb8
 376.349609375 30 462.200195312 153 462.200195312 275 c 0
 462.200195312 397 376.349609375 519 265.849609375 519 c 0
 155.349609375 519 69.5 397 69.5 275 c 0
EndSplineSet
EndChar

StartChar: R
Encoding: 82 82 51
Width: 395
VWidth: 985
Flags: HW
LayerCount: 2
Fore
SplineSet
30.599609375 0 m 1
 30.599609375 550 l 5
 216.549804688 550 l 2
 305.799804688 550 364.799804688 496 363.799804688 408 c 0
 363.799804688 390 370.799804688 287 239.5 262 c 1
 363.799804688 0 l 1
 322.799804688 0 l 1
 199.549804688 258 l 1
 193.599609375 258 185.950195312 257 179.150390625 257 c 2
 74.599609375 257 l 1
 74.599609375 0 l 1
 30.599609375 0 l 1
74.599609375 294 m 1
 206.349609375 294 l 2
 273.5 294 322.799804688 335 322.799804688 408 c 0
 322.799804688 472 273.5 514 206.349609375 514 c 2
 74.599609375 514 l 1
 74.599609375 294 l 1
EndSplineSet
EndChar

StartChar: S
Encoding: 83 83 52
Width: 418
VWidth: 985
Flags: HW
LayerCount: 2
Fore
SplineSet
23.9501953125 411 m 0
 23.9501953125 485 89.650390625 560 178.900390625 560 c 0
 286.450195312 560 319.450195312 540 359.450195312 515 c 5
 326.450195312 482 l 5
 304.450195312 493 266.450195312 517 178.900390625 517 c 0
 119.400390625 518 70.9501953125 482 70.9501953125 411 c 0
 70.9501953125 328 158.5 323 200.150390625 312 c 0
 302.450195312 289 386.450195312 268 386.450195312 145 c 0
 386.450195312 69 293.450195312 -11 205.25 -11 c 0
 100.700195312 -11 62.9501953125 9 22.9501953125 34 c 1
 55.9501953125 73 l 1
 76.900390625 62 117.700195312 32 205.25 32 c 0
 258.799804688 32 339.450195312 69 339.450195312 145 c 0
 339.450195312 245 242.650390625 255 185.700195312 269 c 0
 101.549804688 289 23.9501953125 307 23.9501953125 411 c 0
EndSplineSet
EndChar

StartChar: T
Encoding: 84 84 53
Width: 416
VWidth: 985
Flags: HW
LayerCount: 2
Fore
SplineSet
21.25 513 m 1
 21.25 550 l 1
 390.099609375 550 l 1
 390.099609375 513 l 1
 226.75 513 l 1
 226.75 0 l 1
 183.75 0 l 1
 183.75 513 l 1
 21.25 513 l 1
EndSplineSet
EndChar

StartChar: U
Encoding: 85 85 54
Width: 402
VWidth: 985
Flags: HW
LayerCount: 2
Fore
SplineSet
28.900390625 177 m 2
 28.900390625 550 l 1
 71.900390625 550 l 1
 71.900390625 187 l 2
 71.900390625 87 110.150390625 32 196.849609375 32 c 0
 283.549804688 32 320.950195312 86 320.950195312 187 c 2
 320.950195312 550 l 1
 363.950195312 550 l 1
 363.950195312 177 l 2
 363.950195312 50 303.950195312 -11 196.849609375 -11 c 0
 89.75 -11 28.900390625 50 28.900390625 177 c 2
EndSplineSet
EndChar

StartChar: V
Encoding: 86 86 55
Width: 473
VWidth: 985
Flags: HW
LayerCount: 2
Fore
SplineSet
20.400390625 550 m 1
 64.400390625 550 l 5
 237.200195312 58 l 1
 403.400390625 550 l 1
 447.400390625 550 l 1
 259.200195312 0 l 1
 215.200195312 0 l 1
 20.400390625 550 l 1
EndSplineSet
EndChar

StartChar: W
Encoding: 87 87 56
Width: 866
VWidth: 985
Flags: HW
LayerCount: 2
Fore
SplineSet
20.400390625 550 m 1
 64.400390625 550 l 1
 250.400390625 58 l 1
 411.799804688 550 l 1
 449.200195312 550 l 1
 610.599609375 58 l 1
 796.599609375 550 l 1
 840.599609375 550 l 1
 632.599609375 0 l 5
 588.599609375 0 l 5
 430.5 492 l 1
 272.400390625 0 l 1
 228.400390625 0 l 1
 20.400390625 550 l 1
EndSplineSet
EndChar

StartChar: X
Encoding: 88 88 57
Width: 442
VWidth: 985
Flags: HW
LayerCount: 2
Fore
SplineSet
22.9501953125 0 m 1
 199.700195312 275 l 1
 22.9501953125 550 l 1
 67.9501953125 550 l 1
 219.25 306 l 1
 369.700195312 550 l 1
 414.700195312 550 l 1
 237.950195312 275 l 1
 414.700195312 0 l 1
 369.700195312 0 l 1
 219.25 244 l 1
 67.9501953125 0 l 1
 22.9501953125 0 l 1
EndSplineSet
EndChar

StartChar: Y
Encoding: 89 89 58
Width: 459
VWidth: 985
Flags: HW
LayerCount: 2
Fore
SplineSet
20.400390625 550 m 1
 69.400390625 550 l 1
 230.400390625 270 l 1
 385.799804688 550 l 5
 433.799804688 550 l 5
 251.400390625 229 l 1
 251.400390625 0 l 1
 208.400390625 0 l 1
 208.400390625 229 l 1
 20.400390625 550 l 1
EndSplineSet
EndChar

StartChar: Z
Encoding: 90 90 59
Width: 467
VWidth: 985
Flags: HW
LayerCount: 2
Fore
SplineSet
22.099609375 0 m 1
 361.599609375 513 l 1
 50.099609375 513 l 1
 22.099609375 550 l 5
 440.599609375 550 l 1
 101.099609375 36 l 1
 440.599609375 36 l 1
 412.599609375 0 l 1
 22.099609375 0 l 1
EndSplineSet
EndChar

StartChar: bracketleft
Encoding: 91 91 60
Width: 216
VWidth: 985
Flags: HW
LayerCount: 2
Fore
SplineSet
32.2998046875 -85 m 1xe0
 32.2998046875 575 l 1
 186.299804688 575 l 5
 186.299804688 532 l 5xe0
 75.2998046875 532 l 1
 75.2998046875 -42 l 1xd0
 186.299804688 -42 l 5
 186.299804688 -85 l 5
 32.2998046875 -85 l 1xe0
EndSplineSet
EndChar

StartChar: backslash
Encoding: 92 92 61
Width: 426
VWidth: 985
Flags: HW
LayerCount: 2
Fore
SplineSet
22.099609375 637 m 1
 69.099609375 637 l 1
 400.650390625 -87 l 1
 353.650390625 -87 l 1
 22.099609375 637 l 1
EndSplineSet
EndChar

StartChar: bracketright
Encoding: 93 93 62
Width: 216
VWidth: 985
Flags: HW
LayerCount: 2
Fore
SplineSet
32.2998046875 -42 m 5xe0
 143.299804688 -42 l 1
 143.299804688 532 l 1xd0
 32.2998046875 532 l 5
 32.2998046875 575 l 5
 186.299804688 575 l 1
 186.299804688 -85 l 1
 32.2998046875 -85 l 5
 32.2998046875 -42 l 5xe0
EndSplineSet
EndChar

StartChar: asciicflex
Encoding: 94 94 63
Width: 363
VWidth: 985
Flags: HW
LayerCount: 2
Fore
SplineSet
29.75 542 m 1
 179.75 723 l 1
 329.75 542 l 1
 286.75 542 l 5
 179.75 669 l 1
 72.75 542 l 1
 29.75 542 l 1
EndSplineSet
EndChar

StartChar: underscore
Encoding: 95 95 64
Width: 586
VWidth: 985
Flags: HW
LayerCount: 2
Fore
SplineSet
38.25 -135 m 1
 541.75 -135 l 1
 541.75 -177 l 1
 38.25 -177 l 1
 38.25 -135 l 1
EndSplineSet
EndChar

StartChar: grv
Encoding: 96 96 65
Width: 173
VWidth: 985
Flags: HW
LayerCount: 2
Fore
SplineSet
22.9501953125 737 m 1
 82.9501953125 737 l 1
 146.950195312 627 l 1
 107.950195312 627 l 1
 22.9501953125 737 l 1
EndSplineSet
EndChar

StartChar: a
Encoding: 97 97 66
Width: 420
VWidth: 985
Flags: HW
LayerCount: 2
Fore
SplineSet
26.349609375 113 m 0xbc
 26.349609375 220 108.349609375 259 195.349609375 259 c 0
 254.349609375 259 331.349609375 244 340.349609375 221 c 1
 340.349609375 286 l 2
 340.349609375 370 280.349609375 388 232.349609375 388 c 0
 143.349609375 388 83.349609375 359 54.349609375 318 c 1
 66.349609375 362 l 1
 95.349609375 407 149.349609375 432 232.349609375 432 c 0
 304.349609375 432 386.349609375 396 386.349609375 286 c 2
 386.349609375 0 l 1
 340.349609375 0 l 1x7c
 340.349609375 73 l 1
 314.349609375 32 258.349609375 -11 195.349609375 -11 c 0
 107.349609375 -11 26.349609375 20 26.349609375 113 c 0xbc
72.349609375 113 m 0
 72.349609375 57 127.349609375 34 195.349609375 34 c 0xbc
 274.349609375 34 340.349609375 106 340.349609375 136 c 0
 340.349609375 177 320.349609375 215 198.349609375 215 c 0
 153.349609375 215 72.349609375 200 72.349609375 113 c 0
EndSplineSet
Substitution2: "'smcp' Lowercase to Small Capitals lookup 0-1" A.sc
EndChar

StartChar: b
Encoding: 98 98 67
Width: 392
VWidth: 985
Flags: HW
LayerCount: 2
Fore
SplineSet
354.650390625 203 m 0x7c
 354.650390625 70 287.400390625 -11 187.099609375 -11 c 0xbc
 133.549804688 -11 94.4501953125 32 72.349609375 73 c 1
 72.349609375 0 l 1
 26.349609375 0 l 1
 26.349609375 234 l 1
 26.349609375 590 l 1
 72.349609375 590 l 1
 72.349609375 393 l 1
 95.2998046875 418 131 432 187.099609375 432 c 0
 295.049804688 432 354.650390625 320 354.650390625 203 c 0x7c
308.650390625 203 m 0
 308.650390625 300 256.799804688 388 184.549804688 388 c 0
 81.7001953125 388 74.900390625 321 72.349609375 234 c 2
 72.349609375 136 l 2
 72.349609375 106 119.950195312 34 187.099609375 34 c 0
 270.400390625 34 308.650390625 107 308.650390625 203 c 0
EndSplineSet
Substitution2: "'smcp' Lowercase to Small Capitals lookup 0-1" B.sc
EndChar

StartChar: c
Encoding: 99 99 68
Width: 434
VWidth: 985
Flags: HW
LayerCount: 2
Fore
SplineSet
26.349609375 207 m 0
 26.349609375 346 115 432 211.900390625 432 c 4
 327.299804688 432 393.299804688 376 403.299804688 307 c 1
 355.299804688 307 l 1
 345.299804688 337 309.299804688 390 215.299804688 390 c 0
 158.349609375 390 73.349609375 328 73.349609375 207 c 0
 73.349609375 63 141.349609375 32 211.900390625 32 c 0
 326.299804688 32 345.299804688 87 355.299804688 112 c 1
 403.299804688 112 l 1
 393.299804688 52 347.299804688 -11 211.900390625 -11 c 0
 123.5 -11 26.349609375 27 26.349609375 207 c 0
EndSplineSet
Substitution2: "'smcp' Lowercase to Small Capitals lookup 0-1" C.sc
EndChar

StartChar: d
Encoding: 100 100 69
Width: 392
VWidth: 985
Flags: HW
LayerCount: 2
Fore
SplineSet
26.349609375 203 m 0xbc
 26.349609375 320 85.9501953125 432 193.900390625 432 c 0
 250 432 285.700195312 418 308.650390625 393 c 1
 308.650390625 590 l 1
 354.650390625 590 l 1
 354.650390625 234 l 1
 354.650390625 0 l 1
 308.650390625 0 l 1x7c
 308.650390625 73 l 1
 286.549804688 32 247.450195312 -11 193.900390625 -11 c 0
 93.599609375 -11 26.349609375 70 26.349609375 203 c 0xbc
72.349609375 203 m 0
 72.349609375 107 110.599609375 34 193.900390625 34 c 0xbc
 261.049804688 34 308.650390625 106 308.650390625 136 c 2
 308.650390625 234 l 2
 306.099609375 321 299.299804688 388 196.450195312 388 c 0
 124.200195312 388 72.349609375 300 72.349609375 203 c 0
EndSplineSet
Substitution2: "'smcp' Lowercase to Small Capitals lookup 0-1" D.sc
EndChar

StartChar: e
Encoding: 101 101 70
Width: 454
VWidth: 985
Flags: HW
LayerCount: 2
Fore
SplineSet
26.349609375 197 m 0
 26.349609375 336 111.599609375 432 220.400390625 432 c 4
 334.299804688 432 410.299804688 361 420.299804688 222 c 1
 420.299804688 179 l 1
 73.349609375 179 l 1
 79.2998046875 80 153.25 32 220.400390625 32 c 0
 343.299804688 32 362.299804688 87 372.299804688 112 c 1
 420.299804688 112 l 1
 410.299804688 52 364.299804688 -11 220.400390625 -11 c 0
 132 -11 26.349609375 47 26.349609375 197 c 0
75.0498046875 222 m 1
 372.299804688 222 l 1
 362.299804688 322 316.299804688 390 223.799804688 390 c 0
 133.700195312 390 86.9501953125 327 75.0498046875 222 c 1
EndSplineSet
Substitution2: "'smcp' Lowercase to Small Capitals lookup 0-1" E.sc
EndChar

StartChar: f
Encoding: 102 102 71
Width: 355
VWidth: 985
Flags: HW
LayerCount: 2
Fore
SplineSet
18.7001953125 312 m 1
 18.7001953125 354 l 1
 100.700195312 354 l 1
 100.700195312 400 l 2
 100.700195312 550 177.299804688 596 238.5 596 c 0
 278.799804688 596 332.799804688 571 361.799804688 526 c 1
 373.799804688 482 l 1
 344.799804688 523 284.799804688 552 238.5 552 c 0
 197.700195312 552 146.700195312 524 146.700195312 400 c 2
 146.700195312 354 l 1
 309.799804688 354 l 1
 309.799804688 312 l 1
 146.700195312 312 l 1
 146.700195312 0 l 1
 100.700195312 0 l 1
 100.700195312 312 l 1
 18.7001953125 312 l 1
EndSplineSet
Substitution2: "'smcp' Lowercase to Small Capitals lookup 0-1" F.sc
EndChar

StartChar: g
Encoding: 103 103 72
Width: 383
VWidth: 985
Flags: HW
LayerCount: 2
Fore
SplineSet
26.349609375 195 m 0
 26.349609375 358 119.099609375 399 185.400390625 399 c 0
 238.950195312 399 278.049804688 386 300.150390625 365 c 5
 300.150390625 388 l 5
 346.150390625 388 l 5
 346.150390625 -82 l 6
 346.150390625 -162 269.549804688 -207 208.349609375 -208 c 4
 171.799804688 -208 100.400390625 -183 56.349609375 -138 c 5
 44.349609375 -94 l 5
 90.2001953125 -135 166.700195312 -164 208.349609375 -164 c 4
 249.150390625 -164 300.150390625 -136 300.150390625 -82 c 6
 300.150390625 27 l 5
 275.5 4 235.549804688 -11 185.400390625 -11 c 0
 111.450195312 -11 26.349609375 57 26.349609375 195 c 0
72.349609375 195 m 0
 72.349609375 77 149.700195312 33 187.950195312 33 c 0
 257.650390625 33 292.5 73 300.150390625 98 c 5
 300.150390625 292 l 5
 293.349609375 313 269.549804688 354 185.400390625 354 c 0
 136.099609375 354 72.349609375 321 72.349609375 195 c 0
EndSplineSet
Substitution2: "'smcp' Lowercase to Small Capitals lookup 0-1" G.sc
EndChar

StartChar: h
Encoding: 104 104 73
Width: 363
VWidth: 985
Flags: HW
LayerCount: 2
Fore
SplineSet
31.4501953125 0 m 1
 31.4501953125 550 l 1
 74.4501953125 550 l 1
 74.4501953125 268 l 1
 74.4501953125 304 110.150390625 362 190.049804688 362 c 0
 251.25 362 327.849609375 326 327.849609375 216 c 2
 327.849609375 0 l 1
 281.849609375 0 l 1
 281.849609375 216 l 2
 281.849609375 300 230.849609375 318 190.049804688 318 c 0
 114.400390625 318 74.4501953125 232 74.4501953125 205 c 1
 74.4501953125 0 l 1
 31.4501953125 0 l 1
EndSplineSet
Substitution2: "'smcp' Lowercase to Small Capitals lookup 0-1" H.sc
EndChar

StartChar: i
Encoding: 105 105 74
Width: 128
VWidth: 985
Flags: HW
LayerCount: 2
Fore
SplineSet
22.9501953125 501 m 0xe0
 22.9501953125 521 39.9501953125 538 60.9501953125 538 c 0
 81.9501953125 538 98.9501953125 521 98.9501953125 501 c 0
 98.9501953125 481 81.9501953125 464 60.9501953125 464 c 0
 39.9501953125 464 22.9501953125 481 22.9501953125 501 c 0xe0
38.9501953125 0 m 1xd0
 38.9501953125 420 l 1
 81.9501953125 420 l 1
 81.9501953125 0 l 5
 38.9501953125 0 l 1xd0
EndSplineSet
Substitution2: "'smcp' Lowercase to Small Capitals lookup 0-1" I.sc
EndChar

StartChar: j
Encoding: 106 106 75
Width: 128
VWidth: 985
Flags: HW
LayerCount: 2
Fore
SplineSet
-32.2998046875 -38 m 5xd0
 10.7001953125 -38 47.7001953125 -36 48.7001953125 30 c 2
 48.7001953125 420 l 1
 91.7001953125 420 l 1
 91.7001953125 30 l 2
 90.7001953125 -51 42.7001953125 -73 -7.2998046875 -74 c 1
 -32.2998046875 -38 l 5xd0
32.7001953125 501 m 0xe0
 32.7001953125 521 49.7001953125 538 70.7001953125 538 c 0
 91.7001953125 538 108.700195312 521 108.700195312 501 c 0
 108.700195312 481 91.7001953125 464 70.7001953125 464 c 0
 49.7001953125 464 32.7001953125 481 32.7001953125 501 c 0xe0
EndSplineSet
Substitution2: "'smcp' Lowercase to Small Capitals lookup 0-1" J.sc
EndChar

StartChar: k
Encoding: 107 107 76
Width: 400
VWidth: 985
Flags: HW
LayerCount: 2
Fore
SplineSet
30.599609375 0 m 1
 30.599609375 550 l 1
 73.599609375 550 l 1
 73.599609375 229 l 1
 286.950195312 428 l 1
 341.5 428 l 1
 167.099609375 265 l 1
 373.5 0 l 1
 323.5 0 l 1
 140.75 240 l 1
 73.599609375 176 l 1
 73.599609375 0 l 1
 30.599609375 0 l 1
EndSplineSet
Substitution2: "'smcp' Lowercase to Small Capitals lookup 0-1" K.sc
EndChar

StartChar: l
Encoding: 108 108 77
Width: 112
VWidth: 985
Flags: HW
LayerCount: 2
Fore
SplineSet
30.599609375 0 m 1
 30.599609375 550 l 5
 73.599609375 550 l 5
 73.599609375 0 l 1
 30.599609375 0 l 1
EndSplineSet
Substitution2: "'smcp' Lowercase to Small Capitals lookup 0-1" L.sc
EndChar

StartChar: m
Encoding: 109 109 78
Width: 609
VWidth: 985
Flags: HW
LayerCount: 2
Fore
SplineSet
31.4501953125 0 m 1
 31.4501953125 421 l 5
 74.4501953125 421 l 5
 74.4501953125 378 l 1
 87.2001953125 414 127.150390625 432 190.049804688 432 c 0
 233.400390625 432 281.849609375 414 309.849609375 363 c 1
 334.650390625 408 381.400390625 432 434.950195312 432 c 0
 496.150390625 432 572.75 396 572.75 286 c 2
 572.75 0 l 1
 526.75 0 l 1
 526.75 286 l 2
 526.75 370 475.75 388 434.950195312 388 c 0
 359.299804688 388 335.5 357 327.849609375 286 c 1
 327.849609375 0 l 1
 281.849609375 0 l 1
 281.849609375 286 l 2
 281.849609375 370 230.849609375 388 190.049804688 388 c 0
 131.400390625 388 92.2998046875 372 74.4501953125 345 c 1
 74.4501953125 0 l 1
 31.4501953125 0 l 1
EndSplineSet
Substitution2: "'smcp' Lowercase to Small Capitals lookup 0-1" M.sc
EndChar

StartChar: n
Encoding: 110 110 79
Width: 364
VWidth: 985
Flags: HW
LayerCount: 2
Fore
SplineSet
31.4501953125 0 m 1
 31.4501953125 421 l 5
 74.4501953125 421 l 5
 74.4501953125 378 l 1
 87.2001953125 414 127.150390625 432 190.049804688 432 c 0
 251.25 432 327.849609375 396 327.849609375 286 c 2
 327.849609375 0 l 1
 281.849609375 0 l 1
 281.849609375 286 l 2
 281.849609375 370 230.849609375 388 190.049804688 388 c 0
 131.400390625 388 92.2998046875 372 74.4501953125 345 c 1
 74.4501953125 0 l 1
 31.4501953125 0 l 1
EndSplineSet
Substitution2: "'smcp' Lowercase to Small Capitals lookup 0-1" N.sc
EndChar

StartChar: o
Encoding: 111 111 80
Width: 453
VWidth: 985
Flags: HW
LayerCount: 2
Fore
SplineSet
26.349609375 211 m 0
 26.349609375 333 119.349609375 432 223.900390625 432 c 4
 328.450195312 432 419.75 334 419.75 211 c 0
 419.75 88 328.450195312 -11 223.900390625 -11 c 0
 119.349609375 -11 26.349609375 89 26.349609375 211 c 0
68.349609375 211 m 0
 68.349609375 110 138.900390625 30 223.900390625 30 c 0
 308.900390625 30 377.75 111 377.75 211 c 0
 377.75 311 308.900390625 391 223.900390625 391 c 0
 138.900390625 391 68.349609375 312 68.349609375 211 c 0
EndSplineSet
Substitution2: "'smcp' Lowercase to Small Capitals lookup 0-1" O.sc
EndChar

StartChar: p
Encoding: 112 112 81
Width: 392
VWidth: 985
Flags: HW
LayerCount: 2
Fore
SplineSet
354.650390625 218 m 0
 354.650390625 101 295.049804688 -11 187.099609375 -11 c 4
 131 -11 95.2998046875 3 72.349609375 28 c 1
 72.349609375 -169 l 1
 26.349609375 -169 l 1
 26.349609375 187 l 1
 26.349609375 421 l 1
 72.349609375 421 l 1
 72.349609375 348 l 1
 94.4501953125 389 133.549804688 432 187.099609375 432 c 4
 287.400390625 432 354.650390625 351 354.650390625 218 c 0
308.650390625 218 m 0
 308.650390625 314 270.400390625 387 187.099609375 387 c 4
 119.950195312 387 72.349609375 315 72.349609375 285 c 2
 72.349609375 187 l 2
 74.900390625 100 81.7001953125 33 184.549804688 33 c 4
 256.799804688 33 308.650390625 121 308.650390625 218 c 0
EndSplineSet
Substitution2: "'smcp' Lowercase to Small Capitals lookup 0-1" P.sc
EndChar

StartChar: q
Encoding: 113 113 82
Width: 392
VWidth: 985
Flags: HW
LayerCount: 2
Fore
SplineSet
26.349609375 218 m 0
 26.349609375 351 93.599609375 432 193.900390625 432 c 4
 247.450195312 432 286.549804688 389 308.650390625 348 c 1
 308.650390625 421 l 1
 354.650390625 421 l 1
 354.650390625 187 l 1
 354.650390625 -169 l 1
 308.650390625 -169 l 1
 308.650390625 28 l 1
 285.700195312 3 250 -11 193.900390625 -11 c 4
 85.9501953125 -11 26.349609375 101 26.349609375 218 c 0
72.349609375 218 m 0
 72.349609375 121 124.200195312 33 196.450195312 33 c 4
 299.299804688 33 306.099609375 100 308.650390625 187 c 2
 308.650390625 285 l 2
 308.650390625 315 261.049804688 387 193.900390625 387 c 4
 110.599609375 387 72.349609375 314 72.349609375 218 c 0
EndSplineSet
Substitution2: "'smcp' Lowercase to Small Capitals lookup 0-1" Q.sc
EndChar

StartChar: r
Encoding: 114 114 83
Width: 342
VWidth: 985
Flags: HW
LayerCount: 2
Fore
SplineSet
28.0498046875 0 m 1
 28.0498046875 421 l 5
 71.0498046875 421 l 5
 71.0498046875 368 l 1
 71.0498046875 404 121.049804688 432 177.049804688 432 c 0
 229.049804688 432 276.049804688 419 316.049804688 370 c 1
 280.049804688 355 l 1
 243.049804688 381 227.049804688 388 177.049804688 388 c 0
 128.049804688 388 71.0498046875 357 71.0498046875 316 c 1
 71.0498046875 0 l 1
 28.0498046875 0 l 1
EndSplineSet
Substitution2: "'smcp' Lowercase to Small Capitals lookup 0-1" R.sc
EndChar

StartChar: s
Encoding: 115 115 84
Width: 427
VWidth: 985
Flags: HW
LayerCount: 2
Fore
SplineSet
21.25 54 m 1
 54.25 91 l 1
 54.25 91 94.25 34 216.549804688 34 c 0
 253.099609375 34 350.75 26 350.75 102 c 4
 350.75 152 245.450195312 170 188.5 184 c 0
 104.349609375 204 52.25 242 52.25 316 c 0
 52.25 422 146.849609375 432 214 432 c 0
 305.75 432 367.75 383 367.75 383 c 1
 334.75 346 l 1
 334.75 346 285.75 387 214 387 c 0
 177.450195312 387 99.25 378 99.25 316 c 0
 99.25 256 161.299804688 234 202.950195312 224 c 0
 303.75 201 397.75 185 397.75 102 c 4
 397.75 -4 284.75 -11 216.549804688 -11 c 0
 74.25 -11 21.25 54 21.25 54 c 1
EndSplineSet
Substitution2: "'smcp' Lowercase to Small Capitals lookup 0-1" S.sc
EndChar

StartChar: t
Encoding: 116 116 85
Width: 328
VWidth: 985
Flags: HW
LayerCount: 2
Fore
SplineSet
22.9501953125 387 m 1
 42.9501953125 430 l 1
 124.950195312 430 l 1
 124.950195312 550 l 1
 167.950195312 550 l 1
 167.950195312 430 l 1
 317.950195312 430 l 5
 297.950195312 387 l 1
 167.950195312 387 l 1
 167.950195312 0 l 1
 124.950195312 0 l 1
 124.950195312 387 l 1
 22.9501953125 387 l 1
EndSplineSet
Substitution2: "'smcp' Lowercase to Small Capitals lookup 0-1" T.sc
EndChar

StartChar: u
Encoding: 117 117 86
Width: 364
VWidth: 985
Flags: HW
LayerCount: 2
Fore
SplineSet
31.4501953125 135 m 2xb0
 31.4501953125 421 l 1
 77.4501953125 421 l 1
 77.4501953125 135 l 2
 77.4501953125 51 128.450195312 33 169.25 33 c 0xb0
 227.900390625 33 267 49 284.849609375 76 c 1
 284.849609375 421 l 1
 327.849609375 421 l 1
 327.849609375 0 l 1
 284.849609375 0 l 1x70
 284.849609375 43 l 1
 272.099609375 7 232.150390625 -11 169.25 -11 c 4
 108.049804688 -11 31.4501953125 25 31.4501953125 135 c 2xb0
EndSplineSet
Substitution2: "'smcp' Lowercase to Small Capitals lookup 0-1" U.sc
EndChar

StartChar: v
Encoding: 118 118 87
Width: 473
VWidth: 985
Flags: HW
LayerCount: 2
Fore
SplineSet
20.400390625 430 m 5
 64.400390625 430 l 5
 237.200195312 58 l 1
 403.400390625 430 l 5
 447.400390625 430 l 5
 259.200195312 0 l 1
 215.200195312 0 l 1
 20.400390625 430 l 5
EndSplineSet
Substitution2: "'smcp' Lowercase to Small Capitals lookup 0-1" V.sc
EndChar

StartChar: w
Encoding: 119 119 88
Width: 832
VWidth: 985
Flags: HW
LayerCount: 2
Fore
SplineSet
20.400390625 430 m 1
 64.400390625 430 l 1
 250.400390625 58 l 1
 394.799804688 410 l 1
 432.200195312 410 l 1
 576.599609375 58 l 1
 762.599609375 430 l 1
 806.599609375 430 l 1
 598.599609375 0 l 1
 554.599609375 0 l 1
 413.5 361 l 1
 272.400390625 0 l 1
 228.400390625 0 l 1
 20.400390625 430 l 1
EndSplineSet
Substitution2: "'smcp' Lowercase to Small Capitals lookup 0-1" W.sc
EndChar

StartChar: x
Encoding: 120 120 89
Width: 400
VWidth: 985
Flags: HW
LayerCount: 2
Fore
SplineSet
21.25 0 m 1
 177.75 215 l 1
 21.25 430 l 1
 67.25 430 l 1
 197.299804688 243 l 1
 327.349609375 430 l 5
 373.349609375 430 l 5
 216.849609375 215 l 1
 373.349609375 0 l 1
 327.349609375 0 l 1
 197.299804688 187 l 1
 67.25 0 l 1
 21.25 0 l 1
EndSplineSet
Substitution2: "'smcp' Lowercase to Small Capitals lookup 0-1" X.sc
EndChar

StartChar: y
Encoding: 121 121 90
Width: 464
VWidth: 985
Flags: HW
LayerCount: 2
Fore
SplineSet
22.9501953125 430 m 5
 71.9501953125 430 l 5
 229.650390625 150 l 1
 388.349609375 430 l 5
 436.349609375 430 l 5
 126.950195312 -120 l 1
 83.9501953125 -120 l 1
 210.950195312 109 l 1
 22.9501953125 430 l 5
EndSplineSet
Substitution2: "'smcp' Lowercase to Small Capitals lookup 0-1" Y.sc
EndChar

StartChar: z
Encoding: 122 122 91
Width: 421
VWidth: 985
Flags: HW
LayerCount: 2
Fore
SplineSet
23.099609375 0 m 1
 313.700195312 394 l 1
 22.099609375 394 l 1
 45.099609375 430 l 1
 394.700195312 430 l 1
 104.099609375 36 l 1
 394.700195312 36 l 5
 371.700195312 0 l 1
 23.099609375 0 l 1
EndSplineSet
Substitution2: "'smcp' Lowercase to Small Capitals lookup 0-1" Z.sc
EndChar

StartChar: lbrace
Encoding: 123 123 92
Width: 268
VWidth: 985
Flags: HW
LayerCount: 2
Fore
SplineSet
22.9501953125 246 m 1
 91.9501953125 343 45.9501953125 577 111.950195312 577 c 1
 239.950195312 575 l 1
 239.950195312 532 l 1
 161.950195312 534 l 1
 95.9501953125 534 141.950195312 343 72.9501953125 246 c 1
 141.950195312 149 95.9501953125 -42 161.950195312 -42 c 1
 239.950195312 -42 l 5
 239.950195312 -85 l 5
 111.950195312 -85 l 1
 45.9501953125 -85 91.9501953125 149 22.9501953125 246 c 1
EndSplineSet
EndChar

StartChar: bar
Encoding: 124 124 93
Width: 112
VWidth: 985
Flags: HW
LayerCount: 2
Fore
SplineSet
32.2998046875 -85 m 1
 32.2998046875 605 l 1
 75.2998046875 605 l 1
 75.2998046875 -85 l 1
 32.2998046875 -85 l 1
EndSplineSet
EndChar

StartChar: rbrace
Encoding: 125 125 94
Width: 268
VWidth: 985
Flags: HW
LayerCount: 2
Fore
SplineSet
22.9501953125 -42 m 5
 100.950195312 -42 l 1
 166.950195312 -42 120.950195312 149 189.950195312 246 c 1
 120.950195312 343 166.950195312 534 100.950195312 534 c 1
 22.9501953125 532 l 5
 22.9501953125 575 l 5
 150.950195312 577 l 1
 216.950195312 577 170.950195312 343 239.950195312 246 c 1
 170.950195312 149 216.950195312 -85 150.950195312 -85 c 1
 22.9501953125 -85 l 5
 22.9501953125 -42 l 5
EndSplineSet
EndChar

StartChar: asciitilde
Encoding: 126 126 95
Width: 435
VWidth: 985
Flags: HW
LayerCount: 2
Fore
SplineSet
29.75 240 m 1
 48.75 263 75.75 281 127.75 287 c 0
 209.25 297 249.200195312 267 304.650390625 255 c 4
 346.650390625 247 371.650390625 253 382.650390625 267 c 1
 400.650390625 237 l 1
 380.650390625 214 355.650390625 203 302.650390625 211 c 4
 246.650390625 221 198.200195312 253 125.75 243 c 0
 83.75 238 58.75 225 47.75 211 c 1
 29.75 240 l 1
EndSplineSet
EndChar

StartChar: exmarkdown
Encoding: 161 161 97
Width: 134
VWidth: 985
Flags: HW
LayerCount: 2
Fore
SplineSet
27.2001953125 534 m 0xe0
 27.2001953125 554 44.2001953125 571 65.2001953125 571 c 0
 86.2001953125 571 103.200195312 554 103.200195312 534 c 0
 103.200195312 514 86.2001953125 497 65.2001953125 497 c 0
 44.2001953125 497 27.2001953125 514 27.2001953125 534 c 0xe0
29.2001953125 0 m 1
 46.2001953125 433 l 1
 84.2001953125 433 l 1xd0
 101.200195312 0 l 5
 29.2001953125 0 l 1
EndSplineSet
EndChar

StartChar: cent
Encoding: 162 162 98
Width: 434
VWidth: 985
Flags: HW
LayerCount: 2
Fore
SplineSet
26.349609375 207 m 0
 26.349609375 336 103.950195312 420 191.5 431 c 1
 191.5 507 l 1
 228.049804688 507 l 1
 228.049804688 432 l 1
 334.299804688 427 394.299804688 373 403.299804688 307 c 1
 355.299804688 307 l 1
 345.299804688 337 309.299804688 390 215.299804688 390 c 0
 158.349609375 390 73.349609375 328 73.349609375 207 c 0
 73.349609375 63 141.349609375 32 211.900390625 32 c 0
 326.299804688 32 345.299804688 87 355.299804688 112 c 1
 403.299804688 112 l 1
 393.299804688 55 351.299804688 -6 228.049804688 -11 c 1
 228.049804688 -80 l 1
 191.5 -80 l 1
 191.5 -10 l 1
 109.900390625 -4 26.349609375 41 26.349609375 207 c 0
EndSplineSet
EndChar

StartChar: sterling
Encoding: 163 163 99
Width: 349
VWidth: 985
Flags: HW
LayerCount: 2
Fore
SplineSet
-13.599609375 0 m 1
 -13.599609375 76 45.400390625 110 57.400390625 217 c 1
 -11.599609375 217 l 1
 -11.599609375 259 l 1
 59.400390625 259 l 1
 59.400390625 290 55.400390625 325 46.400390625 368 c 0
 26.400390625 462 88.400390625 564 187.200195312 564 c 0
 227.5 564 281.5 539 310.5 494 c 1
 322.5 450 l 1
 293.5 491 233.5 520 187.200195312 520 c 0
 112.400390625 520 71.400390625 439 92.400390625 368 c 0
 105.400390625 325 111.400390625 290 113.25 259 c 1
 263.5 259 l 1
 263.5 217 l 1
 112.400390625 217 l 1
 105.400390625 134 61.400390625 95 41.400390625 42 c 1
 318.5 42 l 1
 318.5 0 l 1
 32.400390625 0 l 1
 -13.599609375 0 l 1
EndSplineSet
EndChar

StartChar: yen
Encoding: 165 165 100
Width: 459
VWidth: 985
Flags: HW
LayerCount: 2
Fore
SplineSet
20.400390625 550 m 1
 69.400390625 550 l 1
 227.099609375 270 l 1
 385.799804688 550 l 1
 433.799804688 550 l 1
 248.349609375 235 l 1
 368.799804688 235 l 1
 375.25 193 l 1
 251.400390625 193 l 1
 251.400390625 165 l 1
 375.25 165 l 1
 375.25 123 l 1
 251.400390625 123 l 1
 251.400390625 0 l 1
 208.400390625 0 l 1
 208.400390625 123 l 1
 73.400390625 123 l 5
 73.400390625 165 l 5
 208.400390625 165 l 1
 208.400390625 193 l 1
 73.400390625 193 l 5
 73.400390625 235 l 5
 205 235 l 1
 20.400390625 550 l 1
EndSplineSet
EndChar

StartChar: brokenbar
Encoding: 166 166 101
Width: 112
VWidth: 985
Flags: HW
LayerCount: 2
Fore
SplineSet
32.2998046875 -85 m 1
 32.2998046875 195 l 1
 75.2998046875 195 l 1
 75.2998046875 -85 l 1
 32.2998046875 -85 l 1
32.2998046875 325 m 1
 32.2998046875 605 l 1
 75.2998046875 605 l 1
 75.2998046875 325 l 1
 32.2998046875 325 l 1
EndSplineSet
EndChar

StartChar: section
Encoding: 167 167 102
Width: 531
VWidth: 985
Flags: HW
LayerCount: 2
Fore
SplineSet
22.9501953125 34 m 1
 55.9501953125 73 l 1
 76.900390625 62 117.700195312 32 245.92578125 32 c 0
 335.5703125 32 452.25 69 452.25 145 c 0
 452.25 201 406.716796875 229 351.22265625 245 c 1
 331.30078125 212 288.61328125 189 233.119140625 189 c 0
 158.549804688 189 118.549804688 232 118.549804688 284 c 2
 118.549804688 288 l 1
 65.9501953125 307 23.9501953125 337 23.9501953125 411 c 0
 23.9501953125 485 89.650390625 560 201.814453125 560 c 0
 376.834960938 560 423.791015625 540 472.25 515 c 1
 433.751953125 482 l 1
 402.447265625 493 348.375976562 517 201.814453125 517 c 0
 119.549804688 518 70.9501953125 482 70.9501953125 411 c 0
 70.9501953125 365 98.150390625 343 130.549804688 331 c 1
 146.549804688 359 181.893554688 378 233.119140625 378 c 0
 305.688476562 378 358.336914062 341 362.60546875 291 c 1
 456.25 269 499.25 233 499.25 145 c 0
 499.25 69 386.794921875 -11 245.92578125 -11 c 0
 100.700195312 -11 62.9501953125 9 22.9501953125 34 c 1
160.549804688 284 m 4
 160.549804688 254 191.854492188 231 233.119140625 231 c 4
 274.383789062 231 302.842773438 255 302.842773438 284 c 4
 302.842773438 313 274.383789062 336 233.119140625 336 c 4
 191.854492188 336 160.549804688 314 160.549804688 284 c 4
EndSplineSet
EndChar

StartChar: dieresis
Encoding: 168 168 103
Width: 281
VWidth: 985
Flags: HW
LayerCount: 2
Fore
SplineSet
34.849609375 639 m 0
 34.849609375 659 51.849609375 676 72.849609375 676 c 0
 93.849609375 676 110.849609375 659 110.849609375 639 c 0
 110.849609375 619 93.849609375 602 72.849609375 602 c 0
 51.849609375 602 34.849609375 619 34.849609375 639 c 0
164.849609375 639 m 0
 164.849609375 659 181.849609375 676 202.849609375 676 c 0
 223.849609375 676 240.849609375 659 240.849609375 639 c 0
 240.849609375 619 223.849609375 602 202.849609375 602 c 0
 181.849609375 602 164.849609375 619 164.849609375 639 c 0
EndSplineSet
EndChar

StartChar: copyright
Encoding: 169 169 104
Width: 463
VWidth: 985
Flags: HW
LayerCount: 2
Fore
SplineSet
26.349609375 211 m 0
 26.349609375 333 119.5 432 229 432 c 0
 338.650390625 432 429.950195312 334 429.950195312 211 c 0
 429.950195312 88 338.650390625 -11 229 -11 c 0
 119.5 -11 26.349609375 89 26.349609375 211 c 0
68.349609375 211 m 0
 68.349609375 110 142.5 30 229 30 c 0
 317 30 387.950195312 111 387.950195312 211 c 0
 387.950195312 311 317 391 229 391 c 0
 142.5 391 68.349609375 312 68.349609375 211 c 0
118.5 213 m 4
 118.5 284 155.900390625 360 229 360 c 4
 280 360 331 332 331 278 c 4
 331 273 l 5
 297 273 l 5
 297 278 l 4
 297 304 273.200195312 329 230.700195312 329 c 4
 184.799804688 329 152.5 277 152.5 213 c 4
 152.5 157 176.299804688 96 229 96 c 4
 272.349609375 96 297 122 297 146 c 4
 297 151 l 5
 331 151 l 5
 331 146 l 4
 331 97 280 65 229 65 c 4
 161 65 118.5 121 118.5 213 c 4
EndSplineSet
EndChar

StartChar: ordfeminine
Encoding: 170 170 105
Width: 268
VWidth: 886
Flags: HW
LayerCount: 2
Fore
SplineSet
27.2001953125 438 m 0
 27.2001953125 501 76.2001953125 523 125.200195312 523 c 0
 151.200195312 523 184.200195312 518 200.200195312 509 c 1
 200.200195312 533 l 0
 200.200195312 575 170.200195312 584 145.200195312 584 c 0
 97.2001953125 584 66.2001953125 569 51.2001953125 548 c 0
 34.2001953125 523 l 1
 49.2001953125 577 l 1
 50.2001953125 578 l 0
 67.2001953125 605 98.2001953125 618 145.200195312 618 c 0
 186.200195312 618 235.200195312 597 235.200195312 533 c 0
 235.200195312 371 l 1
 200.200195312 371 l 1
 200.200195312 401 l 1
 183.200195312 381 156.200195312 365 125.200195312 365 c 4
 76.2001953125 365 27.2001953125 383 27.2001953125 438 c 0
62.2001953125 438 m 0
 62.2001953125 412 88.2001953125 399 125.200195312 399 c 0
 166.200195312 399 200.200195312 439 200.200195312 451 c 0
 200.200195312 471 193.200195312 489 127.200195312 489 c 0
 102.200195312 489 62.2001953125 481 62.2001953125 438 c 0
EndSplineSet
EndChar

StartChar: guillemotleft
Encoding: 171 171 106
Width: 457
VWidth: 985
Flags: HW
LayerCount: 2
Fore
SplineSet
19.5498046875 267 m 1
 281.5 487 l 1
 281.5 423 l 1
 101.549804688 267 l 1
 281.5 114 l 1
 281.5 47 l 1
 19.5498046875 267 l 1
165.049804688 267 m 5
 427 487 l 5
 427 423 l 5
 234.75 267 l 5
 427 114 l 5
 427 47 l 5
 165.049804688 267 l 5
EndSplineSet
EndChar

StartChar: logicalnot
Encoding: 172 172 107
Width: 437
VWidth: 985
Flags: HW
LayerCount: 2
Fore
SplineSet
30.599609375 254 m 1
 30.599609375 296 l 1
 400 296 l 1
 400 192 l 1
 358 203 l 1
 358 254 l 1
 30.599609375 254 l 1
EndSplineSet
EndChar

StartChar: sfthyphen
Encoding: 173 173 108
Width: 394
VWidth: 985
Flags: HW
LayerCount: 2
Fore
SplineSet
32.2998046875 239 m 1
 32.2998046875 281 l 1
 357.299804688 281 l 1
 357.299804688 239 l 1
 32.2998046875 239 l 1
EndSplineSet
EndChar

StartChar: registered
Encoding: 174 174 109
Width: 462
VWidth: 985
Flags: HW
LayerCount: 2
Fore
SplineSet
26.349609375 211 m 0
 26.349609375 333 119.349609375 432 228.700195312 432 c 0
 337.900390625 432 429.200195312 334 429.200195312 211 c 0
 429.200195312 88 336.8125 -11 229.956054688 -11 c 0
 119.349609375 -11 26.349609375 89 26.349609375 211 c 0
68.349609375 211 m 0
 68.349609375 110 138.900390625 30 229.956054688 30 c 0
 316.831054688 30 387.200195312 111 387.200195312 211 c 0
 387.200195312 311 318.349609375 391 228.700195312 391 c 0
 138.900390625 391 68.349609375 312 68.349609375 211 c 0
139.75 69 m 5
 139.75 353 l 5
 238.900390625 353 l 4
 284.799804688 353 318.349609375 325 318.349609375 278 c 4
 318.349609375 269 320.900390625 216 258.625 200 c 5
 319.4375 69 l 5
 291.637695312 69 l 5
 229.087890625 197 l 5
 171.75 197 l 5
 171.75 69 l 5
 139.75 69 l 5
171.75 225 m 5
 233.799804688 225 l 4
 266.099609375 225 287.349609375 245 287.349609375 278 c 4
 287.349609375 306 266.950195312 325 233.799804688 325 c 4
 171.75 325 l 5
 171.75 225 l 5
EndSplineSet
EndChar

StartChar: macron
Encoding: 175 175 110
Width: 360
VWidth: 985
Flags: HW
LayerCount: 2
Fore
SplineSet
35.7001953125 580 m 1
 35.7001953125 622 l 1
 319.700195312 622 l 1
 319.700195312 580 l 1
 35.7001953125 580 l 1
EndSplineSet
EndChar

StartChar: degree
Encoding: 176 176 111
Width: 302
VWidth: 886
Flags: HW
LayerCount: 2
Fore
SplineSet
27.2001953125 602 m 4
 27.2001953125 672 80.2001953125 728 151.200195312 728 c 4
 222.200195312 728 273.200195312 673 273.200195312 602 c 4
 273.200195312 531 222.200195312 475 151.200195312 475 c 4
 80.2001953125 475 27.2001953125 532 27.2001953125 602 c 4
60.2001953125 602 m 4
 60.2001953125 549 99.2001953125 507 151.200195312 507 c 4
 203.200195312 507 240.200195312 550 240.200195312 602 c 4
 240.200195312 654 203.200195312 696 151.200195312 696 c 4
 99.2001953125 696 60.2001953125 655 60.2001953125 602 c 4
EndSplineSet
EndChar

StartChar: plusminus
Encoding: 177 177 112
Width: 454
VWidth: 985
Flags: HW
LayerCount: 2
Fore
SplineSet
30.599609375 0 m 1
 30.599609375 42 l 1
 418 42 l 1
 418 0 l 1
 30.599609375 0 l 1
30.599609375 269 m 5
 30.599609375 311 l 5
 203.299804688 311 l 5
 203.299804688 493 l 5
 245.299804688 493 l 5
 245.299804688 311 l 5
 418 311 l 5
 418 269 l 5
 245.299804688 269 l 5
 245.299804688 87 l 5
 203.299804688 87 l 5
 203.299804688 269 l 5
 30.599609375 269 l 5
EndSplineSet
EndChar

StartChar: super2
Encoding: 178 178 113
Width: 260
VWidth: 917
Flags: HW
LayerCount: 2
Fore
SplineSet
20.400390625 371 m 1
 30.400390625 380 l 0
 30.400390625 380 196.400390625 537 196.400390625 598 c 0
 196.400390625 635 169.400390625 656 131.400390625 656 c 0
 112.400390625 656 86.400390625 640 81.400390625 617 c 0
 80.400390625 613 l 1
 39.400390625 613 l 1
 40.400390625 619 l 0
 46.400390625 651 82.400390625 689 131.400390625 689 c 0
 207.400390625 689 230.400390625 634 228.400390625 595 c 1
 225.400390625 529 132.400390625 433 103.400390625 405 c 1
 234.400390625 405 l 1
 227.400390625 371 l 5
 20.400390625 371 l 1
EndSplineSet
EndChar

StartChar: super3
Encoding: 179 179 114
Width: 255
VWidth: 915
Flags: HW
LayerCount: 2
Fore
SplineSet
23.7998046875 410 m 5xe8
 41.7998046875 440 l 5
 45.7998046875 432 l 4
 54.7998046875 416 78.7998046875 399 119.799804688 399 c 4
 161.799804688 399 190.799804688 419 190.799804688 461 c 4xe8
 190.799804688 494 164.799804688 518 115.799804688 521 c 4
 110.799804688 521 l 5
 110.799804688 549 l 5
 114.799804688 550 l 4
 115.799804688 550 181.799804688 564 181.799804688 604 c 4
 181.799804688 640 153.799804688 656 117.799804688 656 c 4
 99.7998046875 656 67.7998046875 642 64.7998046875 639 c 5
 62.7998046875 633 l 5
 32.7998046875 655 l 5
 36.7998046875 660 l 4
 47.7998046875 671 86.7998046875 690 117.799804688 690 c 4
 212.799804688 690 216.799804688 618 216.799804688 604 c 4xf0
 216.799804688 566 190.799804688 546 174.799804688 538 c 5
 194.799804688 531 226.799804688 511 226.799804688 461 c 4
 226.799804688 392 177.799804688 365 119.799804688 365 c 4
 70.7998046875 365 38.7998046875 385 25.7998046875 407 c 4
 23.7998046875 410 l 5xe8
EndSplineSet
EndChar

StartChar: acute
Encoding: 180 180 115
Width: 173
VWidth: 985
Flags: HW
LayerCount: 2
Fore
SplineSet
22.9501953125 627 m 1
 86.9501953125 737 l 1
 146.950195312 737 l 1
 61.9501953125 627 l 1
 22.9501953125 627 l 1
EndSplineSet
EndChar

StartChar: mu
Encoding: 181 181 116
Width: 364
VWidth: 985
Flags: HW
LayerCount: 2
Fore
SplineSet
31.4501953125 -140 m 1xb0
 31.4501953125 421 l 5
 77.4501953125 421 l 1
 77.4501953125 135 l 2
 77.4501953125 51 128.450195312 33 169.25 33 c 0xb0
 227.900390625 33 267 49 284.849609375 76 c 1
 284.849609375 421 l 1
 327.849609375 421 l 1
 327.849609375 0 l 1
 284.849609375 0 l 1x70
 284.849609375 43 l 1
 272.099609375 7 232.150390625 -11 169.25 -11 c 0
 136.950195312 -11 102.950195312 -1 77.4501953125 24 c 1
 77.4501953125 -140 l 1
 31.4501953125 -140 l 1xb0
EndSplineSet
EndChar

StartChar: paragraph
Encoding: 182 182 117
Width: 489
VWidth: 985
Flags: HW
LayerCount: 2
Fore
SplineSet
27.2060546875 408 m 0
 26.2060546875 496 87.2060546875 550 187.206054688 550 c 2
 390.206054688 550 l 1
 390.206054688 0 l 1
 346.206054688 0 l 17
 346.206054688 257 l 1
 229.206054688 257 l 17
 19.2060546875 257 27.2060546875 388 27.2060546875 408 c 0
411.456054688 0 m 1
 411.456054688 550 l 1
 454.456054688 550 l 1
 454.456054688 0 l 1
 411.456054688 0 l 1
EndSplineSet
EndChar

StartChar: middot
Encoding: 183 183 118
Width: 142
VWidth: 985
Flags: HW
LayerCount: 2
Fore
SplineSet
30.599609375 317 m 0
 30.599609375 337 47.599609375 354 68.599609375 354 c 0
 89.599609375 354 106.599609375 337 106.599609375 317 c 0
 106.599609375 297 89.599609375 280 68.599609375 280 c 0
 47.599609375 280 30.599609375 297 30.599609375 317 c 0
EndSplineSet
EndChar

StartChar: cedilla
Encoding: 184 184 119
Width: 274
VWidth: 985
Flags: HW
LayerCount: 2
Fore
SplineSet
29.75 -229 m 5
 40.75 -204 l 1
 65.75 -211 191.75 -207 191.75 -161 c 0
 191.75 -105 124.75 -103 83.75 -103 c 1
 98.75 -1 l 1
 136.75 -1 l 1
 136.75 -80 l 1
 196.75 -80 237.75 -117 237.75 -154 c 4
 237.75 -291 56.75 -239 29.75 -229 c 5
EndSplineSet
EndChar

StartChar: super1
Encoding: 185 185 120
Width: 146
VWidth: 917
Flags: HW
LayerCount: 2
Fore
SplineSet
22.9501953125 609 m 1
 22.9501953125 645 l 1
 73.9501953125 689 l 1
 111.950195312 689 l 1
 111.950195312 371 l 5
 77.9501953125 371 l 5
 77.9501953125 651 l 1
 22.9501953125 609 l 1
EndSplineSet
EndChar

StartChar: ordmasculine
Encoding: 186 186 121
Width: 312
VWidth: 886
Flags: HW
LayerCount: 2
Fore
SplineSet
28.0498046875 492 m 4
 28.0498046875 562 86.0498046875 618 157.049804688 618 c 4
 228.049804688 618 284.049804688 563 284.049804688 492 c 4
 284.049804688 421 228.049804688 365 157.049804688 365 c 4
 86.0498046875 365 28.0498046875 422 28.0498046875 492 c 4
61.0498046875 492 m 4
 61.0498046875 439 105.049804688 397 157.049804688 397 c 4
 209.049804688 397 251.049804688 440 251.049804688 492 c 4
 251.049804688 544 209.049804688 586 157.049804688 586 c 4
 105.049804688 586 61.0498046875 545 61.0498046875 492 c 4
EndSplineSet
EndChar

StartChar: guillemotright
Encoding: 187 187 122
Width: 457
VWidth: 985
Flags: HW
LayerCount: 2
Fore
SplineSet
19.5498046875 47 m 5
 19.5498046875 114 l 5
 211.799804688 267 l 5
 19.5498046875 423 l 5
 19.5498046875 487 l 5
 281.5 267 l 5
 19.5498046875 47 l 5
165.049804688 47 m 1
 165.049804688 114 l 1
 345 267 l 1
 165.049804688 423 l 1
 165.049804688 487 l 1
 427 267 l 1
 165.049804688 47 l 1
EndSplineSet
EndChar

StartChar: onefourth
Encoding: 188 188 123
Width: 445
VWidth: 985
Flags: HW
LayerCount: 2
Fore
SplineSet
25.5 472 m 1
 25.5 508 l 1
 76.5 550 l 1
 114.5 550 l 1
 114.5 242 l 1
 80.5 242 l 1
 80.5 513 l 1
 25.5 472 l 1
51.5 0 m 1
 331.75 550 l 1
 369.75 550 l 1
 89.5 0 l 1
 51.5 0 l 1
206.125 92 m 1
 321.900390625 302 l 1
 356.75 302 l 1
 356.75 121 l 1
 406.75 121 l 1
 415.75 93 l 1
 356.75 93 l 1
 356.75 0 l 1
 322.75 0 l 1
 322.75 92 l 1
 206.125 92 l 1
253.638671875 121 m 1
 322.75 121 l 1
 322.75 245 l 1
 253.638671875 121 l 1
EndSplineSet
EndChar

StartChar: onehalf
Encoding: 189 189 124
Width: 462
VWidth: 985
Flags: HW
LayerCount: 2
Fore
SplineSet
25.5 472 m 1
 25.5 508 l 1
 76.5 550 l 1
 114.5 550 l 1
 114.5 242 l 1
 80.5 242 l 1
 80.5 513 l 1
 25.5 472 l 1
51.5 0 m 1
 330.400390625 550 l 1
 362.700195312 550 l 1
 89.5 0 l 1
 51.5 0 l 1
240.974609375 0 m 5
 249.581054688 8 l 4
 249.581054688 8 392.450195312 161 392.450195312 219 c 4
 392.450195312 255 369.5 275 337.200195312 275 c 4
 321.049804688 275 298.950195312 259 294.700195312 236 c 4
 293.849609375 232 l 5
 259 232 l 5
 259.849609375 238 l 4
 264.950195312 270 295.549804688 308 337.200195312 308 c 4
 403.450195312 308 426.450195312 255 424.450195312 217 c 5
 421.450195312 153 337.368164062 61 312.409179688 34 c 5
 430.450195312 34 l 5
 423.450195312 0 l 5
 240.974609375 0 l 5
EndSplineSet
EndChar

StartChar: threefourths
Encoding: 190 190 125
Width: 518
VWidth: 985
Flags: HW
LayerCount: 2
Fore
SplineSet
25.5 291 m 1xf6
 43.5 321 l 1
 47.5 313 l 0
 56.5 297 80.5 280 121.5 280 c 0
 163.5 280 192.5 300 192.5 340 c 0xf6
 192.5 371 166.5 394 117.5 397 c 0
 112.5 398 l 1
 112.5 424 l 1
 116.5 425 l 0
 117.5 425 183.5 439 183.5 477 c 0
 183.5 512 155.5 527 119.5 527 c 0
 101.5 527 69.5 513 66.5 510 c 1
 64.5 504 l 1
 34.5 526 l 1
 38.5 531 l 0
 49.5 542 88.5 561 119.5 561 c 0
 214.5 561 218.5 491 218.5 478 c 0xfa
 218.5 441 192.5 422 176.5 414 c 1
 196.5 407 228.5 388 228.5 339 c 0
 228.5 272 179.5 246 121.5 246 c 0
 72.5 246 40.5 266 27.5 288 c 0
 25.5 291 l 1xf6
116.5 0 m 1
 404.099609375 550 l 1
 442.099609375 550 l 1
 154.5 0 l 1
 116.5 0 l 1
274.799804688 92 m 1
 394.25 302 l 5
 429.099609375 302 l 5
 429.099609375 121 l 5
 478.099609375 121 l 5
 488.099609375 93 l 5
 429.099609375 93 l 5
 429.099609375 0 l 5
 395.099609375 0 l 5
 395.099609375 92 l 5
 274.799804688 92 l 1
322.919921875 121 m 1
 395.099609375 121 l 5
 395.099609375 245 l 5
 322.919921875 121 l 1
EndSplineSet
EndChar

StartChar: questiondown
Encoding: 191 191 126
Width: 335
VWidth: 985
Flags: HW
LayerCount: 2
Fore
SplineSet
23.7998046875 137 m 0xec
 23.7998046875 271 153.400390625 250 153.400390625 343 c 9
 153.400390625 423 l 1
 194.200195312 423 l 1
 194.200195312 329 l 17
 194.200195312 223 69.7998046875 248 71.7998046875 137 c 0
 73.5 15 246.049804688 10 255.400390625 133 c 1
 306.400390625 133 l 1
 306.400390625 39 230.75 -11 164.450195312 -11 c 4
 91.349609375 -11 23.7998046875 55 23.7998046875 137 c 0xec
141.5 524 m 0xf4
 141.5 544 155.950195312 561 173.799804688 561 c 0
 191.650390625 561 206.099609375 544 206.099609375 524 c 0
 206.099609375 504 191.650390625 487 173.799804688 487 c 0
 155.950195312 487 141.5 504 141.5 524 c 0xf4
EndSplineSet
EndChar

StartChar: overline
Encoding: 8254 8254 127
Width: 353
VWidth: 985
Flags: HW
LayerCount: 2
Fore
SplineSet
32.2998046875 725 m 5
 32.2998046875 767 l 5
 316.299804688 767 l 5
 316.299804688 725 l 5
 32.2998046875 725 l 5
EndSplineSet
EndChar

StartChar: Euro
Encoding: 8364 8364 128
Width: 458
VWidth: 985
Flags: HW
LayerCount: 2
Fore
SplineSet
-70.5498046875 193 m 1xe8
 -70.5498046875 235 l 1
 44.4501953125 249 l 1
 44.4501953125 257 43.4501953125 266 43.4501953125 275 c 0xe8
 43.4501953125 282 44.4501953125 290 44.4501953125 297 c 1
 -70.5498046875 283 l 1
 -70.5498046875 325 l 1
 48.4501953125 340 l 1
 68.4501953125 456 133.799804688 560 251.950195312 560 c 0
 352.25 560 443.599609375 504 443.599609375 405 c 1
 395.599609375 405 l 1
 395.599609375 465 342.049804688 518 255.349609375 518 c 0
 174.599609375 518 115.950195312 444 97.25 346 c 1xd8
 298.700195312 375 l 1
 298.700195312 333 l 1
 91.2998046875 303 l 1
 90.4501953125 294 90.4501953125 284 90.4501953125 275 c 0
 90.4501953125 268 91.2998046875 262 91.2998046875 255 c 1
 298.700195312 285 l 1
 298.700195312 243 l 1
 95.5498046875 214 l 1
 110 120 159.299804688 32 251.950195312 32 c 0
 339.5 32 395.599609375 87 395.599609375 142 c 1
 443.599609375 142 l 1
 443.599609375 52 352.25 -11 251.950195312 -11 c 0
 138.049804688 -11 66.4501953125 69 47.4501953125 208 c 1
 -70.5498046875 193 l 1xe8
EndSplineSet
EndChar

StartChar: Ruble
Encoding: 8381 8381 129
Width: 384
VWidth: 985
Flags: HW
LayerCount: 2
Fore
SplineSet
-37.400390625 177 m 1
 -37.400390625 214 l 1
 42.599609375 214 l 1
 42.599609375 257 l 1
 -37.400390625 257 l 1
 -37.400390625 294 l 1
 42.599609375 294 l 1
 42.599609375 550 l 1
 221.75 550 l 2
 306.75 550 364.900390625 496 363.900390625 408 c 0
 363.900390625 388 371.900390625 257 186.049804688 257 c 2
 86.599609375 257 l 1
 86.599609375 214 l 1
 197.099609375 214 l 1
 197.099609375 177 l 1
 86.599609375 177 l 1
 86.599609375 0 l 1
 42.599609375 0 l 1
 42.599609375 177 l 1
 -37.400390625 177 l 1
86.599609375 294 m 1
 211.549804688 294 l 2
 275.299804688 294 322.900390625 335 322.900390625 408 c 0
 322.900390625 472 275.299804688 514 211.549804688 514 c 2
 86.599609375 514 l 1
 86.599609375 294 l 1
EndSplineSet
EndChar

StartChar: y.alt
Encoding: 57344 57344 130
Width: 364
VWidth: 985
Flags: HW
LayerCount: 2
Fore
SplineSet
23.7998046875 -61 m 1
 72.7998046875 -102 150.200195312 -131 191.849609375 -131 c 0
 241.150390625 -131 286.200195312 -84 286.200195312 -30 c 9
 286.200195312 85 l 5
 273.450195312 49 233.5 31 170.599609375 31 c 4
 109.400390625 31 32.7998046875 67 32.7998046875 177 c 6
 32.7998046875 430 l 1
 78.7998046875 430 l 1
 78.7998046875 177 l 6
 78.7998046875 93 129.799804688 75 170.599609375 75 c 4
 229.25 75 268.349609375 91 286.200195312 118 c 5
 286.200195312 430 l 1
 329.200195312 430 l 1
 329.200195312 -39 l 17
 329.200195312 -119 261.549804688 -174 191.849609375 -175 c 0
 155.299804688 -176 83.900390625 -150 35.7998046875 -105 c 1
 23.7998046875 -61 l 1
EndSplineSet
EndChar

StartChar: J.alt
Encoding: 57345 57345 131
Width: 300
VWidth: 985
Flags: HW
LayerCount: 2
Fore
SplineSet
21.25 19 m 5
 22.25 62 l 5
 161.25 2 228.25 13 228.25 192 c 6
 228.25 550 l 1
 272.25 550 l 1
 272.25 178 l 6
 272.25 -22 188.25 -41 21.25 19 c 5
EndSplineSet
EndChar

StartChar: ascript
Encoding: 593 593 132
Width: 380
VWidth: 985
Flags: HW
LayerCount: 2
Fore
SplineSet
26.349609375 203 m 0xb8
 26.349609375 330 77.4501953125 432 185.400390625 432 c 4
 295.049804688 432 346.150390625 397 346.150390625 284 c 1
 346.150390625 0 l 1
 300.150390625 0 l 1x78
 300.150390625 73 l 1
 278.049804688 32 238.950195312 -11 185.400390625 -11 c 0
 76.599609375 -11 26.349609375 60 26.349609375 203 c 0xb8
72.349609375 203 m 0
 72.349609375 97 93.599609375 34 185.400390625 34 c 0xb8
 252.549804688 34 300.150390625 106 300.150390625 136 c 1
 300.150390625 284 l 1
 297.599609375 356 282.299804688 388 187.950195312 388 c 4
 115.700195312 388 72.349609375 310 72.349609375 203 c 0
EndSplineSet
EndChar

StartChar: I.cyr
Encoding: 1048 1048 133
Width: 413
VWidth: 985
Flags: HW
LayerCount: 2
Fore
SplineSet
30.599609375 0 m 1
 30.599609375 550 l 21
 73.599609375 550 l 1
 73.599609375 77 l 1
 331.150390625 550 l 1
 375.150390625 550 l 1
 375.150390625 0 l 1
 331.150390625 0 l 1
 331.150390625 468 l 1
 73.599609375 0 l 1
 30.599609375 0 l 1
EndSplineSet
EndChar

StartChar: A.cyr
Encoding: 1040 1040 134
Width: 450
VWidth: 985
Flags: HW
LayerCount: 2
Fore
SplineSet
20.400390625 0 m 1
 203.799804688 550 l 1
 241.200195312 550 l 1
 424.599609375 0 l 1
 380.599609375 0 l 1
 321.950195312 183 l 1
 123.049804688 183 l 1
 64.400390625 0 l 1
 20.400390625 0 l 1
134.950195312 219 m 1
 310.049804688 219 l 1
 222.5 492 l 1
 134.950195312 219 l 1
EndSplineSet
EndChar

StartChar: Ve
Encoding: 1042 1042 135
Width: 384
VWidth: 985
Flags: HW
LayerCount: 2
Fore
SplineSet
30.599609375 0 m 1xf4
 30.599609375 550 l 1
 182.549804688 550 l 2
 269.25 550 326.400390625 499 326.400390625 417 c 0xf8
 326.400390625 324 278.599609375 288 256.5 281 c 1
 326.900390625 262 351.900390625 192 351.900390625 142 c 0
 351.900390625 54 294.75 0 209.75 0 c 2
 30.599609375 0 l 1xf4
74.599609375 36 m 1
 199.549804688 36 l 2
 263.299804688 36 310.900390625 78 310.900390625 142 c 0xf4
 310.900390625 215 263.299804688 256 199.549804688 256 c 2
 74.599609375 256 l 1
 74.599609375 36 l 1
74.599609375 293 m 1
 174.049804688 293 l 2
 235.25 293 285.400390625 332 285.400390625 417 c 0xf8
 285.400390625 472 236.099609375 513 174.049804688 513 c 2
 74.599609375 513 l 5
 74.599609375 293 l 1
EndSplineSet
EndChar

StartChar: Ghe
Encoding: 1043 1043 136
Width: 368
VWidth: 985
Flags: HW
LayerCount: 2
Fore
SplineSet
28.900390625 0 m 1
 28.900390625 550 l 1
 336.400390625 550 l 5
 336.400390625 507 l 1
 71.900390625 507 l 1
 71.900390625 0 l 1
 28.900390625 0 l 1
EndSplineSet
EndChar

StartChar: Dze
Encoding: 1029 1029 137
Width: 418
VWidth: 985
Flags: HW
LayerCount: 2
Fore
SplineSet
22.9501953125 34 m 1
 55.9501953125 73 l 1
 76.900390625 62 117.700195312 32 205.25 32 c 0
 258.799804688 32 339.450195312 69 339.450195312 145 c 0
 339.450195312 245 242.650390625 255 185.700195312 269 c 0
 101.549804688 289 23.9501953125 307 23.9501953125 411 c 0
 23.9501953125 485 89.650390625 560 178.900390625 560 c 0
 286.450195312 560 319.450195312 540 359.450195312 515 c 5
 326.450195312 482 l 5
 304.450195312 493 266.450195312 517 178.900390625 517 c 0
 119.400390625 518 70.9501953125 482 70.9501953125 411 c 0
 70.9501953125 328 158.5 323 200.150390625 312 c 0
 302.450195312 289 386.450195312 268 386.450195312 145 c 0
 386.450195312 69 293.450195312 -11 205.25 -11 c 0
 100.700195312 -11 62.9501953125 9 22.9501953125 34 c 1
EndSplineSet
EndChar

StartChar: Ie
Encoding: 1045 1045 138
Width: 399
VWidth: 985
Flags: HW
LayerCount: 2
Fore
SplineSet
30.599609375 0 m 1
 30.599609375 550 l 1
 367 550 l 1
 367 514 l 1
 73.599609375 514 l 1
 73.599609375 302 l 1
 317 302 l 1
 317 266 l 1
 73.599609375 266 l 1
 73.599609375 36 l 1
 367 36 l 1
 367 0 l 1
 30.599609375 0 l 1
EndSplineSet
EndChar

StartChar: Ze
Encoding: 1047 1047 139
Width: 375
VWidth: 985
Flags: HW
LayerCount: 2
Fore
SplineSet
23.7998046875 60 m 5xe8
 45.7998046875 97 l 5
 63.7998046875 64 111.799804688 32 181.200195312 32 c 0
 249.200195312 32 299.349609375 72 299.349609375 153 c 0xe8
 299.349609375 219 251.75 266 175.25 271 c 1
 175.25 307 l 1
 175.25 307 284.900390625 332 284.900390625 414 c 0
 284.900390625 486 236.450195312 518 178.650390625 518 c 0
 148.049804688 518 85.7998046875 491 79.7998046875 481 c 1
 44.7998046875 509 l 1
 62.7998046875 528 131.799804688 560 177.799804688 560 c 0
 324.900390625 560 329.900390625 437 329.900390625 414 c 0xf0
 327.349609375 317 241.549804688 292 241.549804688 292 c 1
 241.549804688 292 346.349609375 279 346.349609375 153 c 0
 346.349609375 33 269.599609375 -11 181.200195312 -11 c 0
 100.799804688 -11 45.7998046875 24 23.7998046875 60 c 5xe8
EndSplineSet
EndChar

StartChar: Ka
Encoding: 1050 1050 140
Width: 402
VWidth: 985
Flags: HW
LayerCount: 2
Fore
SplineSet
30.599609375 0 m 1
 30.599609375 550 l 1
 73.599609375 550 l 1
 73.599609375 265 l 5
 320.950195312 550 l 5
 373.950195312 550 l 5
 168.799804688 320 l 5
 373.950195312 0 l 1
 320.950195312 0 l 1
 141.599609375 288 l 5
 73.599609375 209 l 5
 73.599609375 0 l 1
 30.599609375 0 l 1
EndSplineSet
EndChar

StartChar: Em
Encoding: 1052 1052 141
Width: 536
VWidth: 985
Flags: HW
LayerCount: 2
Fore
SplineSet
30.599609375 0 m 1
 30.599609375 550 l 1
 74.599609375 550 l 1
 264.150390625 213 l 1
 453.700195312 550 l 1
 497.700195312 550 l 1
 497.700195312 0 l 1
 453.700195312 0 l 1
 453.700195312 466 l 1
 264.150390625 127 l 1
 74.599609375 466 l 1
 74.599609375 0 l 1
 30.599609375 0 l 1
EndSplineSet
EndChar

StartChar: En
Encoding: 1053 1053 142
Width: 388
VWidth: 985
Flags: HW
LayerCount: 2
Fore
SplineSet
30.599609375 0 m 1
 30.599609375 550 l 1
 73.599609375 550 l 1
 73.599609375 302 l 1
 306.5 302 l 5
 306.5 550 l 5
 349.5 550 l 5
 349.5 0 l 5
 306.5 0 l 5
 306.5 266 l 5
 73.599609375 266 l 1
 73.599609375 0 l 1
 30.599609375 0 l 1
EndSplineSet
EndChar

StartChar: O.cyr
Encoding: 1054 1054 143
Width: 538
VWidth: 985
Flags: HW
LayerCount: 2
Fore
SplineSet
25.5 275 m 0
 25.5 424 136.650390625 560 265.849609375 560 c 4
 395.049804688 560 506.200195312 423 506.200195312 275 c 0
 506.200195312 126 394.200195312 -11 265.849609375 -11 c 0
 137.5 -11 25.5 126 25.5 275 c 0
69.5 275 m 0
 69.5 153 155.349609375 30 265.849609375 30 c 0
 376.349609375 30 462.200195312 153 462.200195312 275 c 0
 462.200195312 397 376.349609375 519 265.849609375 519 c 0
 155.349609375 519 69.5 397 69.5 275 c 0
EndSplineSet
EndChar

StartChar: Er
Encoding: 1056 1056 144
Width: 384
VWidth: 985
Flags: HW
LayerCount: 2
Fore
SplineSet
30.599609375 0 m 1
 30.599609375 550 l 1
 209.75 550 l 2
 294.75 550 352.900390625 496 351.900390625 408 c 0
 351.900390625 388 359.900390625 257 174.049804688 257 c 9
 74.599609375 257 l 1
 74.599609375 0 l 13
 30.599609375 0 l 1
74.599609375 294 m 1
 199.549804688 294 l 2
 263.299804688 294 310.900390625 335 310.900390625 408 c 0
 310.900390625 472 263.299804688 514 199.549804688 514 c 2
 74.599609375 514 l 1
 74.599609375 294 l 1
EndSplineSet
EndChar

StartChar: Es
Encoding: 1057 1057 145
Width: 458
VWidth: 985
Flags: HW
LayerCount: 2
Fore
SplineSet
26.349609375 275 m 0
 26.349609375 414 95.4501953125 560 234.849609375 560 c 4
 335.150390625 560 426.5 504 426.5 405 c 1
 378.5 405 l 1
 378.5 465 324.950195312 518 238.25 518 c 0
 138.799804688 518 73.349609375 406 73.349609375 275 c 0
 73.349609375 161 121.799804688 32 234.849609375 32 c 0
 322.400390625 32 378.5 87 378.5 142 c 1
 426.5 142 l 1
 426.5 52 335.150390625 -11 234.849609375 -11 c 0
 103.950195312 -11 26.349609375 95 26.349609375 275 c 0
EndSplineSet
EndChar

StartChar: Te
Encoding: 1058 1058 146
Width: 416
VWidth: 985
Flags: HW
LayerCount: 2
Fore
SplineSet
21.25 513 m 1
 21.25 550 l 1
 390.099609375 550 l 1
 390.099609375 513 l 1
 226.75 513 l 1
 226.75 0 l 1
 183.75 0 l 1
 183.75 513 l 1
 21.25 513 l 1
EndSplineSet
EndChar

StartChar: I.ukr
Encoding: 1030 1030 147
Width: 112
VWidth: 985
Flags: HW
LayerCount: 2
Fore
SplineSet
30.599609375 0 m 5
 30.599609375 550 l 1
 73.599609375 550 l 1
 73.599609375 0 l 5
 30.599609375 0 l 5
EndSplineSet
EndChar

StartChar: Je
Encoding: 1032 1032 148
Width: 365
VWidth: 985
Flags: HW
LayerCount: 2
Fore
SplineSet
21.25 44 m 1
 59.25 65 l 1
 90.25 41 128.25 31 169.299804688 32 c 0
 244.950195312 32 284.900390625 73 284.900390625 162 c 2
 284.900390625 550 l 1
 328.900390625 550 l 1
 328.900390625 148 l 2
 328.900390625 38 267.900390625 -11 168.450195312 -11 c 0
 106.25 -11 55.25 13 21.25 44 c 1
EndSplineSet
EndChar

StartChar: Ha
Encoding: 1061 1061 149
Width: 442
VWidth: 985
Flags: HW
LayerCount: 2
Fore
SplineSet
22.9501953125 0 m 1
 199.700195312 275 l 1
 22.9501953125 550 l 1
 67.9501953125 550 l 1
 219.25 306 l 1
 369.700195312 550 l 1
 414.700195312 550 l 1
 237.950195312 275 l 1
 414.700195312 0 l 1
 369.700195312 0 l 1
 219.25 244 l 1
 67.9501953125 0 l 1
 22.9501953125 0 l 1
EndSplineSet
EndChar

StartChar: Ya
Encoding: 1071 1071 150
Width: 395
VWidth: 985
Flags: HW
LayerCount: 2
Fore
SplineSet
30.619140625 0 m 1
 154.918945312 262 l 1
 23.619140625 287 30.619140625 390 30.619140625 408 c 0
 29.619140625 496 88.619140625 550 177.869140625 550 c 2
 363.819335938 550 l 5
 363.819335938 0 l 1
 319.819335938 0 l 1
 319.819335938 257 l 1
 215.26953125 257 l 2
 208.469726562 257 200.819335938 258 194.869140625 258 c 1
 71.619140625 0 l 1
 30.619140625 0 l 1
71.619140625 408 m 0
 71.619140625 335 120.918945312 294 188.069335938 294 c 2
 319.819335938 294 l 1
 319.819335938 514 l 1
 188.069335938 514 l 2
 120.918945312 514 71.619140625 472 71.619140625 408 c 0
EndSplineSet
EndChar

StartChar: Zhe
Encoding: 1046 1046 151
Width: 694
VWidth: 985
Flags: HW
LayerCount: 2
Fore
SplineSet
22.9501953125 0 m 1
 281.799804688 320 l 1
 22.9501953125 550 l 1
 75.9501953125 550 l 1
 410.599609375 265 l 1
 410.599609375 550 l 1
 453.599609375 550 l 1
 453.599609375 265 l 1
 613.650390625 550 l 1
 666.650390625 550 l 1
 515.200195312 320 l 1
 666.650390625 0 l 1
 613.650390625 0 l 1
 497.599609375 288 l 1
 453.599609375 209 l 1
 453.599609375 0 l 1
 410.599609375 0 l 1
 410.599609375 209 l 1
 318.599609375 288 l 1
 75.9501953125 0 l 1
 22.9501953125 0 l 1
EndSplineSet
EndChar

StartChar: Zhe.alt
Encoding: 57346 57346 152
Width: 686
VWidth: 985
Flags: HW
LayerCount: 2
Fore
SplineSet
22.9501953125 0 m 1
 281.799804688 275 l 1
 22.9501953125 550 l 1
 75.9501953125 550 l 1
 320.900390625 297 l 1
 399.099609375 297 l 1
 399.099609375 550 l 1
 442.099609375 550 l 1
 442.099609375 297 l 1
 479.5 297 l 5
 596.650390625 550 l 5
 649.650390625 550 l 5
 498.200195312 275 l 5
 649.650390625 0 l 5
 596.650390625 0 l 5
 479.5 253 l 5
 442.099609375 254 l 1
 442.099609375 0 l 1
 399.099609375 0 l 1
 399.099609375 254 l 1
 320.900390625 253 l 1
 75.9501953125 0 l 1
 22.9501953125 0 l 1
EndSplineSet
EndChar

StartChar: Pe
Encoding: 1055 1055 153
Width: 398
VWidth: 985
Flags: HW
LayerCount: 2
Fore
SplineSet
28.900390625 0 m 1
 28.900390625 550 l 1
 365.950195312 550 l 1
 365.950195312 0 l 1
 321.950195312 0 l 1
 321.950195312 507 l 1
 72.900390625 507 l 1
 72.900390625 0 l 1
 28.900390625 0 l 1
EndSplineSet
EndChar

StartChar: Cyr.Sf
Encoding: 1068 1068 154
Width: 384
VWidth: 985
Flags: HW
LayerCount: 2
Fore
SplineSet
30.599609375 0 m 1
 30.599609375 550 l 1
 74.599609375 550 l 21
 74.599609375 293 l 1
 174.049804688 293 l 17
 359.900390625 293 351.900390625 162 351.900390625 142 c 0
 352.900390625 54 294.75 0 209.75 0 c 2
 30.599609375 0 l 1
74.599609375 36 m 1
 199.549804688 36 l 2
 263.299804688 36 310.900390625 78 310.900390625 142 c 0
 310.900390625 215 263.299804688 256 199.549804688 256 c 2
 74.599609375 256 l 1
 74.599609375 36 l 1
EndSplineSet
EndChar

StartChar: Yeru
Encoding: 1067 1067 155
Width: 491
VWidth: 985
Flags: HW
LayerCount: 2
Fore
SplineSet
30.599609375 0 m 1
 30.599609375 550 l 1
 74.599609375 550 l 21
 74.599609375 293 l 1
 174.049804688 293 l 17
 358.700195312 293 351.900390625 162 351.900390625 142 c 0
 352.75 54 294.75 0 209.75 0 c 2
 30.599609375 0 l 1
74.599609375 36 m 1
 199.549804688 36 l 2
 263.299804688 36 310.900390625 78 310.900390625 142 c 0
 310.900390625 215 263.299804688 256 199.549804688 256 c 2
 74.599609375 256 l 1
 74.599609375 36 l 1
409.700195312 0 m 5
 403.549804688 550 l 1
 446.549804688 550 l 1
 452.700195312 0 l 5
 409.700195312 0 l 5
EndSplineSet
EndChar

StartChar: El
Encoding: 1051 1051 156
Width: 596
VWidth: 985
Flags: HW
LayerCount: 2
Fore
SplineSet
21.25 0 m 1
 21.25 44 l 1
 131.25 44 138.25 218 139.25 550 c 5
 564.200195312 550 l 1
 564.200195312 0 l 1
 520.200195312 0 l 1
 520.200195312 507 l 1
 183.25 507 l 1
 183.25 192 165.25 0 21.25 0 c 1
EndSplineSet
EndChar

StartChar: De
Encoding: 1044 1044 157
Width: 464
VWidth: 985
Flags: HW
LayerCount: 2
Fore
SplineSet
28.900390625 0 m 1xba
 28.900390625 120 l 1
 132.868164062 120 139.228515625 234 146.900390625 536 c 1
 391.299804688 536 l 1
 391.299804688 120 l 1xbc
 432.299804688 120 l 1
 432.299804688 0 l 1
 388.299804688 0 l 1xba
 388.299804688 77 l 1
 72.900390625 77 l 1x7a
 72.900390625 0 l 1
 28.900390625 0 l 1xba
128.325195312 120 m 1x7c
 347.299804688 120 l 1
 347.299804688 493 l 1
 190.900390625 493 l 1
 180.116210938 302 172.846679688 180 128.325195312 120 c 1x7c
EndSplineSet
EndChar

StartChar: U.cyr
Encoding: 1059 1059 158
Width: 459
VWidth: 985
Flags: HW
LayerCount: 2
Fore
SplineSet
20.400390625 550 m 1
 69.400390625 550 l 1
 227.099609375 270 l 1
 385.799804688 550 l 1
 433.799804688 550 l 5
 124.400390625 0 l 1
 81.400390625 0 l 1
 208.400390625 229 l 1
 20.400390625 550 l 1
EndSplineSet
EndChar

StartChar: Ef
Encoding: 1060 1060 159
Width: 549
VWidth: 985
Flags: HW
LayerCount: 2
Fore
SplineSet
28.0498046875 275 m 0
 28.0498046875 417 129.849609375 547 250.549804688 559 c 1
 250.549804688 620 l 1
 293.549804688 620 l 1
 293.549804688 559 l 1
 414.25 547 515.200195312 416 515.200195312 275 c 0
 515.200195312 133 413.400390625 2 293.549804688 -10 c 1
 293.549804688 -70 l 1
 250.549804688 -70 l 1
 250.549804688 -10 l 1
 130.700195312 2 28.0498046875 133 28.0498046875 275 c 0
72.0498046875 275 m 0
 72.0498046875 160 148.549804688 43 250.549804688 31 c 1
 250.549804688 518 l 1
 148.549804688 506 72.0498046875 390 72.0498046875 275 c 0
293.549804688 31 m 1
 394.700195312 44 471.200195312 160 471.200195312 275 c 0
 471.200195312 390 394.700195312 505 293.549804688 518 c 1
 293.549804688 31 l 1
EndSplineSet
EndChar

StartChar: Ie.grv
Encoding: 1024 1024 160
Width: 399
VWidth: 985
Flags: HW
LayerCount: 2
Fore
SplineSet
30.599609375 0 m 1
 30.599609375 550 l 1
 367 550 l 1
 367 514 l 1
 73.599609375 514 l 1
 73.599609375 302 l 1
 317 302 l 1
 317 266 l 1
 73.599609375 266 l 1
 73.599609375 36 l 1
 367 36 l 1
 367 0 l 1
 30.599609375 0 l 1
105.900390625 727 m 5
 156.900390625 727 l 5
 211.299804688 617 l 5
 178.150390625 617 l 5
 105.900390625 727 l 5
EndSplineSet
EndChar

StartChar: Io
Encoding: 1025 1025 161
Width: 399
VWidth: 985
Flags: HW
LayerCount: 2
Fore
SplineSet
30.599609375 0 m 1
 30.599609375 550 l 1
 367 550 l 1
 367 514 l 1
 73.599609375 514 l 1
 73.599609375 302 l 1
 317 302 l 1
 317 266 l 1
 73.599609375 266 l 1
 73.599609375 36 l 1
 367 36 l 1
 367 0 l 1
 30.599609375 0 l 1
100.799804688 669 m 4
 100.799804688 689 115.25 706 133.099609375 706 c 4
 150.950195312 706 165.400390625 689 165.400390625 669 c 4
 165.400390625 649 150.950195312 632 133.099609375 632 c 4
 115.25 632 100.799804688 649 100.799804688 669 c 4
211.299804688 669 m 4
 211.299804688 689 225.75 706 243.599609375 706 c 4
 264 706 281 689 281 669 c 4
 281 649 264 632 243.599609375 632 c 4
 225.75 632 211.299804688 649 211.299804688 669 c 4
EndSplineSet
EndChar

StartChar: Yi
Encoding: 1031 1031 162
Width: 122
VWidth: 985
Flags: HW
LayerCount: 2
Fore
SplineSet
-38.25 619 m 4
 -38.25 639 -21.25 656 -0.25 656 c 4
 20.75 656 37.75 639 37.75 619 c 4
 37.75 599 20.75 582 -0.25 582 c 4
 -21.25 582 -38.25 599 -38.25 619 c 4
44.25 0 m 1
 44.25 550 l 1
 87.25 550 l 1
 87.25 0 l 1
 44.25 0 l 1
90.099609375 619 m 4
 90.099609375 639 107.099609375 656 128.099609375 656 c 4
 149.099609375 656 166.099609375 639 166.099609375 619 c 4
 166.099609375 599 149.099609375 582 128.099609375 582 c 4
 107.099609375 582 90.099609375 599 90.099609375 619 c 4
EndSplineSet
EndChar

StartChar: I.cyrgrv
Encoding: 1037 1037 163
Width: 413
VWidth: 985
Flags: HW
LayerCount: 2
Fore
SplineSet
114.400390625 667 m 1
 165.400390625 667 l 1
 219.799804688 557 l 5
 186.650390625 557 l 5
 114.400390625 667 l 1
30.599609375 0 m 1
 30.599609375 550 l 17
 73.599609375 550 l 1
 73.599609375 77 l 1
 331.150390625 550 l 1
 375.150390625 550 l 1
 375.150390625 0 l 1
 331.150390625 0 l 1
 331.150390625 468 l 1
 73.599609375 0 l 1
 30.599609375 0 l 1
EndSplineSet
EndChar

StartChar: U.short
Encoding: 1038 1038 164
Width: 459
VWidth: 985
Flags: HW
LayerCount: 2
Fore
SplineSet
20.400390625 550 m 1
 69.400390625 550 l 1
 227.099609375 270 l 1
 385.799804688 550 l 1
 433.799804688 550 l 1
 124.400390625 0 l 1
 81.400390625 0 l 1
 208.400390625 229 l 1
 20.400390625 550 l 1
108.400390625 619 m 5
 108.400390625 661 l 5
 108.400390625 661 171.849609375 631 227.950195312 631 c 4
 284.049804688 631 347.799804688 661 347.799804688 661 c 5
 347.799804688 619 l 5
 347.799804688 619 284.049804688 589 227.950195312 589 c 4
 171.849609375 589 108.400390625 619 108.400390625 619 c 5
EndSplineSet
EndChar

StartChar: brevecmb
Encoding: 774 774 165
Width: 477
VWidth: 985
Flags: HW
LayerCount: 2
Fore
SplineSet
95.2001953125 619 m 5
 95.2001953125 661 l 5
 95.2001953125 661 164.200195312 631 230.200195312 631 c 4
 296.200195312 631 365.200195312 661 365.200195312 661 c 5
 365.200195312 619 l 5
 365.200195312 619 296.200195312 589 230.200195312 589 c 4
 164.200195312 589 95.2001953125 619 95.2001953125 619 c 5
EndSplineSet
EndChar

StartChar: Ie.ukr
Encoding: 1028 1028 166
Width: 470
VWidth: 985
Flags: HW
LayerCount: 2
Fore
SplineSet
31.4501953125 275 m 0
 31.4501953125 414 104.099609375 561 243.5 561 c 4
 318.450195312 561 393.450195312 550 437.450195312 496 c 1
 437.450195312 438 l 1
 393.450195312 492 333.450195312 518 243.5 518 c 0
 150 518 87.099609375 419 79.4501953125 299 c 1
 335.450195312 299 l 1
 335.450195312 256 l 1
 79.4501953125 256 l 1
 84.5498046875 147 133 32 240.099609375 32 c 0
 329.450195312 32 389.450195312 58 433.450195312 112 c 1
 433.450195312 54 l 1
 389.450195312 0 314.900390625 -11 240.099609375 -11 c 0
 109.200195312 -11 31.4501953125 95 31.4501953125 275 c 0
EndSplineSet
EndChar

StartChar: E.cyr
Encoding: 1069 1069 167
Width: 470
VWidth: 985
Flags: HW
LayerCount: 2
Fore
SplineSet
31.4501953125 438 m 1
 31.4501953125 496 l 1
 75.4501953125 550 150.450195312 561 225.400390625 561 c 4
 364.799804688 561 437.450195312 414 437.450195312 275 c 0
 437.450195312 95 359.700195312 -11 228.799804688 -11 c 0
 154 -11 79.4501953125 0 35.4501953125 54 c 1
 35.4501953125 112 l 1
 79.4501953125 58 139.450195312 32 228.799804688 32 c 0
 335.900390625 32 384.349609375 147 389.450195312 256 c 1
 133.450195312 256 l 1
 133.450195312 299 l 1
 389.450195312 299 l 1
 381.799804688 419 318.900390625 518 225.400390625 518 c 0
 135.450195312 518 75.4501953125 492 31.4501953125 438 c 1
EndSplineSet
EndChar

StartChar: Cross
Encoding: 10013 10013 168
Width: 397
VWidth: 985
Flags: HW
LayerCount: 2
Fore
SplineSet
174.400390625 357 m 1
 28.900390625 357 l 5
 28.900390625 400 l 5
 174.400390625 400 l 1
 174.400390625 550 l 1
 217.400390625 550 l 1
 217.400390625 400 l 1
 362.900390625 400 l 1
 362.900390625 357 l 1
 217.400390625 357 l 1
 217.400390625 0 l 1
 174.400390625 0 l 1
 174.400390625 357 l 1
EndSplineSet
EndChar

StartChar: Gje
Encoding: 1027 1027 169
Width: 368
VWidth: 985
Flags: HW
LayerCount: 2
Fore
SplineSet
28.900390625 0 m 1
 28.900390625 550 l 1
 336.400390625 550 l 1
 336.400390625 507 l 1
 71.900390625 507 l 1
 71.900390625 0 l 1
 28.900390625 0 l 1
139.900390625 617 m 5
 194.299804688 727 l 5
 250.400390625 727 l 5
 173.049804688 617 l 5
 139.900390625 617 l 5
EndSplineSet
EndChar

StartChar: Kje
Encoding: 1036 1036 170
Width: 402
VWidth: 985
Flags: HW
LayerCount: 2
Fore
SplineSet
30.599609375 0 m 1
 30.599609375 550 l 1
 73.599609375 550 l 1
 73.599609375 265 l 1
 320.950195312 550 l 1
 373.950195312 550 l 1
 168.799804688 320 l 1
 373.950195312 0 l 1
 320.950195312 0 l 1
 141.599609375 288 l 1
 73.599609375 209 l 1
 73.599609375 0 l 1
 30.599609375 0 l 1
173.900390625 567 m 5
 228.299804688 677 l 5
 279.299804688 677 l 5
 207.049804688 567 l 5
 173.900390625 567 l 5
EndSplineSet
EndChar

StartChar: I.short
Encoding: 1049 1049 171
Width: 413
VWidth: 985
Flags: HW
LayerCount: 2
Fore
SplineSet
30.599609375 0 m 1
 30.599609375 550 l 17
 73.599609375 550 l 1
 73.599609375 77 l 1
 331.150390625 550 l 1
 375.150390625 550 l 1
 375.150390625 0 l 1
 331.150390625 0 l 1
 331.150390625 468 l 1
 73.599609375 0 l 1
 30.599609375 0 l 1
88.0498046875 619 m 5
 88.0498046875 661 l 5
 88.0498046875 661 146.700195312 631 202.799804688 631 c 4
 258.900390625 631 317.549804688 661 317.549804688 661 c 5
 317.549804688 619 l 5
 317.549804688 619 258.900390625 589 202.799804688 589 c 4
 146.700195312 589 88.0498046875 619 88.0498046875 619 c 5
EndSplineSet
EndChar

StartChar: Be
Encoding: 1041 1041 172
Width: 384
VWidth: 985
Flags: HW
LayerCount: 2
Fore
SplineSet
-209.400390625 100 m 1049,0,-1
30.599609375 0 m 1,1,-1
 30.599609375 550 l 1,2,-1
 242.049804688 550 l 1,3,-1
 242.049804688 507 l 1,4,-1
 74.599609375 507 l 1,5,-1
 74.599609375 293 l 1,6,-1
 174.049804688 293 l 6,7,-1
 359.900390625 293 351.900390625 162 351.900390625 142 c 0,10,-1
 352.900390625 54 294.75 0 209.75 0 c 2,13,-1
 30.599609375 0 l 1,1,-1
74.599609375 36 m 1,14,-1
 199.549804688 36 l 2,15,-1
 263.299804688 36 310.900390625 78 310.900390625 142 c 0,18,-1
 310.900390625 215 263.299804688 256 199.549804688 256 c 2,21,-1
 74.599609375 256 l 1,22,-1
 74.599609375 36 l 1,14,-1
EndSplineSet
EndChar

StartChar: Nje
Encoding: 1034 1034 173
Width: 394
VWidth: 985
Flags: HW
LayerCount: 2
Fore
SplineSet
30.599609375 0 m 1xbc
 30.599609375 550 l 1
 73.599609375 550 l 1
 73.599609375 302 l 1
 306.5 302 l 1xbc
 306.5 550 l 1
 349.5 550 l 1
 350.5 550 l 1
 350.5 293 l 1
 449.950195312 293 l 2xdc
 635.799804688 293 627.799804688 162 627.799804688 142 c 0
 628.799804688 54 570.650390625 0 485.650390625 0 c 6
 306.5 0 l 1
 306.5 266 l 1
 73.599609375 266 l 1
 73.599609375 0 l 1
 30.599609375 0 l 1xbc
350.5 36 m 1
 475.450195312 36 l 2
 539.200195312 36 586.799804688 78 586.799804688 142 c 0
 586.799804688 215 539.200195312 256 475.450195312 256 c 2
 350.5 256 l 1xdc
 350.5 36 l 1
EndSplineSet
EndChar

StartChar: Lje
Encoding: 1033 1033 174
Width: 559
VWidth: 985
Flags: HW
LayerCount: 2
Fore
SplineSet
21.25 0 m 1xbe
 21.25 44 l 1xbe
 131.25 44 138.25 218 139.25 550 c 1
 564.200195312 550 l 5
 520.25 293 l 1
 619.700195312 293 l 2
 805.549804688 293 797.549804688 162 797.549804688 142 c 0
 798.549804688 54 740.400390625 0 655.400390625 0 c 2
 476.25 0 l 1x7e
 520.200195312 507 l 1
 183.25 507 l 1
 183.25 192 165.25 0 21.25 0 c 1xbe
520.25 36 m 1x7e
 645.200195312 36 l 2
 708.950195312 36 756.549804688 78 756.549804688 142 c 0
 756.549804688 215 708.950195312 256 645.200195312 256 c 2
 520.25 256 l 1
 520.25 36 l 1x7e
EndSplineSet
EndChar

StartChar: Dzhe
Encoding: 1039 1039 175
Width: 404
VWidth: 985
Flags: HW
LayerCount: 2
Fore
SplineSet
28.900390625 0 m 1
 28.900390625 550 l 1
 72.900390625 550 l 1
 72.900390625 43 l 1
 327.900390625 43 l 1
 327.900390625 550 l 1
 371.900390625 550 l 1
 371.900390625 0 l 1
 219.099609375 0 l 1
 219.099609375 -120 l 1
 180 -120 l 1
 180 -0 l 1
 28.900390625 0 l 1
EndSplineSet
EndChar

StartChar: Tse
Encoding: 1062 1062 176
Width: 433
VWidth: 985
Flags: HW
LayerCount: 2
Fore
SplineSet
27.2001953125 0 m 1xd0
 27.2001953125 550 l 1
 71.2001953125 550 l 1
 71.2001953125 43 l 1
 326.200195312 43 l 5
 326.200195312 550 l 5
 370.200195312 550 l 5
 370.200195312 43 l 5xe0
 404.200195312 43 l 5
 404.200195312 -107 l 5
 358.200195312 -107 l 5
 358.200195312 0 l 5
 27.2001953125 0 l 1xd0
EndSplineSet
EndChar

StartChar: Sha
Encoding: 1064 1064 177
Width: 699
VWidth: 985
Flags: HW
CounterMasks: 1 70
LayerCount: 2
Fore
SplineSet
32.2998046875 0 m 1
 32.2998046875 550 l 1
 76.2998046875 550 l 1
 76.2998046875 43 l 1
 325.349609375 43 l 1
 325.349609375 550 l 1
 369.349609375 550 l 1
 369.349609375 43 l 1
 618.400390625 43 l 5
 618.400390625 550 l 1
 662.400390625 550 l 1
 662.400390625 0 l 1
 32.2998046875 0 l 1
EndSplineSet
EndChar

StartChar: Shcha
Encoding: 1065 1065 178
Width: 720
VWidth: 985
Flags: HW
LayerCount: 2
Fore
SplineSet
27.2001953125 0 m 1xe8
 27.2001953125 550 l 1
 71.2001953125 550 l 1
 71.2001953125 43 l 1
 320.25 43 l 1
 320.25 550 l 1
 364.25 550 l 1
 364.25 43 l 1
 613.299804688 43 l 5
 613.299804688 550 l 5
 657.299804688 550 l 5
 657.299804688 43 l 5xf0
 691.299804688 43 l 5
 691.299804688 -107 l 5
 645.299804688 -107 l 5
 645.299804688 0 l 5
 27.2001953125 0 l 1xe8
EndSplineSet
EndChar

StartChar: Cyr.Hd
Encoding: 1066 1066 179
Width: 384
VWidth: 985
Flags: HW
LayerCount: 2
Fore
SplineSet
-65.4501953125 507 m 5
 -65.4501953125 550 l 5
 91.5498046875 550 l 1
 91.5498046875 293 l 1
 191 293 l 2
 376.849609375 293 368.849609375 162 368.849609375 142 c 0
 369.849609375 54 311.700195312 0 226.700195312 0 c 2
 47.5498046875 0 l 1
 47.5498046875 507 l 1
 -65.4501953125 507 l 5
91.5498046875 36 m 1
 216.5 36 l 2
 280.25 36 327.849609375 78 327.849609375 142 c 0
 327.849609375 215 280.25 256 216.5 256 c 2
 91.5498046875 256 l 1
 91.5498046875 36 l 1
EndSplineSet
EndChar

StartChar: Yu
Encoding: 1070 1070 180
Width: 679
VWidth: 985
Flags: HW
LayerCount: 2
Fore
SplineSet
30.599609375 0 m 1x7e
 30.599609375 550 l 1
 73.599609375 550 l 1
 73.599609375 297 l 1
 166.25 297 l 1
 177.25 437 283.200195312 560 405.599609375 560 c 0
 534.799804688 560 645.950195312 423 645.950195312 275 c 0
 645.950195312 126 533.950195312 -11 405.599609375 -11 c 0xbe
 283.200195312 -11 177.25 113 166.25 254 c 1
 73.599609375 254 l 1
 73.599609375 0 l 1
 30.599609375 0 l 1x7e
209.25 275 m 0
 209.25 153 295.099609375 30 405.599609375 30 c 0
 516.099609375 30 601.950195312 153 601.950195312 275 c 0
 601.950195312 397 516.099609375 519 405.599609375 519 c 0
 295.099609375 519 209.25 397 209.25 275 c 0
EndSplineSet
EndChar

StartChar: uni04D9
Encoding: 1241 1241 181
Width: 455
VWidth: 985
Flags: HW
LayerCount: 2
Fore
SplineSet
26.349609375 199 m 5
 26.349609375 242 l 1
 373.599609375 242 l 1
 367.349609375 341 293.400390625 389 226.25 389 c 0
 103.349609375 389 84.349609375 334 74.349609375 309 c 1
 26.349609375 309 l 1
 36.349609375 369 82.349609375 432 226.25 432 c 0
 314.650390625 432 420.599609375 374 420.599609375 224 c 0
 420.599609375 85 335.049804688 -11 226.25 -11 c 4
 112.349609375 -11 36.349609375 60 26.349609375 199 c 5
74.349609375 199 m 1
 84.349609375 99 130.349609375 31 222.849609375 31 c 0
 312.950195312 31 359.700195312 94 371.599609375 199 c 1
 74.349609375 199 l 1
EndSplineSet
EndChar

StartChar: Palochka
Encoding: 1216 1216 182
Width: 112
VWidth: 985
Flags: HW
LayerCount: 2
Fore
SplineSet
30.599609375 0 m 5
 30.599609375 550 l 1
 73.599609375 550 l 1
 73.599609375 0 l 5
 30.599609375 0 l 5
EndSplineSet
EndChar

StartChar: palochka
Encoding: 1231 1231 183
Width: 112
VWidth: 985
Flags: HW
LayerCount: 2
Fore
SplineSet
30.599609375 0 m 5
 30.599609375 550 l 1
 73.599609375 550 l 1
 73.599609375 0 l 5
 30.599609375 0 l 5
EndSplineSet
EndChar

StartChar: Uk
Encoding: 1144 1144 184
Width: 923
VWidth: 985
Flags: HW
LayerCount: 2
Fore
SplineSet
25.5 275 m 0xb8
 25.5 424 136.650390625 560 265.849609375 560 c 0
 395.049804688 560 506.200195312 423 506.200195312 275 c 0
 506.200195312 126 394.200195312 -11 265.849609375 -11 c 0
 137.5 -11 25.5 126 25.5 275 c 0xb8
69.5 275 m 0
 69.5 153 155.349609375 30 265.849609375 30 c 0
 376.349609375 30 462.200195312 153 462.200195312 275 c 0
 462.200195312 397 376.349609375 519 265.849609375 519 c 0
 155.349609375 519 69.5 397 69.5 275 c 0
454.549804688 550 m 5
 502.200195312 550 l 5
 674 270 l 5
 849.200195312 550 l 5
 897.200195312 550 l 5
 556 0 l 5
 513 0 l 5x78
 652 229 l 5
 454.549804688 550 l 5
EndSplineSet
EndChar

StartChar: U.str
Encoding: 1198 1198 185
Width: 459
VWidth: 985
Flags: HW
LayerCount: 2
Fore
SplineSet
20.400390625 550 m 1
 69.400390625 550 l 1
 230.400390625 270 l 1
 385.799804688 550 l 5
 433.799804688 550 l 5
 251.400390625 229 l 1
 251.400390625 0 l 1
 208.400390625 0 l 1
 208.400390625 229 l 1
 20.400390625 550 l 1
EndSplineSet
EndChar

StartChar: KomiDe
Encoding: 1280 1280 186
Width: 426
VWidth: 985
Flags: HW
LayerCount: 2
Fore
SplineSet
393.606445312 550 m 1
 393.606445312 0 l 1
 190.606445312 0 l 2
 90.6064453125 0 29.6064453125 54 30.6064453125 142 c 0
 30.6064453125 162 22.6064453125 293 232.606445312 293 c 9
 349.606445312 293 l 1
 349.606445312 550 l 13
 393.606445312 550 l 1
349.606445312 256 m 1
 202.606445312 256 l 2
 127.606445312 256 71.6064453125 215 71.6064453125 142 c 0
 71.6064453125 78 127.606445312 36 202.606445312 36 c 2
 349.606445312 36 l 1
 349.606445312 256 l 1
EndSplineSet
EndChar

StartChar: uni050C
Encoding: 1292 1292 187
Width: 459
VWidth: 985
Flags: HW
LayerCount: 2
Fore
SplineSet
26.349609375 275 m 0xbc
 26.349609375 414 95.4501953125 560 234.849609375 560 c 4
 335.150390625 560 421.5 504 421.5 405 c 1
 378.5 405 l 1
 378.5 465 324.950195312 518 238.25 518 c 0
 138.799804688 518 73.349609375 406 73.349609375 275 c 0
 73.349609375 161 121.799804688 32 234.849609375 32 c 0xbc
 322.400390625 32 378.5 87 378.5 142 c 2
 378.5 227 l 1
 228.049804688 227 l 1
 228.049804688 270 l 1
 421.5 270 l 1
 421.5 0 l 1
 378.5 0 l 1x7c
 378.5 47 l 1
 345.349609375 11 293.5 -11 234.849609375 -11 c 0
 103.950195312 -11 26.349609375 95 26.349609375 275 c 0xbc
EndSplineSet
EndChar

StartChar: Ze.rev
Encoding: 1296 1296 188
Width: 377
VWidth: 985
Flags: HW
LayerCount: 2
Fore
SplineSet
348.900390625 60 m 5xf0
 326.900390625 24 271.900390625 -11 190.88671875 -11 c 0
 101.038085938 -11 23.7998046875 33 23.7998046875 153 c 0xf0
 23.7998046875 279 129.547851562 292 129.547851562 292 c 1
 129.547851562 292 42.7998046875 317 42.7998046875 414 c 0
 42.7998046875 437 47.7998046875 560 194.900390625 560 c 0
 240.900390625 560 309.900390625 528 327.900390625 509 c 1
 292.900390625 481 l 1
 286.900390625 491 224.650390625 518 194.049804688 518 c 0
 136.25 518 87.7998046875 486 87.7998046875 414 c 0xe8
 87.7998046875 332 196.934570312 307 196.934570312 307 c 1
 196.934570312 271 l 1
 119.180664062 266 70.7998046875 219 70.7998046875 153 c 0
 70.7998046875 72 121.772460938 32 190.88671875 32 c 0
 260.900390625 32 308.900390625 64 326.900390625 97 c 5
 348.900390625 60 l 5xf0
EndSplineSet
EndChar

StartChar: Qa
Encoding: 1306 1306 189
Width: 543
VWidth: 985
Flags: HW
LayerCount: 2
Fore
SplineSet
25.5 275 m 0xb8
 25.5 424 136.650390625 560 265.849609375 560 c 4
 395.049804688 560 506.200195312 423 506.200195312 275 c 0
 506.200195312 201 475.200195312 130 431.599609375 77 c 1
 514.200195312 0 l 1
 464.200195312 0 l 1x78
 409.5 53 l 1
 369.549804688 14 320.25 -11 265.849609375 -11 c 0
 137.5 -11 25.5 126 25.5 275 c 0xb8
69.5 275 m 0
 69.5 153 155.349609375 30 265.849609375 30 c 0xb8
 376.349609375 30 462.200195312 153 462.200195312 275 c 0
 462.200195312 397 376.349609375 519 265.849609375 519 c 0
 155.349609375 519 69.5 397 69.5 275 c 0
EndSplineSet
EndChar

StartChar: We
Encoding: 1308 1308 190
Width: 866
VWidth: 985
Flags: HW
LayerCount: 2
Fore
SplineSet
20.400390625 550 m 1
 64.400390625 550 l 1
 250.400390625 58 l 1
 411.799804688 550 l 1
 449.200195312 550 l 1
 610.599609375 58 l 1
 796.599609375 550 l 1
 840.599609375 550 l 1
 632.599609375 0 l 5
 588.599609375 0 l 5
 430.5 492 l 1
 272.400390625 0 l 1
 228.400390625 0 l 1
 20.400390625 550 l 1
EndSplineSet
EndChar

StartChar: Tshe
Encoding: 1035 1035 191
Width: 412
VWidth: 985
Flags: HW
LayerCount: 2
Fore
SplineSet
20.400390625 507 m 5
 20.400390625 550 l 5
 317.849609375 550 l 5
 317.849609375 507 l 5
 133.400390625 507 l 1
 133.400390625 268 l 2
 133.400390625 304 169.099609375 362 249 362 c 0
 310.200195312 362 386.799804688 326 386.799804688 216 c 2
 386.799804688 0 l 1
 340.799804688 0 l 1
 340.799804688 216 l 2
 340.799804688 300 289.799804688 318 249 318 c 0
 173.349609375 318 133.400390625 232 133.400390625 205 c 2
 133.400390625 0 l 1
 90.400390625 0 l 1
 90.400390625 507 l 1
 20.400390625 507 l 5
EndSplineSet
EndChar

StartChar: Dje
Encoding: 1026 1026 192
Width: 411
VWidth: 985
Flags: HW
LayerCount: 2
Fore
SplineSet
19.5498046875 507 m 1
 19.5498046875 550 l 1
 317 550 l 1
 317 507 l 1
 132.549804688 507 l 1
 132.549804688 268 l 2
 132.549804688 304 168.25 362 248.150390625 362 c 0
 309.349609375 362 385.950195312 326 385.950195312 216 c 2
 385.950195312 88 l 2
 385.950195312 -24 383.950195312 -116 257.5 -117 c 1
 257.5 -71 l 1
 333.150390625 -70 339.950195312 -20 339.950195312 88 c 2
 339.950195312 216 l 2
 339.950195312 300 288.950195312 318 248.150390625 318 c 0
 172.5 318 132.549804688 232 132.549804688 205 c 2
 132.549804688 0 l 1
 89.5498046875 0 l 1
 89.5498046875 507 l 1
 19.5498046875 507 l 1
EndSplineSet
EndChar

StartChar: Che
Encoding: 1063 1063 193
Width: 356
VWidth: 985
Flags: HW
LayerCount: 2
Fore
SplineSet
26.349609375 334 m 2
 26.349609375 550 l 1
 72.349609375 550 l 1
 72.349609375 334 l 2
 72.349609375 250 123.349609375 232 164.150390625 232 c 0
 239.799804688 232 279.75 318 279.75 345 c 1
 279.75 550 l 1
 322.75 550 l 1
 322.75 0 l 5
 279.75 0 l 5
 279.75 282 l 1
 279.75 246 244.049804688 188 164.150390625 188 c 0
 102.950195312 188 26.349609375 224 26.349609375 334 c 2
EndSplineSet
EndChar

StartChar: Tshe.alt
Encoding: 57347 57347 194
Width: 412
VWidth: 985
Flags: HW
LayerCount: 2
Fore
SplineSet
20.400390625 507 m 1
 20.400390625 550 l 1
 317.849609375 550 l 1
 317.849609375 507 l 1
 133.400390625 507 l 1
 133.400390625 246 l 2
 133.400390625 282 169.099609375 340 249 340 c 4
 310.200195312 340 386.799804688 304 386.799804688 194 c 2
 386.799804688 0 l 1
 340.799804688 0 l 1
 340.799804688 194 l 2
 340.799804688 278 289.799804688 296 249 296 c 0
 173.349609375 296 133.400390625 210 133.400390625 183 c 2
 133.400390625 0 l 1
 90.400390625 0 l 1
 90.400390625 507 l 1
 20.400390625 507 l 1
EndSplineSet
EndChar

StartChar: a.cyr
Encoding: 1072 1072 195
Width: 380
VWidth: 985
Flags: HW
LayerCount: 2
Fore
SplineSet
26.349609375 203 m 0xb8
 26.349609375 330 77.4501953125 432 185.400390625 432 c 4
 295.049804688 432 346.150390625 397 346.150390625 284 c 1
 346.150390625 0 l 1
 300.150390625 0 l 1x78
 300.150390625 73 l 1
 278.049804688 32 238.950195312 -11 185.400390625 -11 c 0
 76.599609375 -11 26.349609375 60 26.349609375 203 c 0xb8
72.349609375 203 m 0
 72.349609375 97 93.599609375 34 185.400390625 34 c 0xb8
 252.549804688 34 300.150390625 106 300.150390625 136 c 1
 300.150390625 284 l 1
 297.599609375 356 282.299804688 388 187.950195312 388 c 4
 115.700195312 388 72.349609375 310 72.349609375 203 c 0
EndSplineSet
EndChar

StartChar: ie
Encoding: 1077 1077 196
Width: 454
VWidth: 985
Flags: HW
LayerCount: 2
Fore
SplineSet
26.349609375 197 m 0
 26.349609375 336 111.599609375 432 220.400390625 432 c 4
 334.299804688 432 410.299804688 361 420.299804688 222 c 1
 420.299804688 179 l 1
 73.349609375 179 l 1
 79.2998046875 80 153.25 32 220.400390625 32 c 0
 343.299804688 32 362.299804688 87 372.299804688 112 c 1
 420.299804688 112 l 1
 410.299804688 52 364.299804688 -11 220.400390625 -11 c 0
 132 -11 26.349609375 47 26.349609375 197 c 0
75.0498046875 222 m 1
 372.299804688 222 l 1
 362.299804688 322 316.299804688 390 223.799804688 390 c 0
 133.700195312 390 86.9501953125 327 75.0498046875 222 c 1
EndSplineSet
EndChar

StartChar: er
Encoding: 1088 1088 197
Width: 392
VWidth: 985
Flags: HW
LayerCount: 2
Fore
SplineSet
354.650390625 218 m 0
 354.650390625 101 295.049804688 -11 187.099609375 -11 c 4
 131 -11 95.2998046875 3 72.349609375 28 c 1
 72.349609375 -169 l 1
 26.349609375 -169 l 1
 26.349609375 187 l 1
 26.349609375 421 l 1
 72.349609375 421 l 1
 72.349609375 348 l 1
 94.4501953125 389 133.549804688 432 187.099609375 432 c 4
 287.400390625 432 354.650390625 351 354.650390625 218 c 0
308.650390625 218 m 0
 308.650390625 314 270.400390625 387 187.099609375 387 c 4
 119.950195312 387 72.349609375 315 72.349609375 285 c 2
 72.349609375 187 l 2
 74.900390625 100 81.7001953125 33 184.549804688 33 c 4
 256.799804688 33 308.650390625 121 308.650390625 218 c 0
EndSplineSet
EndChar

StartChar: es
Encoding: 1089 1089 198
Width: 434
VWidth: 985
Flags: HW
LayerCount: 2
Fore
SplineSet
26.349609375 207 m 0
 26.349609375 346 115 432 211.900390625 432 c 4
 327.299804688 432 393.299804688 376 403.299804688 307 c 1
 355.299804688 307 l 1
 345.299804688 337 309.299804688 390 215.299804688 390 c 0
 158.349609375 390 73.349609375 328 73.349609375 207 c 0
 73.349609375 63 141.349609375 32 211.900390625 32 c 0
 326.299804688 32 345.299804688 87 355.299804688 112 c 1
 403.299804688 112 l 1
 393.299804688 52 347.299804688 -11 211.900390625 -11 c 0
 123.5 -11 26.349609375 27 26.349609375 207 c 0
EndSplineSet
EndChar

StartChar: ve
Encoding: 1074 1074 199
Width: 345
VWidth: 878
Flags: HW
LayerCount: 2
Fore
SplineSet
28.900390625 0 m 1xf4
 28.900390625 478 l 1
 164.450195312 478 l 0
 240.099609375 478 291.900390625 433 291.900390625 360 c 0xf8
 291.900390625 292 261.900390625 258 240.099609375 245 c 1
 299.900390625 223 314 166 314 126 c 0
 314 48 261.349609375 0 187.400390625 0 c 0
 28.900390625 0 l 1xf4
76.900390625 46 m 1
 178.900390625 46 l 0
 231.599609375 46 269 81 269 131 c 0xf4
 269 190 231.599609375 223 178.900390625 223 c 0
 76.900390625 223 l 1
 76.900390625 46 l 1
76.900390625 264 m 1
 156.799804688 264 l 0
 206.950195312 264 246.900390625 295 246.900390625 362 c 0xf8
 246.900390625 404 208.650390625 436 156.799804688 436 c 0
 76.900390625 436 l 5
 76.900390625 264 l 1
EndSplineSet
EndChar

StartChar: ghe
Encoding: 1075 1075 200
Width: 336
VWidth: 985
Flags: HW
LayerCount: 2
Fore
SplineSet
20.400390625 0 m 1
 20.400390625 468 l 1
 314.400390625 468 l 1
 314.400390625 421 l 1
 67.400390625 421 l 1
 67.400390625 0 l 1
 20.400390625 0 l 1
EndSplineSet
EndChar

StartChar: de
Encoding: 1076 1076 201
Width: 394
VWidth: 985
Flags: HW
LayerCount: 2
Fore
SplineSet
20.400390625 0 m 1xba
 20.400390625 112 l 1
 25.400390625 112 l 0
 108.393554688 112 114.770507812 199 120.400390625 451 c 0
 120.400390625 456 l 1
 338.5 456 l 1
 338.5 112 l 1xbc
 372.5 112 l 1
 372.5 0 l 1
 325.5 0 l 1xba
 325.5 65 l 1
 67.400390625 65 l 1x7a
 67.400390625 0 l 1
 20.400390625 0 l 1xba
119.325195312 112 m 1x7c
 291.5 112 l 1
 291.5 409 l 1
 167.400390625 409 l 1
 167.400390625 261 153.03125 165 119.325195312 112 c 1x7c
EndSplineSet
EndChar

StartChar: zhe
Encoding: 1078 1078 202
Width: 593
VWidth: 985
Flags: HW
LayerCount: 2
Fore
SplineSet
9.349609375 471 m 1
 68.349609375 471 l 1
 344.200195312 235 l 1
 344.200195312 471 l 1
 391.200195312 471 l 1
 391.200195312 235 l 1
 523.650390625 471 l 1
 582.650390625 471 l 1
 444.549804688 274 l 1
 580.650390625 0 l 1
 522.650390625 0 l 1
 425.299804688 245 l 1
 391.200195312 184 l 1
 391.200195312 0 l 1
 344.200195312 0 l 1
 344.200195312 184 l 1
 272.900390625 245 l 1
 69.349609375 0 l 1
 11.349609375 0 l 1
 232.650390625 274 l 1
 9.349609375 471 l 1
EndSplineSet
EndChar

StartChar: ze
Encoding: 1079 1079 203
Width: 345
VWidth: 985
Flags: HW
LayerCount: 2
Fore
SplineSet
15.2998046875 57 m 1xe8
 40.2998046875 98 l 1
 44.2998046875 90 l 0
 58.2998046875 64 98.2998046875 38 162.299804688 38 c 0
 229.299804688 38 276.299804688 70 276.299804688 134 c 0xe8
 276.299804688 185 232.299804688 221 156.299804688 225 c 0
 151.299804688 225 l 1
 151.299804688 264 l 1
 155.299804688 265 l 0
 156.299804688 265 262.299804688 286 262.299804688 349 c 0
 262.299804688 405 216.299804688 430 159.299804688 430 c 0
 130.299804688 430 77.2998046875 406 73.2998046875 401 c 1
 70.2998046875 397 l 1
 32.2998046875 426 l 1
 35.2998046875 430 l 0
 51.2998046875 448 111.299804688 476 158.299804688 476 c 0
 304.299804688 476 310.299804688 370 310.299804688 350 c 0xf0
 310.299804688 289 264.299804688 260 240.299804688 249 c 1
 269.299804688 240 326.299804688 213 326.299804688 132 c 0
 326.299804688 29 251.299804688 -9 161.299804688 -9 c 0
 85.2998046875 -9 37.2998046875 21 17.2998046875 54 c 0
 15.2998046875 57 l 1xe8
EndSplineSet
EndChar

StartChar: i.cyr
Encoding: 1080 1080 204
Width: 353
VWidth: 985
Flags: HW
LayerCount: 2
Fore
SplineSet
22.099609375 0 m 1
 22.099609375 471 l 1
 69.099609375 471 l 1
 69.099609375 81 l 1
 280.900390625 471 l 1
 326.900390625 471 l 1
 326.900390625 0 l 1
 279.900390625 0 l 1
 279.900390625 389 l 1
 66.099609375 0 l 1
 22.099609375 0 l 1
EndSplineSet
EndChar

StartChar: ka
Encoding: 1082 1082 205
Width: 344
VWidth: 985
Flags: HW
LayerCount: 2
Fore
SplineSet
22.099609375 0 m 1
 22.099609375 471 l 1
 69.099609375 471 l 1
 69.099609375 235 l 1
 273.25 471 l 1
 332.25 471 l 1
 151.549804688 274 l 1
 330.25 0 l 1
 272.25 0 l 1
 121.799804688 245 l 1
 69.099609375 184 l 1
 69.099609375 0 l 1
 22.099609375 0 l 1
EndSplineSet
EndChar

StartChar: el
Encoding: 1083 1083 206
Width: 433
VWidth: 985
Flags: HW
LayerCount: 2
Fore
SplineSet
13.599609375 0 m 1
 13.599609375 47 l 1
 18.599609375 47 l 0
 96.5078125 47 103.754882812 184 113.599609375 463 c 0
 113.599609375 468 l 1
 410.75 468 l 1
 410.75 0 l 1
 363.75 0 l 1
 363.75 421 l 1
 160.599609375 421 l 1
 147.23828125 163 133.650390625 0 18.599609375 0 c 0
 13.599609375 0 l 1
EndSplineSet
EndChar

StartChar: em
Encoding: 1084 1084 207
Width: 456
VWidth: 985
Flags: HW
LayerCount: 2
Fore
SplineSet
22.099609375 0 m 1
 22.099609375 471 l 1
 67.099609375 471 l 1
 225.5 188 l 1
 383.75 471 l 1
 429.75 471 l 1
 429.75 0 l 1
 382.75 0 l 1
 382.75 387 l 1
 225.5 107 l 1
 69.099609375 387 l 1
 69.099609375 0 l 1
 22.099609375 0 l 1
EndSplineSet
EndChar

StartChar: en
Encoding: 1085 1085 208
Width: 332
VWidth: 985
Flags: HW
LayerCount: 2
Fore
SplineSet
22.099609375 0 m 1
 22.099609375 469 l 1
 69.099609375 469 l 1
 69.099609375 263 l 1
 258.650390625 263 l 1
 258.650390625 469 l 1
 305.650390625 469 l 1
 305.650390625 0 l 1
 258.650390625 0 l 1
 258.650390625 222 l 1
 69.099609375 222 l 1
 69.099609375 0 l 1
 22.099609375 0 l 1
EndSplineSet
EndChar

StartChar: o.cyr
Encoding: 1086 1086 209
Width: 458
VWidth: 985
Flags: HW
LayerCount: 2
Fore
SplineSet
17.849609375 234 m 0
 17.849609375 361 114.849609375 476 227.049804688 476 c 0
 339.25 476 436.25 360 436.25 234 c 0
 436.25 107 338.400390625 -9 227.049804688 -9 c 0
 115.700195312 -9 17.849609375 107 17.849609375 234 c 0
63.849609375 234 m 0
 63.849609375 135 135.25 36 227.049804688 36 c 0
 318.849609375 36 390.25 135 390.25 234 c 0
 390.25 333 318.849609375 431 227.049804688 431 c 0
 135.25 431 63.849609375 333 63.849609375 234 c 0
EndSplineSet
EndChar

StartChar: pecyril
Encoding: 1087 1087 210
Width: 339
VWidth: 985
Flags: HW
LayerCount: 2
Fore
SplineSet
20.400390625 0 m 1
 20.400390625 468 l 1
 317.549804688 468 l 1
 317.549804688 0 l 1
 270.549804688 0 l 1
 270.549804688 421 l 1
 67.400390625 421 l 1
 67.400390625 0 l 1
 20.400390625 0 l 1
EndSplineSet
EndChar

StartChar: te
Encoding: 1090 1090 211
Width: 360
VWidth: 985
Flags: HW
LayerCount: 2
Fore
SplineSet
13.599609375 427 m 1
 13.599609375 468 l 1
 343.099609375 468 l 1
 343.099609375 427 l 1
 201.849609375 427 l 1
 201.849609375 0 l 1
 154.849609375 0 l 1
 154.849609375 427 l 1
 13.599609375 427 l 1
EndSplineSet
EndChar

StartChar: u.cyr
Encoding: 1091 1091 212
Width: 393
VWidth: 985
Flags: HW
LayerCount: 2
Fore
SplineSet
9.349609375 471 m 1
 63.349609375 471 l 1
 195.650390625 237 l 1
 329.099609375 471 l 1
 381.099609375 471 l 1
 110.349609375 0 l 1
 61.349609375 0 l 1
 174.400390625 199 l 1
 9.349609375 471 l 1
EndSplineSet
EndChar

StartChar: ef
Encoding: 1092 1092 213
Width: 469
VWidth: 985
Flags: HW
LayerCount: 2
Fore
SplineSet
19.5498046875 234 m 0
 19.5498046875 354 108.200195312 463 210.200195312 475 c 1
 210.200195312 527 l 1
 257.200195312 527 l 1
 257.200195312 475 l 1
 360.900390625 463 447 352 447 234 c 0
 447 114 358.349609375 4 257.200195312 -8 c 1
 257.200195312 -59 l 1
 210.200195312 -59 l 1
 210.200195312 -8 l 1
 107.349609375 4 19.5498046875 115 19.5498046875 234 c 0
66.5498046875 229 m 0
 66.5498046875 135 128.599609375 41 210.200195312 28 c 1
 210.200195312 429 l 1
 127.75 416 66.5498046875 323 66.5498046875 229 c 0
257.200195312 28 m 1
 338.799804688 42 400 135 400 229 c 0
 400 323 337.950195312 415 257.200195312 429 c 1
 257.200195312 28 l 1
EndSplineSet
EndChar

StartChar: ha
Encoding: 1093 1093 214
Width: 377
VWidth: 985
Flags: HW
LayerCount: 2
Fore
SplineSet
11.0498046875 0 m 1
 166.599609375 237 l 1
 11.0498046875 471 l 1
 62.0498046875 471 l 1
 187.849609375 267 l 1
 313.650390625 471 l 1
 364.650390625 471 l 1
 209.099609375 237 l 1
 364.650390625 0 l 1
 313.650390625 0 l 1
 187.849609375 207 l 1
 62.0498046875 0 l 1
 11.0498046875 0 l 1
EndSplineSet
EndChar

StartChar: tse
Encoding: 1094 1094 215
Width: 369
VWidth: 985
Flags: HW
LayerCount: 2
Fore
SplineSet
18.7001953125 0 m 1xd0
 18.7001953125 468 l 1
 65.7001953125 468 l 1
 65.7001953125 47 l 1
 273.950195312 47 l 1
 273.950195312 468 l 1
 320.950195312 468 l 1
 320.950195312 47 l 1xe0
 349.950195312 47 l 1
 349.950195312 -91 l 1
 300.950195312 -91 l 1
 300.950195312 0 l 1
 18.7001953125 0 l 1xd0
EndSplineSet
EndChar

StartChar: che
Encoding: 1095 1095 216
Width: 363
VWidth: 985
Flags: HW
LayerCount: 2
Fore
SplineSet
17.849609375 284 m 2
 17.849609375 469 l 1
 66.849609375 469 l 1
 66.849609375 284 l 0
 66.849609375 218 120.900390625 204 166.900390625 204 c 0
 250.849609375 204 293.400390625 273 293.400390625 293 c 0
 293.400390625 469 l 1
 340.400390625 469 l 1
 340.400390625 0 l 1
 293.400390625 0 l 1
 293.400390625 210 l 1
 275 183 233.599609375 157 166.900390625 157 c 0
 95.599609375 157 17.849609375 189 17.849609375 284 c 2
EndSplineSet
EndChar

StartChar: sha
Encoding: 1096 1096 217
Width: 596
VWidth: 985
Flags: HW
CounterMasks: 1 70
LayerCount: 2
Fore
SplineSet
22.9501953125 0 m 1
 22.9501953125 468 l 1
 69.9501953125 468 l 1
 69.9501953125 47 l 1
 273.099609375 47 l 1
 273.099609375 468 l 1
 320.099609375 468 l 1
 320.099609375 47 l 1
 523.25 47 l 1
 523.25 468 l 1
 570.25 468 l 1
 570.25 0 l 1
 22.9501953125 0 l 1
EndSplineSet
EndChar

StartChar: shcha
Encoding: 1097 1097 218
Width: 614
VWidth: 985
Flags: HW
LayerCount: 2
Fore
SplineSet
18.7001953125 0 m 1xe8
 18.7001953125 468 l 1
 65.7001953125 468 l 1
 65.7001953125 47 l 1
 268.849609375 47 l 1
 268.849609375 468 l 1
 315.849609375 468 l 1
 315.849609375 47 l 1
 519 47 l 1
 519 468 l 1
 566 468 l 1
 566 47 l 1xf0
 595 47 l 1
 595 -91 l 1
 546 -91 l 1
 546 0 l 1
 18.7001953125 0 l 1xe8
EndSplineSet
EndChar

StartChar: cyr.hd
Encoding: 1098 1098 219
Width: 327
VWidth: 985
Flags: HW
LayerCount: 2
Fore
SplineSet
-59.5 421 m 1
 -59.5 468 l 1
 83.5 468 l 1
 83.5 254 l 1
 163.400390625 254 l 0
 325.599609375 254 320.599609375 141 320.599609375 124 c 1
 321.599609375 47 267.950195312 0 194 0 c 0
 36.5 0 l 1
 36.5 421 l 1
 -59.5 421 l 1
83.5 41 m 1
 184.650390625 41 l 0
 237.349609375 41 275.599609375 75 275.599609375 124 c 0
 275.599609375 181 237.349609375 213 184.650390625 213 c 0
 83.5 213 l 1
 83.5 41 l 1
EndSplineSet
EndChar

StartChar: yeru
Encoding: 1099 1099 220
Width: 420
VWidth: 985
Flags: HW
LayerCount: 2
Fore
SplineSet
22.099609375 0 m 1
 22.099609375 467 l 1
 69.099609375 467 l 1
 69.099609375 254 l 1
 149 254 l 0
 303.700195312 254 306.200195312 141 306.200195312 124 c 1
 307.049804688 47 253.549804688 0 179.599609375 0 c 0
 22.099609375 0 l 1
69.099609375 41 m 1
 170.25 41 l 0
 222.950195312 41 261.200195312 75 261.200195312 124 c 0
 261.200195312 181 222.950195312 213 170.25 213 c 0
 69.099609375 213 l 1
 69.099609375 41 l 1
347 0 m 1
 340.25 467 l 1
 387.25 467 l 1
 394 0 l 1
 347 0 l 1
EndSplineSet
EndChar

StartChar: cyr.sf
Encoding: 1100 1100 221
Width: 327
VWidth: 985
Flags: HW
LayerCount: 2
Fore
SplineSet
22.099609375 0 m 1
 22.099609375 467 l 1
 69.099609375 467 l 1
 69.099609375 254 l 1
 149 254 l 0
 311.200195312 254 306.200195312 141 306.200195312 124 c 1
 307.200195312 47 253.549804688 0 179.599609375 0 c 0
 22.099609375 0 l 1
69.099609375 41 m 1
 170.25 41 l 0
 222.950195312 41 261.200195312 75 261.200195312 124 c 0
 261.200195312 181 222.950195312 213 170.25 213 c 0
 69.099609375 213 l 1
 69.099609375 41 l 1
EndSplineSet
EndChar

StartChar: e.cyr
Encoding: 1101 1101 222
Width: 402
VWidth: 985
Flags: HW
LayerCount: 2
Fore
SplineSet
22.099609375 353 m 1
 22.099609375 418 l 1
 23.099609375 419 l 0
 62.099609375 467 128.099609375 477 193.950195312 477 c 0
 315.5 477 380.099609375 351 380.099609375 234 c 0
 380.099609375 82 311.25 -9 197.349609375 -9 c 0
 132.099609375 -9 66.099609375 1 27.099609375 49 c 0
 26.099609375 50 l 1
 26.099609375 115 l 1
 35.099609375 104 l 0
 71.099609375 59 120.099609375 38 197.349609375 38 c 0
 283.200195312 38 323.150390625 127 329.099609375 214 c 1
 109.099609375 214 l 1
 109.099609375 260 l 1
 329.099609375 260 l 1
 320.599609375 355 269.599609375 430 193.950195312 430 c 0
 116.099609375 430 67.099609375 409 31.099609375 364 c 0
 22.099609375 353 l 1
EndSplineSet
EndChar

StartChar: yu
Encoding: 1102 1102 223
Width: 581
VWidth: 985
Flags: HW
LayerCount: 2
Fore
SplineSet
22.099609375 0 m 1x7e
 22.099609375 467 l 1
 69.099609375 467 l 1
 69.099609375 258 l 1
 139.650390625 258 l 1
 151.650390625 376 244.450195312 476 349 476 c 0
 461.200195312 476 559.200195312 360 559.200195312 234 c 0
 559.200195312 107 460.349609375 -9 349 -9 c 0xbe
 243.599609375 -9 151.650390625 96 139.650390625 216 c 1
 69.099609375 216 l 1
 69.099609375 0 l 1
 22.099609375 0 l 1x7e
186.650390625 234 m 0
 186.650390625 135 257.200195312 36 349 36 c 0
 440.799804688 36 512.200195312 135 512.200195312 234 c 0
 512.200195312 333 440.799804688 431 349 431 c 0
 257.200195312 431 186.650390625 333 186.650390625 234 c 0
EndSplineSet
EndChar

StartChar: ya
Encoding: 1103 1103 224
Width: 337
VWidth: 985
Flags: HW
LayerCount: 2
Fore
SplineSet
19.5498046875 0 m 1
 127.049804688 221 l 1
 16.5498046875 244 22.5498046875 332 22.5498046875 346 c 1
 21.5498046875 422 76.0498046875 468 153.400390625 468 c 0
 316.849609375 468 l 1
 316.849609375 0 l 1
 269.849609375 0 l 1
 269.849609375 215 l 1
 184.849609375 215 l 0
 179.75 215 173.799804688 216 170.400390625 216 c 1
 64.5498046875 0 l 1
 19.5498046875 0 l 1
67.5498046875 344 m 0
 67.5498046875 287 106.650390625 256 161.900390625 256 c 0
 269.849609375 256 l 1
 269.849609375 427 l 1
 161.900390625 427 l 0
 106.650390625 427 67.5498046875 393 67.5498046875 344 c 0
EndSplineSet
EndChar

StartChar: dje
Encoding: 1106 1106 225
Width: 411
VWidth: 985
Flags: HW
LayerCount: 2
Fore
SplineSet
339.950195312 96 m 4
 339.950195312 178 339.950195312 258 248.150390625 258 c 0
 172.5 258 132.549804688 172 132.549804688 145 c 2
 132.549804688 0 l 1
 89.5498046875 0 l 1
 89.5498046875 397 l 1
 19.5498046875 397 l 1
 19.5498046875 440 l 1
 89.5498046875 440 l 1
 89.5498046875 550 l 1
 132.549804688 550 l 1
 132.549804688 440 l 1
 317 440 l 1
 317 397 l 1
 132.549804688 397 l 1
 132.549804688 208 l 2
 132.549804688 244 168.25 302 248.150390625 302 c 0
 373.950195312 302 385.950195312 218 385.950195312 96 c 4
 385.950195312 -4 353.950195312 -118 232 -119 c 1
 232 -73 l 1
 307.650390625 -72 339.950195312 14 339.950195312 96 c 4
EndSplineSet
EndChar

StartChar: ie.ukr
Encoding: 1108 1108 226
Width: 402
VWidth: 985
Flags: HW
LayerCount: 2
Fore
SplineSet
22.099609375 233 m 0
 22.099609375 351 86.7001953125 477 208.25 477 c 0
 274.099609375 477 340.099609375 467 379.099609375 418 c 0
 380.099609375 417 l 1
 380.099609375 352 l 1
 371.099609375 363 l 0
 335.099609375 408 286.099609375 429 208.25 429 c 0
 132.599609375 429 81.599609375 352 73.099609375 259 c 1
 294.099609375 259 l 1
 294.099609375 211 l 1
 73.099609375 211 l 1
 79.0498046875 123 119.849609375 37 205.700195312 37 c 0
 283.099609375 37 332.099609375 57 368.099609375 102 c 0
 377.099609375 113 l 1
 377.099609375 49 l 1
 376.099609375 48 l 0
 337.099609375 -1 271.099609375 -11 205.700195312 -11 c 0
 91.7998046875 -11 22.099609375 80 22.099609375 233 c 0
EndSplineSet
EndChar

StartChar: dze
Encoding: 1109 1109 227
Width: 359
VWidth: 985
Flags: HW
LayerCount: 2
Fore
SplineSet
13.599609375 33 m 1
 47.599609375 73 l 1
 50.599609375 72 l 0
 69.150390625 63 102.299804688 37 176.25 37 c 0
 221.900390625 37 287.900390625 67 287.900390625 126 c 0
 287.900390625 204 209.400390625 213 159.25 225 c 1
 88.7001953125 241 16.599609375 257 16.599609375 347 c 0
 16.599609375 412 76.7998046875 476 154.150390625 476 c 0
 248.900390625 476 278.900390625 457 312.900390625 435 c 0
 317.900390625 432 l 1
 282.900390625 397 l 1
 279.900390625 398 l 0
 260.900390625 407 229.900390625 428 154.150390625 428 c 1
 104.849609375 429 66.599609375 400 66.599609375 345 c 0
 66.599609375 281 135.450195312 277 172.849609375 268 c 1
 260.900390625 249 337.900390625 230 337.900390625 124 c 0
 337.900390625 57 254.900390625 -11 176.25 -11 c 0
 86.150390625 -11 52.599609375 8 17.599609375 30 c 0
 13.599609375 33 l 1
EndSplineSet
EndChar

StartChar: lje
Encoding: 1113 1113 228
Width: 491
VWidth: 985
Flags: HW
LayerCount: 2
Fore
SplineSet
13.599609375 -1 m 1
 13.599609375 45 l 1
 18.599609375 45 l 0
 104.599609375 45 112.599609375 182 113.599609375 462 c 0
 113.599609375 467 l 1
 482.450195312 467 l 1
 482.450195312 254 l 1
 577.450195312 254 l 0
 759.450195312 254 683.700195312 140 683.700195312 123 c 1
 684.700195312 46 631.049804688 -1 557.099609375 -1 c 0
 399.599609375 -1 l 1
 435.450195312 420 l 1
 160.599609375 420 l 1
 160.599609375 162 145.599609375 -1 18.599609375 -1 c 0
 13.599609375 -1 l 1
446.599609375 40 m 1
 548.599609375 40 l 0
 601.299804688 40 638.700195312 74 638.700195312 123 c 0
 638.700195312 180 664.450195312 211 602.450195312 211 c 0
 482.450195312 211 l 1
 446.599609375 40 l 1
EndSplineSet
EndChar

StartChar: nje
Encoding: 1114 1114 229
Width: 341
VWidth: 985
Flags: HW
LayerCount: 2
Fore
SplineSet
22.099609375 -1 m 1xbc
 22.099609375 467 l 1
 69.099609375 467 l 1
 69.099609375 261 l 1
 258.650390625 261 l 1xbc
 258.650390625 467 l 1
 305.650390625 467 l 1
 305.650390625 253 l 1
 399.650390625 253 l 0xdc
 581.650390625 253 542.75 140 542.75 123 c 1
 543.75 46 490.099609375 -1 416.150390625 -1 c 0
 258.650390625 -1 l 1
 258.650390625 220 l 1
 69.099609375 220 l 1
 69.099609375 -1 l 1
 22.099609375 -1 l 1xbc
305.650390625 40 m 1
 406.799804688 40 l 0
 459.5 40 497.75 74 497.75 123 c 0
 497.75 180 486.650390625 212 424.650390625 212 c 0
 305.650390625 212 l 1xdc
 305.650390625 40 l 1
EndSplineSet
EndChar

StartChar: tshe
Encoding: 1115 1115 230
Width: 352
VWidth: 985
Flags: HW
LayerCount: 2
Fore
SplineSet
12.75 420 m 1
 12.75 467 l 1
 276.150390625 467 l 1
 276.150390625 420 l 1
 119.75 420 l 1
 119.75 260 l 1
 134.200195312 287 164.799804688 313 214.099609375 313 c 0
 267.650390625 313 336.200195312 281 336.200195312 185 c 0
 336.200195312 -1 l 1
 287.200195312 -1 l 1
 287.200195312 184 l 0
 287.200195312 250 248.099609375 264 214.099609375 264 c 0
 152.049804688 264 119.75 195 119.75 175 c 0
 119.75 -1 l 1
 72.75 -1 l 1
 72.75 420 l 1
 12.75 420 l 1
EndSplineSet
EndChar

StartChar: dzhe
Encoding: 1119 1119 231
Width: 344
VWidth: 985
Flags: HW
LayerCount: 2
Fore
SplineSet
20.400390625 -1 m 1
 20.400390625 467 l 1
 67.400390625 467 l 1
 67.400390625 46 l 1
 275.650390625 46 l 1
 275.650390625 467 l 1
 322.650390625 467 l 1
 322.650390625 -1 l 1
 191.5 -1 l 1
 191.5 -103 l 1
 149.849609375 -103 l 1
 149.849609375 -1 l 1
 20.400390625 -1 l 1
EndSplineSet
EndChar

StartChar: i.ukr
Encoding: 1110 1110 232
Width: 128
VWidth: 985
Flags: HW
LayerCount: 2
Fore
SplineSet
22.9501953125 501 m 0xe0
 22.9501953125 521 39.9501953125 538 60.9501953125 538 c 0
 81.9501953125 538 98.9501953125 521 98.9501953125 501 c 0
 98.9501953125 481 81.9501953125 464 60.9501953125 464 c 4
 39.9501953125 464 22.9501953125 481 22.9501953125 501 c 0xe0
38.9501953125 0 m 1xd0
 38.9501953125 420 l 1
 81.9501953125 420 l 1
 81.9501953125 0 l 1
 38.9501953125 0 l 1xd0
EndSplineSet
EndChar

StartChar: je
Encoding: 1112 1112 233
Width: 128
VWidth: 985
Flags: HW
LayerCount: 2
Fore
SplineSet
-32.2998046875 -38 m 5xd0
 10.7001953125 -38 47.7001953125 -36 48.7001953125 30 c 2
 48.7001953125 420 l 1
 91.7001953125 420 l 1
 91.7001953125 30 l 2
 90.7001953125 -51 42.7001953125 -73 -7.2998046875 -74 c 1
 -32.2998046875 -38 l 5xd0
32.7001953125 501 m 0xe0
 32.7001953125 521 49.7001953125 538 70.7001953125 538 c 0
 91.7001953125 538 108.700195312 521 108.700195312 501 c 0
 108.700195312 481 91.7001953125 464 70.7001953125 464 c 0
 49.7001953125 464 32.7001953125 481 32.7001953125 501 c 0xe0
EndSplineSet
EndChar

StartChar: yi
Encoding: 1111 1111 234
Width: 138
VWidth: 985
Flags: HW
LayerCount: 2
Fore
SplineSet
-33.150390625 501 m 4
 -33.150390625 521 -16.150390625 538 4.849609375 538 c 4
 25.849609375 538 42.849609375 521 42.849609375 501 c 4
 42.849609375 481 25.849609375 464 4.849609375 464 c 4
 -16.150390625 464 -33.150390625 481 -33.150390625 501 c 4
48.849609375 0 m 1
 48.849609375 420 l 1
 91.849609375 420 l 1
 91.849609375 0 l 1
 48.849609375 0 l 1
96.849609375 501 m 4
 96.849609375 521 113.849609375 538 134.849609375 538 c 4
 155.849609375 538 172.849609375 521 172.849609375 501 c 4
 172.849609375 481 155.849609375 464 134.849609375 464 c 4
 113.849609375 464 96.849609375 481 96.849609375 501 c 4
EndSplineSet
EndChar

StartChar: uk
Encoding: 1145 1145 235
Width: 797
VWidth: 985
Flags: HW
LayerCount: 2
Fore
SplineSet
17.849609375 234 m 0xb8
 17.849609375 361 114.849609375 476 227.049804688 476 c 0
 339.25 476 436.25 360 436.25 234 c 0
 436.25 107 338.400390625 -9 227.049804688 -9 c 0
 115.700195312 -9 17.849609375 107 17.849609375 234 c 0xb8
63.849609375 234 m 0
 63.849609375 135 135.25 36 227.049804688 36 c 0
 318.849609375 36 390.25 135 390.25 234 c 0
 390.25 333 318.849609375 431 227.049804688 431 c 0
 135.25 431 63.849609375 333 63.849609375 234 c 0
388.549804688 471 m 1
 442.25 471 l 1
 586.25 237 l 1
 731.25 471 l 1
 783.25 471 l 1
 488.650390625 0 l 1
 439.650390625 0 l 1x78
 560.650390625 199 l 1
 388.549804688 471 l 1
EndSplineSet
EndChar

StartChar: Ccedilla
Encoding: 199 199 236
Width: 458
VWidth: 985
Flags: HW
LayerCount: 2
Fore
SplineSet
26.349609375 275 m 0
 26.349609375 414 95.4501953125 560 234.849609375 560 c 0
 335.150390625 560 426.5 504 426.5 405 c 1
 378.5 405 l 1
 378.5 465 324.950195312 518 238.25 518 c 0
 138.799804688 518 73.349609375 406 73.349609375 275 c 0
 73.349609375 161 121.799804688 32 234.849609375 32 c 0
 322.400390625 32 378.5 87 378.5 142 c 1
 426.5 142 l 1
 426.5 56 342.799804688 -5 249.299804688 -11 c 1
 249.299804688 -60 l 1
 300.299804688 -60 335.150390625 -97 335.150390625 -134 c 0
 335.150390625 -271 181.299804688 -219 158.349609375 -209 c 1
 167.700195312 -184 l 1
 188.950195312 -191 296.049804688 -187 296.049804688 -141 c 0
 296.049804688 -85 239.099609375 -83 204.25 -83 c 1
 213.599609375 -10 l 1
 96.2998046875 1 26.349609375 105 26.349609375 275 c 0
EndSplineSet
EndChar

StartChar: ccedilla
Encoding: 231 231 237
Width: 434
VWidth: 985
Flags: HW
LayerCount: 2
Fore
SplineSet
26.349609375 207 m 0
 26.349609375 346 115 432 211.900390625 432 c 0
 327.299804688 432 393.299804688 376 403.299804688 307 c 1
 355.299804688 307 l 1
 345.299804688 337 309.299804688 390 215.299804688 390 c 0
 158.349609375 390 73.349609375 328 73.349609375 207 c 0
 73.349609375 63 141.349609375 32 211.900390625 32 c 0
 326.299804688 32 345.299804688 87 355.299804688 112 c 1
 403.299804688 112 l 1
 393.299804688 55 351.299804688 -6 228.900390625 -11 c 1
 228.900390625 -60 l 1
 279.900390625 -60 320.299804688 -97 320.299804688 -134 c 0
 320.299804688 -271 160.900390625 -219 137.950195312 -209 c 1
 147.299804688 -184 l 1
 168.549804688 -191 275.650390625 -187 275.650390625 -141 c 0
 275.650390625 -85 218.700195312 -83 183.849609375 -83 c 1
 193.200195312 -10 l 1
 111.599609375 -4 26.349609375 40 26.349609375 207 c 0
EndSplineSet
EndChar

StartChar: Hryvnia
Encoding: 8372 8372 238
Width: 410
VWidth: 985
Flags: HW
LayerCount: 2
Fore
SplineSet
5.9501953125 230 m 1
 5.9501953125 272 l 1
 89.099609375 272 l 1
 116.299804688 290 152 300 192.799804688 310 c 1
 5.9501953125 310 l 1
 5.9501953125 352 l 1
 307.549804688 352 l 1
 321.150390625 365 330.5 384 330.5 411 c 0
 330.5 482 282.049804688 518 222.549804688 517 c 0
 135 517 102.700195312 493 84 482 c 1
 52.9501953125 515 l 1
 89.9501953125 540 118 560 222.549804688 560 c 0
 311.799804688 560 377.5 485 377.5 411 c 0
 377.5 387 373.5 368 365.5 352 c 1
 397.5 352 l 1
 397.5 310 l 1
 327.099609375 310 l 1
 301.599609375 291 266.75 281 228.5 272 c 1
 397.5 272 l 1
 397.5 230 l 1
 109.5 230 l 1
 88.25 213 72.9501953125 187 72.9501953125 145 c 0
 72.9501953125 69 142.650390625 32 196.200195312 32 c 0
 283.75 32 324.549804688 62 345.5 73 c 1
 378.5 34 l 1
 338.5 9 300.75 -11 196.200195312 -11 c 0
 112.049804688 -11 25.9501953125 69 25.9501953125 145 c 0
 25.9501953125 181 33.9501953125 209 46.9501953125 230 c 1
 5.9501953125 230 l 1
EndSplineSet
EndChar

StartChar: i.short
Encoding: 1081 1081 239
Width: 353
VWidth: 985
Flags: HW
LayerCount: 2
Fore
SplineSet
22.099609375 0 m 1
 22.099609375 471 l 1
 69.099609375 471 l 1
 69.099609375 81 l 1
 280.900390625 471 l 1
 326.900390625 471 l 1
 326.900390625 0 l 1
 279.900390625 0 l 1
 279.900390625 389 l 1
 66.099609375 0 l 1
 22.099609375 0 l 1
60.099609375 529 m 5
 60.099609375 571 l 5
 60.099609375 571 120.099609375 541 176.200195312 541 c 4
 232.299804688 541 292.900390625 571 292.900390625 571 c 5
 292.900390625 529 l 5
 292.900390625 529 232.299804688 499 176.200195312 499 c 4
 120.099609375 499 60.099609375 529 60.099609375 529 c 5
EndSplineSet
EndChar

StartChar: kje
Encoding: 1116 1116 240
Width: 344
VWidth: 985
Flags: HW
LayerCount: 2
Fore
SplineSet
22.099609375 0 m 1
 22.099609375 471 l 1
 69.099609375 471 l 1
 69.099609375 235 l 1
 273.25 471 l 1
 332.25 471 l 1
 151.549804688 274 l 1
 330.25 0 l 1
 272.25 0 l 1
 121.799804688 245 l 1
 69.099609375 184 l 1
 69.099609375 0 l 1
 22.099609375 0 l 1
149 487 m 5
 203.400390625 597 l 5
 254.400390625 597 l 5
 182.150390625 487 l 5
 149 487 l 5
EndSplineSet
EndChar

StartChar: i.cyrgrv
Encoding: 1117 1117 241
Width: 353
VWidth: 985
Flags: HW
LayerCount: 2
Fore
SplineSet
22.099609375 0 m 1
 22.099609375 471 l 1
 69.099609375 471 l 1
 69.099609375 81 l 1
 280.900390625 471 l 1
 326.900390625 471 l 1
 326.900390625 0 l 1
 279.900390625 0 l 1
 279.900390625 389 l 1
 66.099609375 0 l 1
 22.099609375 0 l 1
98 587 m 5
 149 587 l 5
 203.400390625 477 l 5
 170.25 477 l 5
 98 587 l 5
EndSplineSet
EndChar

StartChar: u.short
Encoding: 1118 1118 242
Width: 393
VWidth: 985
Flags: HW
LayerCount: 2
Fore
SplineSet
9.349609375 471 m 1
 63.349609375 471 l 1
 195.650390625 237 l 1
 329.099609375 471 l 1
 381.099609375 471 l 1
 110.349609375 0 l 1
 61.349609375 0 l 1
 174.400390625 199 l 1
 9.349609375 471 l 1
72.349609375 529 m 5
 72.349609375 571 l 5
 72.349609375 571 139.549804688 541 195.650390625 541 c 4
 251.75 541 319.099609375 571 319.099609375 571 c 5
 319.099609375 529 l 5
 319.099609375 529 251.75 499 195.650390625 499 c 4
 139.549804688 499 72.349609375 529 72.349609375 529 c 5
EndSplineSet
EndChar

StartChar: be
Encoding: 1073 1073 243
Width: 386
VWidth: 985
Flags: HW
LayerCount: 2
Fore
SplineSet
24.650390625 176 m 0
 24.650390625 429 38.650390625 555 325.900390625 557 c 1
 316.900390625 514 l 1
 178.450195312 513 72.2001953125 465 72.2001953125 323 c 1
 72.2001953125 323 96.849609375 382 191.200195312 382 c 0
 278.75 382 356.900390625 309 356.900390625 176 c 4
 356.900390625 73 278.75 -11 191.200195312 -11 c 0
 103.650390625 -11 24.650390625 73 24.650390625 176 c 0
69.650390625 176 m 4
 69.650390625 98 124.900390625 34 191.200195312 34 c 0
 257.5 34 311.900390625 98 311.900390625 176 c 4
 311.900390625 284 257.5 337 191.200195312 337 c 0
 116.400390625 337 69.650390625 285 69.650390625 176 c 4
EndSplineSet
EndChar

StartChar: ie.grv
Encoding: 1104 1104 244
Width: 454
VWidth: 985
Flags: HW
LayerCount: 2
Fore
SplineSet
26.349609375 197 m 0
 26.349609375 336 111.599609375 432 220.400390625 432 c 0
 334.299804688 432 410.299804688 361 420.299804688 222 c 1
 420.299804688 179 l 1
 73.349609375 179 l 1
 79.2998046875 80 153.25 32 220.400390625 32 c 0
 343.299804688 32 362.299804688 87 372.299804688 112 c 1
 420.299804688 112 l 1
 410.299804688 52 364.299804688 -11 220.400390625 -11 c 0
 132 -11 26.349609375 47 26.349609375 197 c 0
75.0498046875 222 m 1
 372.299804688 222 l 1
 362.299804688 322 316.299804688 390 223.799804688 390 c 0
 133.700195312 390 86.9501953125 327 75.0498046875 222 c 1
115 587 m 5
 166 587 l 5
 220.400390625 477 l 5
 187.25 477 l 5
 115 587 l 5
EndSplineSet
EndChar

StartChar: io
Encoding: 1105 1105 245
Width: 454
VWidth: 985
Flags: HW
LayerCount: 2
Fore
SplineSet
26.349609375 197 m 0
 26.349609375 336 111.599609375 432 220.400390625 432 c 0
 334.299804688 432 410.299804688 361 420.299804688 222 c 1
 420.299804688 179 l 1
 73.349609375 179 l 1
 79.2998046875 80 153.25 32 220.400390625 32 c 0
 343.299804688 32 362.299804688 87 372.299804688 112 c 1
 420.299804688 112 l 1
 410.299804688 52 364.299804688 -11 220.400390625 -11 c 0
 132 -11 26.349609375 47 26.349609375 197 c 0
75.0498046875 222 m 1
 372.299804688 222 l 1
 362.299804688 322 316.299804688 390 223.799804688 390 c 0
 133.700195312 390 86.9501953125 327 75.0498046875 222 c 1
132.849609375 501 m 4
 132.849609375 521 147.299804688 538 165.150390625 538 c 4
 183 538 197.450195312 521 197.450195312 501 c 4
 197.450195312 481 183 464 165.150390625 464 c 4
 147.299804688 464 132.849609375 481 132.849609375 501 c 4
243.349609375 501 m 4
 243.349609375 521 257.799804688 538 275.650390625 538 c 4
 293.5 538 309.299804688 521 309.299804688 501 c 4
 309.299804688 481 293.5 464 275.650390625 464 c 4
 257.799804688 464 243.349609375 481 243.349609375 501 c 4
EndSplineSet
EndChar

StartChar: gje
Encoding: 1107 1107 246
Width: 336
VWidth: 985
Flags: HW
LayerCount: 2
Fore
SplineSet
20.400390625 0 m 1
 20.400390625 468 l 1
 314.400390625 468 l 1
 314.400390625 421 l 1
 67.400390625 421 l 1
 67.400390625 0 l 1
 20.400390625 0 l 1
132.400390625 507 m 5
 196.400390625 617 l 5
 256.400390625 617 l 5
 171.400390625 507 l 5
 132.400390625 507 l 5
EndSplineSet
EndChar

StartChar: u.str
Encoding: 1199 1199 247
Width: 394
VWidth: 985
Flags: HW
LayerCount: 2
Fore
SplineSet
9.349609375 471 m 1
 63.349609375 471 l 1
 195.650390625 237 l 1
 329.950195312 471 l 1
 381.950195312 471 l 1
 222.25 197 l 1
 222.25 0 l 1
 175.25 0 l 1
 175.25 197 l 1
 9.349609375 471 l 1
EndSplineSet
EndChar

StartChar: uni04D8
Encoding: 1240 1240 248
Width: 529
VWidth: 985
Flags: HW
LayerCount: 2
Fore
SplineSet
32.2998046875 228 m 1
 32.2998046875 276 l 5
 440.200195312 276 l 1
 439.200195312 278 l 0
 431.200195312 394 335.900390625 450 257.700195312 450 c 0
 120.299804688 450 95.2998046875 388 83.2998046875 358 c 1
 33.2998046875 358 l 1
 45.2998046875 425 97.2998046875 494 257.700195312 494 c 0
 358.849609375 494 488.200195312 429 488.200195312 258 c 0
 488.200195312 98 384.200195312 -13 257.700195312 -13 c 0
 130.299804688 -13 43.2998046875 68 32.2998046875 228 c 1
82.2998046875 229 m 1
 83.2998046875 226 l 2
 95.2998046875 110 147.299804688 30 253.450195312 30 c 0
 358 30 421.200195312 104 437.200195312 226 c 0
 438.200195312 229 l 1
 82.2998046875 229 l 1
EndSplineSet
EndChar

StartChar: komide
Encoding: 1281 1281 249
Width: 361
VWidth: 985
Flags: HW
LayerCount: 2
Fore
SplineSet
22.1015625 124 m 1
 22.1015625 141 17.1015625 254 199.1015625 254 c 0
 293.1015625 254 l 1
 293.1015625 467 l 1
 340.1015625 467 l 1
 340.1015625 0 l 1
 163.1015625 0 l 0
 76.1015625 0 21.1015625 47 22.1015625 124 c 1
67.1015625 124 m 0
 67.1015625 75 112.1015625 41 174.1015625 41 c 0
 293.1015625 41 l 1
 293.1015625 213 l 1
 174.1015625 213 l 0
 112.1015625 213 67.1015625 181 67.1015625 124 c 0
EndSplineSet
EndChar

StartChar: ze.rev
Encoding: 1297 1297 250
Width: 345
VWidth: 985
Flags: HW
LayerCount: 2
Fore
SplineSet
15.2998046875 132 m 0xf0
 15.2998046875 213 72.2998046875 240 101.299804688 249 c 1
 77.2998046875 260 31.2998046875 289 31.2998046875 350 c 0
 31.2998046875 370 37.2998046875 476 183.299804688 476 c 0
 230.299804688 476 290.299804688 448 306.299804688 430 c 0
 309.299804688 426 l 1
 271.299804688 397 l 1
 268.299804688 401 l 1
 264.299804688 406 211.299804688 430 182.299804688 430 c 0
 125.299804688 430 79.2998046875 405 79.2998046875 349 c 0xe8
 79.2998046875 286 185.299804688 265 186.299804688 265 c 0
 190.299804688 264 l 1
 190.299804688 225 l 1
 185.299804688 225 l 0
 109.299804688 221 65.2998046875 185 65.2998046875 134 c 0
 65.2998046875 70 112.299804688 38 179.299804688 38 c 0
 243.299804688 38 283.299804688 64 297.299804688 90 c 0
 301.299804688 98 l 1
 326.299804688 57 l 1
 324.299804688 54 l 0
 304.299804688 21 256.299804688 -9 180.299804688 -9 c 0
 90.2998046875 -9 15.2998046875 29 15.2998046875 132 c 0xf0
EndSplineSet
EndChar

StartChar: uni050D
Encoding: 1293 1293 251
Width: 392
VWidth: 985
Flags: HW
LayerCount: 2
Fore
SplineSet
17.849609375 234 m 0xbc
 17.849609375 351 78.900390625 476 201.299804688 476 c 0
 287.150390625 476 365.599609375 427 365.599609375 339 c 0
 365.599609375 334 l 1
 318.599609375 334 l 1
 318.599609375 339 l 0
 318.599609375 386 276.950195312 430 203.849609375 430 c 0
 123.099609375 430 67.849609375 341 67.849609375 234 c 0
 67.849609375 140 108.650390625 38 201.299804688 38 c 0xbc
 275.25 38 318.599609375 82 318.599609375 123 c 0
 318.599609375 188 l 1
 191.099609375 188 l 1
 191.099609375 235 l 1
 365.599609375 235 l 1
 365.599609375 0 l 1
 318.599609375 0 l 1x7c
 318.599609375 35 l 1
 288.849609375 7 248.049804688 -9 201.299804688 -9 c 0
 87.400390625 -9 17.849609375 82 17.849609375 234 c 0xbc
EndSplineSet
EndChar

StartChar: we
Encoding: 1309 1309 252
Width: 738
VWidth: 985
Flags: HW
LayerCount: 2
Fore
SplineSet
11.0498046875 471 m 1
 59.0498046875 471 l 1
 214.049804688 61 l 1
 349.099609375 471 l 1
 386.5 471 l 1
 521.549804688 61 l 1
 676.549804688 471 l 1
 723.549804688 471 l 1
 543.549804688 0 l 1
 499.549804688 0 l 1
 367.799804688 412 l 1
 236.049804688 0 l 1
 192.049804688 0 l 1
 11.0498046875 471 l 1
EndSplineSet
EndChar

StartChar: qa
Encoding: 1307 1307 253
Width: 392
VWidth: 985
Flags: HW
LayerCount: 2
Fore
SplineSet
26.349609375 218 m 0
 26.349609375 351 93.599609375 432 193.900390625 432 c 4
 247.450195312 432 286.549804688 389 308.650390625 348 c 1
 308.650390625 421 l 1
 354.650390625 421 l 1
 354.650390625 187 l 1
 354.650390625 -169 l 1
 308.650390625 -169 l 1
 308.650390625 28 l 1
 285.700195312 3 250 -11 193.900390625 -11 c 4
 85.9501953125 -11 26.349609375 101 26.349609375 218 c 0
72.349609375 218 m 0
 72.349609375 121 124.200195312 33 196.450195312 33 c 4
 299.299804688 33 306.099609375 100 308.650390625 187 c 2
 308.650390625 285 l 2
 308.650390625 315 261.049804688 387 193.900390625 387 c 4
 110.599609375 387 72.349609375 314 72.349609375 218 c 0
EndSplineSet
EndChar

StartChar: exmarkdbl
Encoding: 8252 8252 254
Width: 258
VWidth: 985
Flags: HW
LayerCount: 2
Fore
SplineSet
27.2001953125 26 m 0xc0
 27.2001953125 46 44.2001953125 63 65.2001953125 63 c 0
 85.900390625 63 100.349609375 46 100.349609375 26 c 0
 100.349609375 6 85.900390625 -11 65.2001953125 -11 c 0
 44.2001953125 -11 27.2001953125 6 27.2001953125 26 c 0xc0
29.2001953125 560 m 1
 98.650390625 560 l 1
 84.2001953125 127 l 1
 46.2001953125 127 l 1xa0
 29.2001953125 560 l 1
153.900390625 26 m 0x90
 153.900390625 46 168.349609375 63 189.049804688 63 c 0
 210.049804688 63 227.049804688 46 227.049804688 26 c 0
 227.049804688 6 210.049804688 -11 189.049804688 -11 c 0
 168.349609375 -11 153.900390625 6 153.900390625 26 c 0x90
155.599609375 560 m 1
 225.049804688 560 l 1
 208.049804688 127 l 1
 170.049804688 127 l 1x88
 155.599609375 560 l 1
EndSplineSet
EndChar

StartChar: uni2047
Encoding: 8263 8263 255
Width: 683
VWidth: 985
Flags: HW
LayerCount: 2
Fore
SplineSet
23.7998046875 417 m 1xdc80
 23.7998046875 511 103.799804688 561 181.799804688 561 c 0
 256.849609375 561 324.400390625 495 324.400390625 413 c 0
 324.400390625 279 194.799804688 300 194.799804688 207 c 9
 194.799804688 127 l 1
 146.799804688 127 l 1
 146.799804688 221 l 17
 146.799804688 327 278.400390625 302 276.400390625 413 c 0
 274.700195312 535 85.7998046875 540 74.7998046875 417 c 1
 23.7998046875 417 l 1xdc80
132.799804688 26 m 4xec80
 132.799804688 46 149.799804688 63 170.799804688 63 c 4
 191.799804688 63 208.799804688 46 208.799804688 26 c 4
 208.799804688 6 191.799804688 -11 170.799804688 -11 c 4
 149.799804688 -11 132.799804688 6 132.799804688 26 c 4xec80
372.849609375 417 m 1
 372.849609375 511 440.849609375 561 512.400390625 561 c 0
 587.450195312 561 655 495 655 413 c 0
 655 279 525.400390625 300 525.400390625 207 c 9
 522.400390625 127 l 1
 474.400390625 127 l 1
 477.400390625 221 l 17xcd80
 477.400390625 327 609 302 607 413 c 0
 605.299804688 535 425.549804688 540 416.200195312 417 c 1
 372.849609375 417 l 1
460.400390625 26 m 4xce80
 460.400390625 46 477.400390625 63 498.400390625 63 c 4
 519.400390625 63 536.400390625 46 536.400390625 26 c 4
 536.400390625 6 519.400390625 -11 498.400390625 -11 c 4
 477.400390625 -11 460.400390625 6 460.400390625 26 c 4xce80
EndSplineSet
EndChar

StartChar: uni2048
Encoding: 8264 8264 256
Width: 477
VWidth: 985
Flags: HW
LayerCount: 2
Fore
SplineSet
23.7998046875 417 m 1xd8
 23.7998046875 511 103.799804688 561 181.799804688 561 c 0
 256.849609375 561 324.400390625 495 324.400390625 413 c 0
 324.400390625 279 194.799804688 300 194.799804688 207 c 9
 194.799804688 127 l 1
 146.799804688 127 l 1
 146.799804688 221 l 17
 146.799804688 327 278.400390625 302 276.400390625 413 c 0
 274.700195312 535 85.7998046875 540 74.7998046875 417 c 1
 23.7998046875 417 l 1xd8
132.799804688 26 m 4xe8
 132.799804688 46 149.799804688 63 170.799804688 63 c 4
 191.799804688 63 208.799804688 46 208.799804688 26 c 4
 208.799804688 6 191.799804688 -11 170.799804688 -11 c 4
 149.799804688 -11 132.799804688 6 132.799804688 26 c 4xe8
371.150390625 26 m 0xcc
 371.150390625 46 388.150390625 63 409.150390625 63 c 0
 430.150390625 63 447.150390625 46 447.150390625 26 c 0
 447.150390625 6 430.150390625 -11 409.150390625 -11 c 0
 388.150390625 -11 371.150390625 6 371.150390625 26 c 0xcc
377.950195312 560 m 1
 447.400390625 560 l 1
 428.150390625 127 l 1
 390.150390625 127 l 1xca
 377.950195312 560 l 1
EndSplineSet
EndChar

StartChar: uni2049
Encoding: 8265 8265 257
Width: 462
VWidth: 985
Flags: HW
LayerCount: 2
Fore
SplineSet
27.2001953125 26 m 0xd2
 27.2001953125 46 44.2001953125 63 65.2001953125 63 c 0
 86.2001953125 63 103.200195312 46 103.200195312 26 c 0
 103.200195312 6 86.2001953125 -11 65.2001953125 -11 c 0
 44.2001953125 -11 27.2001953125 6 27.2001953125 26 c 0xd2
29.2001953125 560 m 1
 98.650390625 560 l 1
 84.2001953125 127 l 1
 46.2001953125 127 l 1xb2
 29.2001953125 560 l 1
150.5 417 m 1
 150.5 511 218.5 561 290.049804688 561 c 4
 365.099609375 561 432.650390625 495 432.650390625 413 c 0
 432.650390625 279 303.049804688 300 303.049804688 207 c 9
 308 127 l 1
 260 127 l 1
 255.049804688 221 l 17x96
 255.049804688 327 386.650390625 302 384.650390625 413 c 0
 382.950195312 535 203.200195312 540 193.849609375 417 c 1
 150.5 417 l 1
246 26 m 0x9a
 246 46 263 63 284 63 c 0
 305 63 322 46 322 26 c 0
 322 6 305 -11 284 -11 c 0
 263 -11 246 6 246 26 c 0x9a
EndSplineSet
EndChar

StartChar: tironianEt
Encoding: 8266 8266 258
Width: 322
VWidth: 985
Flags: HW
LayerCount: 2
Fore
SplineSet
28.900390625 507 m 1
 28.900390625 550 l 1
 289.900390625 550 l 1
 109.900390625 0 l 1
 66.900390625 0 l 1
 229.900390625 507 l 5
 28.900390625 507 l 1
EndSplineSet
EndChar

StartChar: interrobang
Encoding: 8253 8253 259
Width: 355
VWidth: 985
Flags: HW
LayerCount: 2
Fore
SplineSet
24.650390625 417 m 1xd8
 24.650390625 511 104.650390625 561 182.650390625 561 c 0
 256.950195312 561 325.25 495 325.25 413 c 0
 325.25 279 194.900390625 300 194.900390625 207 c 1
 190.650390625 127 l 1
 152.650390625 127 l 1
 135.650390625 439 l 1
 205.099609375 439 l 1
 199.150390625 307 l 5
 234.849609375 333 272.25 351 272.25 413 c 0
 272.25 535 86.650390625 540 75.650390625 417 c 1
 24.650390625 417 l 1xd8
133.650390625 26 m 0xe8
 133.650390625 46 150.650390625 63 171.650390625 63 c 0
 192.349609375 63 206.799804688 46 206.799804688 26 c 0
 206.799804688 6 192.349609375 -11 171.650390625 -11 c 0
 150.650390625 -11 133.650390625 6 133.650390625 26 c 0xe8
EndSplineSet
EndChar

StartChar: Irony
Encoding: 11822 11822 260
Width: 353
VWidth: 985
Flags: HW
LayerCount: 2
Fore
SplineSet
324.400390625 417 m 1xd8
 273.400390625 417 l 1
 262.400390625 540 73.5 535 71.7998046875 413 c 0
 69.7998046875 302 201.400390625 327 201.400390625 221 c 9
 201.400390625 127 l 1
 153.400390625 127 l 1
 153.400390625 207 l 17
 153.400390625 300 23.7998046875 279 23.7998046875 413 c 0
 23.7998046875 495 91.349609375 561 166.400390625 561 c 0
 244.400390625 561 324.400390625 511 324.400390625 417 c 1xd8
215.400390625 26 m 4xe8
 215.400390625 6 198.400390625 -11 177.400390625 -11 c 4
 156.400390625 -11 141.5 6 141.5 26 c 4
 141.5 46 156.400390625 63 177.400390625 63 c 4
 198.400390625 63 215.400390625 46 215.400390625 26 c 4xe8
EndSplineSet
EndChar

StartChar: Interrobang.inv
Encoding: 11800 11800 261
Width: 339
VWidth: 985
Flags: HW
LayerCount: 2
Fore
SplineSet
26.349609375 137 m 0xec
 26.349609375 271 156.700195312 250 156.700195312 343 c 1
 160.950195312 423 l 1
 193.25 423 l 1
 207.700195312 111 l 1
 146.5 111 l 1
 152.450195312 243 l 5
 116.75 217 79.349609375 199 79.349609375 137 c 0
 79.349609375 15 249.349609375 10 258.700195312 133 c 1
 309.700195312 133 l 1
 309.700195312 39 234.049804688 -11 167.75 -11 c 0
 94.650390625 -11 26.349609375 55 26.349609375 137 c 0xec
144.799804688 524 m 0xf4
 144.799804688 544 159.25 561 177.099609375 561 c 0
 194.950195312 561 209.400390625 544 209.400390625 524 c 0
 209.400390625 504 194.950195312 487 177.099609375 487 c 0
 159.25 487 144.799804688 504 144.799804688 524 c 0xf4
EndSplineSet
EndChar

StartChar: uni204B
Encoding: 8267 8267 262
Width: 489
VWidth: 985
Flags: HW
LayerCount: 2
Fore
SplineSet
27.2001953125 0 m 1
 27.2001953125 550 l 1
 70.2001953125 550 l 1
 70.2001953125 0 l 1
 27.2001953125 0 l 1
91.4501953125 0 m 1
 91.4501953125 550 l 1
 294.450195312 550 l 2
 394.450195312 550 455.450195312 496 454.450195312 408 c 0
 454.450195312 388 462.450195312 257 252.450195312 257 c 9
 135.450195312 257 l 1
 135.450195312 0 l 9
 91.4501953125 0 l 1
EndSplineSet
EndChar

StartChar: San
Encoding: 1018 1018 265
Width: 536
VWidth: 985
Flags: HW
LayerCount: 2
Fore
SplineSet
30.599609375 0 m 1
 30.599609375 550 l 1
 74.599609375 550 l 1
 264.150390625 213 l 1
 453.700195312 550 l 1
 497.700195312 550 l 1
 497.700195312 0 l 1
 453.700195312 0 l 1
 453.700195312 466 l 1
 264.150390625 127 l 1
 74.599609375 466 l 1
 74.599609375 0 l 1
 30.599609375 0 l 1
EndSplineSet
EndChar

StartChar: uni03F9
Encoding: 1017 1017 266
Width: 458
VWidth: 985
Flags: HW
LayerCount: 2
Fore
SplineSet
26.349609375 275 m 0
 26.349609375 414 95.4501953125 560 234.849609375 560 c 4
 335.150390625 560 426.5 504 426.5 405 c 1
 378.5 405 l 1
 378.5 465 324.950195312 518 238.25 518 c 0
 138.799804688 518 73.349609375 406 73.349609375 275 c 0
 73.349609375 161 121.799804688 32 234.849609375 32 c 0
 322.400390625 32 378.5 87 378.5 142 c 1
 426.5 142 l 1
 426.5 52 335.150390625 -11 234.849609375 -11 c 0
 103.950195312 -11 26.349609375 95 26.349609375 275 c 0
EndSplineSet
EndChar

StartChar: uni03FD
Encoding: 1021 1021 267
Width: 458
VWidth: 985
Flags: HW
LayerCount: 2
Fore
SplineSet
426.5 275 m 0
 426.5 95 348.900390625 -11 218 -11 c 0
 117.700195312 -11 26.349609375 52 26.349609375 142 c 1
 74.349609375 142 l 1
 74.349609375 87 130.450195312 32 218 32 c 0
 331.049804688 32 379.5 161 379.5 275 c 0
 379.5 406 314.049804688 518 214.599609375 518 c 0
 127.900390625 518 74.349609375 465 74.349609375 405 c 1
 26.349609375 405 l 1
 26.349609375 504 117.700195312 560 218 560 c 4
 357.400390625 560 426.5 414 426.5 275 c 0
EndSplineSet
EndChar

StartChar: Gamma
Encoding: 915 915 268
Width: 368
VWidth: 985
Flags: HW
LayerCount: 2
Fore
SplineSet
28.900390625 0 m 1
 28.900390625 550 l 1
 336.400390625 550 l 1
 336.400390625 507 l 5
 71.900390625 507 l 1
 71.900390625 0 l 1
 28.900390625 0 l 1
EndSplineSet
EndChar

StartChar: Alpha
Encoding: 913 913 269
Width: 450
VWidth: 985
Flags: HW
LayerCount: 2
Fore
SplineSet
20.400390625 0 m 1
 203.799804688 550 l 1
 241.200195312 550 l 1
 424.599609375 0 l 1
 380.599609375 0 l 1
 321.950195312 183 l 1
 123.049804688 183 l 1
 64.400390625 0 l 1
 20.400390625 0 l 1
134.950195312 219 m 1
 310.049804688 219 l 1
 222.5 492 l 1
 134.950195312 219 l 1
EndSplineSet
EndChar

StartChar: Deltagr
Encoding: 916 916 270
Width: 507
VWidth: 985
Flags: HW
LayerCount: 2
Fore
SplineSet
481.400390625 0 m 1
 20.400390625 0 l 1
 232.200195312 550 l 1
 269.599609375 550 l 1
 481.400390625 0 l 1
91.400390625 46 m 1
 410.400390625 46 l 1
 250.900390625 492 l 1
 91.400390625 46 l 1
EndSplineSet
EndChar

StartChar: Lambda
Encoding: 923 923 271
Width: 450
VWidth: 985
Flags: HW
LayerCount: 2
Fore
SplineSet
20.400390625 0 m 1
 64.400390625 0 l 5
 222.5 492 l 1
 380.599609375 0 l 1
 424.599609375 0 l 1
 241.200195312 550 l 1
 203.799804688 550 l 1
 20.400390625 0 l 1
EndSplineSet
EndChar

StartChar: Omega
Encoding: 937 937 272
Width: 538
VWidth: 985
Flags: HW
LayerCount: 2
Fore
SplineSet
25.5 275 m 0
 25.5 424 136.650390625 560 265.849609375 560 c 0
 395.049804688 560 506.200195312 423 506.200195312 275 c 0
 506.200195312 206 471.200195312 100 397.599609375 36 c 1
 504.200195312 36 l 1
 504.200195312 0 l 1
 341.5 0 l 1
 341.5 36 l 1
 417.150390625 83 462.200195312 208 462.200195312 275 c 0
 462.200195312 397 376.349609375 519 265.849609375 519 c 0
 155.349609375 519 69.5 397 69.5 275 c 0
 69.5 208 114.549804688 83 190.200195312 36 c 1
 190.200195312 0 l 1
 27.5 0 l 1
 27.5 36 l 1
 134.099609375 36 l 1
 60.5 100 25.5 206 25.5 275 c 0
EndSplineSet
EndChar

StartChar: yot
Encoding: 1011 1011 273
Width: 128
VWidth: 985
Flags: HW
LayerCount: 2
Fore
SplineSet
-32.2998046875 -38 m 5xd0
 10.7001953125 -38 47.7001953125 -36 48.7001953125 30 c 2
 48.7001953125 420 l 1
 91.7001953125 420 l 1
 91.7001953125 30 l 2
 90.7001953125 -51 42.7001953125 -73 -7.2998046875 -74 c 1
 -32.2998046875 -38 l 5xd0
32.7001953125 501 m 0xe0
 32.7001953125 521 49.7001953125 538 70.7001953125 538 c 0
 91.7001953125 538 108.700195312 521 108.700195312 501 c 0
 108.700195312 481 91.7001953125 464 70.7001953125 464 c 0
 49.7001953125 464 32.7001953125 481 32.7001953125 501 c 0xe0
EndSplineSet
EndChar

StartChar: Yot
Encoding: 895 895 274
Width: 365
VWidth: 985
Flags: HW
LayerCount: 2
Fore
SplineSet
21.25 44 m 1
 59.25 65 l 1
 90.25 41 128.25 31 169.299804688 32 c 0
 244.950195312 32 284.900390625 73 284.900390625 162 c 2
 284.900390625 550 l 1
 328.900390625 550 l 1
 328.900390625 148 l 2
 328.900390625 38 267.900390625 -11 168.450195312 -11 c 0
 106.25 -11 55.25 13 21.25 44 c 1
EndSplineSet
EndChar

StartChar: Beta
Encoding: 914 914 275
Width: 384
VWidth: 985
Flags: HW
LayerCount: 2
Fore
SplineSet
30.599609375 0 m 1xf4
 30.599609375 550 l 5
 182.549804688 550 l 2
 269.25 550 326.400390625 499 326.400390625 417 c 0xf8
 326.400390625 324 278.599609375 288 256.5 281 c 1
 326.900390625 262 351.900390625 192 351.900390625 142 c 0
 351.900390625 54 294.75 0 209.75 0 c 2
 30.599609375 0 l 1xf4
74.599609375 36 m 1
 199.549804688 36 l 2
 263.299804688 36 310.900390625 78 310.900390625 142 c 0xf4
 310.900390625 215 263.299804688 256 199.549804688 256 c 2
 74.599609375 256 l 1
 74.599609375 36 l 1
74.599609375 293 m 1
 174.049804688 293 l 2
 235.25 293 285.400390625 332 285.400390625 417 c 0xf8
 285.400390625 472 236.099609375 513 174.049804688 513 c 2
 74.599609375 513 l 1
 74.599609375 293 l 1
EndSplineSet
EndChar

StartChar: Eta
Encoding: 919 919 276
Width: 388
VWidth: 985
Flags: HW
LayerCount: 2
Fore
SplineSet
30.599609375 0 m 1
 30.599609375 550 l 1
 73.599609375 550 l 1
 73.599609375 302 l 1
 306.5 302 l 5
 306.5 550 l 5
 349.5 550 l 5
 349.5 0 l 5
 306.5 0 l 5
 306.5 266 l 5
 73.599609375 266 l 1
 73.599609375 0 l 1
 30.599609375 0 l 1
EndSplineSet
EndChar

StartChar: Zeta
Encoding: 918 918 277
Width: 467
VWidth: 985
Flags: HW
LayerCount: 2
Fore
SplineSet
22.099609375 0 m 1
 361.599609375 513 l 1
 50.099609375 513 l 1
 22.099609375 550 l 5
 440.599609375 550 l 1
 101.099609375 36 l 1
 440.599609375 36 l 1
 412.599609375 0 l 1
 22.099609375 0 l 1
EndSplineSet
EndChar

StartChar: Heta
Encoding: 880 880 278
Width: 378
VWidth: 985
Flags: HW
LayerCount: 2
Fore
SplineSet
28.900390625 0 m 1
 28.900390625 550 l 1
 71.900390625 550 l 1
 71.900390625 302 l 1
 345.900390625 302 l 5
 345.900390625 266 l 1
 71.900390625 266 l 1
 71.900390625 0 l 1
 28.900390625 0 l 1
EndSplineSet
EndChar

StartChar: heta
Encoding: 881 881 279
Width: 322
VWidth: 985
Flags: HW
LayerCount: 2
Fore
SplineSet
67.400390625 0 m 1
 20.400390625 0 l 1
 20.400390625 469 l 1
 67.400390625 469 l 1
 67.400390625 263 l 1
 300.400390625 263 l 1
 300.400390625 222 l 1
 67.400390625 222 l 1
 67.400390625 0 l 1
EndSplineSet
EndChar

StartChar: uni0377
Encoding: 887 887 280
Width: 353
VWidth: 985
Flags: HW
LayerCount: 2
Fore
SplineSet
22.099609375 0 m 1
 22.099609375 471 l 1
 69.099609375 471 l 1
 69.099609375 81 l 1
 280.900390625 471 l 1
 326.900390625 471 l 1
 326.900390625 0 l 1
 279.900390625 0 l 1
 279.900390625 389 l 1
 66.099609375 0 l 1
 22.099609375 0 l 1
EndSplineSet
EndChar

StartChar: uni0376
Encoding: 886 886 281
Width: 413
VWidth: 985
Flags: HW
LayerCount: 2
Fore
SplineSet
30.599609375 0 m 1
 30.599609375 550 l 21
 73.599609375 550 l 1
 73.599609375 77 l 1
 331.150390625 550 l 1
 375.150390625 550 l 1
 375.150390625 0 l 1
 331.150390625 0 l 1
 331.150390625 468 l 1
 73.599609375 0 l 1
 30.599609375 0 l 1
EndSplineSet
EndChar

StartChar: Epsilon
Encoding: 917 917 282
Width: 399
VWidth: 985
Flags: HW
LayerCount: 2
Fore
SplineSet
30.599609375 0 m 1
 30.599609375 550 l 5
 367 550 l 1
 367 514 l 1
 73.599609375 514 l 1
 73.599609375 302 l 1
 317 302 l 1
 317 266 l 1
 73.599609375 266 l 1
 73.599609375 36 l 1
 367 36 l 1
 367 0 l 1
 30.599609375 0 l 1
EndSplineSet
EndChar

StartChar: Iota
Encoding: 921 921 283
Width: 112
VWidth: 985
Flags: HW
LayerCount: 2
Fore
SplineSet
30.599609375 0 m 5
 30.599609375 550 l 1
 73.599609375 550 l 1
 73.599609375 0 l 5
 30.599609375 0 l 5
EndSplineSet
EndChar

StartChar: Kappa
Encoding: 922 922 284
Width: 402
VWidth: 985
Flags: HW
LayerCount: 2
Fore
SplineSet
30.599609375 0 m 1
 30.599609375 550 l 1
 73.599609375 550 l 1
 73.599609375 265 l 5
 320.950195312 550 l 5
 373.950195312 550 l 5
 168.799804688 320 l 5
 373.950195312 0 l 1
 320.950195312 0 l 1
 141.599609375 288 l 5
 73.599609375 209 l 5
 73.599609375 0 l 1
 30.599609375 0 l 1
EndSplineSet
EndChar

StartChar: Mu
Encoding: 924 924 285
Width: 536
VWidth: 985
Flags: HW
LayerCount: 2
Fore
SplineSet
30.599609375 0 m 1
 30.599609375 550 l 1
 74.599609375 550 l 1
 264.150390625 213 l 1
 453.700195312 550 l 1
 497.700195312 550 l 1
 497.700195312 0 l 1
 453.700195312 0 l 1
 453.700195312 466 l 1
 264.150390625 127 l 1
 74.599609375 466 l 1
 74.599609375 0 l 1
 30.599609375 0 l 1
EndSplineSet
EndChar

StartChar: Omicron
Encoding: 927 927 286
Width: 538
VWidth: 985
Flags: HW
LayerCount: 2
Fore
SplineSet
25.5 275 m 0
 25.5 424 136.650390625 560 265.849609375 560 c 4
 395.049804688 560 506.200195312 423 506.200195312 275 c 0
 506.200195312 126 394.200195312 -11 265.849609375 -11 c 0
 137.5 -11 25.5 126 25.5 275 c 0
69.5 275 m 0
 69.5 153 155.349609375 30 265.849609375 30 c 0
 376.349609375 30 462.200195312 153 462.200195312 275 c 0
 462.200195312 397 376.349609375 519 265.849609375 519 c 0
 155.349609375 519 69.5 397 69.5 275 c 0
EndSplineSet
EndChar

StartChar: Pi
Encoding: 928 928 287
Width: 398
VWidth: 985
Flags: HW
LayerCount: 2
Fore
SplineSet
28.900390625 0 m 1
 28.900390625 550 l 1
 365.950195312 550 l 1
 365.950195312 0 l 1
 321.950195312 0 l 1
 321.950195312 507 l 1
 72.900390625 507 l 1
 72.900390625 0 l 1
 28.900390625 0 l 1
EndSplineSet
EndChar

StartChar: Rho
Encoding: 929 929 288
Width: 384
VWidth: 985
Flags: HW
LayerCount: 2
Fore
SplineSet
30.599609375 0 m 1
 30.599609375 550 l 1
 209.75 550 l 2
 294.75 550 352.900390625 496 351.900390625 408 c 0
 351.900390625 388 359.900390625 257 174.049804688 257 c 9
 74.599609375 257 l 1
 74.599609375 0 l 13
 30.599609375 0 l 1
74.599609375 294 m 1
 199.549804688 294 l 2
 263.299804688 294 310.900390625 335 310.900390625 408 c 0
 310.900390625 472 263.299804688 514 199.549804688 514 c 2
 74.599609375 514 l 1
 74.599609375 294 l 1
EndSplineSet
EndChar

StartChar: Tau
Encoding: 932 932 289
Width: 416
VWidth: 985
Flags: HW
LayerCount: 2
Fore
SplineSet
21.25 513 m 1
 21.25 550 l 1
 390.099609375 550 l 1
 390.099609375 513 l 1
 226.75 513 l 1
 226.75 0 l 1
 183.75 0 l 1
 183.75 513 l 1
 21.25 513 l 1
EndSplineSet
EndChar

StartChar: Upsilon
Encoding: 933 933 290
Width: 459
VWidth: 985
Flags: HW
LayerCount: 2
Fore
SplineSet
20.400390625 550 m 1
 69.400390625 550 l 1
 230.400390625 270 l 1
 385.799804688 550 l 5
 433.799804688 550 l 5
 251.400390625 229 l 1
 251.400390625 0 l 1
 208.400390625 0 l 1
 208.400390625 229 l 1
 20.400390625 550 l 1
EndSplineSet
EndChar

StartChar: Nu
Encoding: 925 925 291
Width: 413
VWidth: 985
Flags: HW
LayerCount: 2
Fore
SplineSet
30.599609375 0 m 1
 30.599609375 550 l 1
 74.599609375 550 l 1
 332.150390625 77 l 1
 332.150390625 550 l 1
 375.150390625 550 l 13
 375.150390625 0 l 1
 332.150390625 0 l 1
 74.599609375 468 l 1
 74.599609375 0 l 1
 30.599609375 0 l 1
EndSplineSet
EndChar

StartChar: Chi
Encoding: 935 935 292
Width: 442
VWidth: 985
Flags: HW
LayerCount: 2
Fore
SplineSet
22.9501953125 0 m 1
 199.700195312 275 l 1
 22.9501953125 550 l 1
 67.9501953125 550 l 1
 219.25 306 l 1
 369.700195312 550 l 1
 414.700195312 550 l 1
 237.950195312 275 l 1
 414.700195312 0 l 1
 369.700195312 0 l 1
 219.25 244 l 1
 67.9501953125 0 l 1
 22.9501953125 0 l 1
EndSplineSet
EndChar

StartChar: Sigma
Encoding: 931 931 293
Width: 557
VWidth: 985
Flags: HW
LayerCount: 2
Fore
SplineSet
357.299804688 0 m 1
 23.7998046875 0 l 1
 23.7998046875 44 l 1
 191.400390625 267 l 1
 23.7998046875 490 l 1
 23.7998046875 534 l 1
 357.299804688 534 l 1
 357.299804688 490 l 1
 81.7998046875 490 l 5
 241.299804688 267 l 5
 82.7998046875 44 l 5
 357.299804688 44 l 1
 357.299804688 0 l 1
EndSplineSet
EndChar

StartChar: Xi
Encoding: 926 926 294
Width: 411
VWidth: 985
Flags: HW
LayerCount: 2
Fore
SplineSet
30.599609375 0 m 1
 30.599609375 36 l 1
 378.549804688 36 l 1
 378.549804688 0 l 1
 30.599609375 0 l 1
30.599609375 514 m 1
 30.599609375 550 l 1
 378.549804688 550 l 1
 378.549804688 514 l 1
 30.599609375 514 l 1
73.599609375 266 m 5
 73.599609375 302 l 5
 328.549804688 302 l 5
 328.549804688 266 l 5
 73.599609375 266 l 5
EndSplineSet
EndChar

StartChar: Phi
Encoding: 934 934 295
Width: 549
VWidth: 985
Flags: HW
LayerCount: 2
Fore
SplineSet
28.0498046875 275 m 0
 28.0498046875 417 129.849609375 547 250.549804688 559 c 1
 250.549804688 620 l 1
 293.549804688 620 l 1
 293.549804688 559 l 1
 414.25 547 515.200195312 416 515.200195312 275 c 0
 515.200195312 133 413.400390625 2 293.549804688 -10 c 1
 293.549804688 -70 l 1
 250.549804688 -70 l 1
 250.549804688 -10 l 1
 130.700195312 2 28.0498046875 133 28.0498046875 275 c 0
72.0498046875 275 m 0
 72.0498046875 160 148.549804688 43 250.549804688 31 c 1
 250.549804688 518 l 1
 148.549804688 506 72.0498046875 390 72.0498046875 275 c 0
293.549804688 31 m 1
 394.700195312 44 471.200195312 160 471.200195312 275 c 0
 471.200195312 390 394.700195312 505 293.549804688 518 c 1
 293.549804688 31 l 1
EndSplineSet
EndChar

StartChar: Theta
Encoding: 920 920 296
Width: 538
VWidth: 985
Flags: HW
LayerCount: 2
Fore
SplineSet
25.5 275 m 0
 25.5 424 136.650390625 560 265.849609375 560 c 0
 395.049804688 560 506.200195312 423 506.200195312 275 c 0
 506.200195312 126 394.200195312 -11 265.849609375 -11 c 0
 137.5 -11 25.5 126 25.5 275 c 0
69.5 275 m 0
 69.5 153 155.349609375 30 265.849609375 30 c 0
 376.349609375 30 462.200195312 153 462.200195312 275 c 0
 462.200195312 397 376.349609375 519 265.849609375 519 c 0
 155.349609375 519 69.5 397 69.5 275 c 0
123.049804688 257 m 5
 123.049804688 293 l 5
 412.049804688 293 l 5
 412.049804688 257 l 5
 123.049804688 257 l 5
EndSplineSet
EndChar

StartChar: shha
Encoding: 1211 1211 297
Width: 363
VWidth: 985
Flags: HW
LayerCount: 2
Fore
SplineSet
30.599609375 0 m 1
 30.599609375 550 l 1
 73.599609375 550 l 1
 73.599609375 268 l 1
 73.599609375 304 109.299804688 362 189.200195312 362 c 0
 250.400390625 362 327 326 327 216 c 2
 327 0 l 1
 281 0 l 1
 281 216 l 2
 281 300 230 318 189.200195312 318 c 0
 113.549804688 318 73.599609375 232 73.599609375 205 c 1
 73.599609375 0 l 1
 30.599609375 0 l 1
EndSplineSet
EndChar

StartChar: Shha
Encoding: 1210 1210 298
Width: 414
VWidth: 985
Flags: HW
LayerCount: 2
Fore
SplineSet
30.599609375 0 m 1
 30.599609375 550 l 1
 73.599609375 550 l 1
 73.599609375 268 l 1
 73.599609375 304 117.799804688 362 206.200195312 362 c 0
 284.400390625 362 378 326 378 216 c 2
 378 0 l 1
 332 0 l 1
 332 216 l 2
 332 300 264 318 206.200195312 318 c 0
 122.049804688 318 73.599609375 232 73.599609375 205 c 1
 73.599609375 0 l 1
 30.599609375 0 l 1
EndSplineSet
EndChar

StartChar: dagger
Encoding: 8224 8224 299
Width: 286
VWidth: 985
Flags: HW
LayerCount: 2
Fore
SplineSet
28.900390625 307 m 1
 28.900390625 350 l 1
 118.900390625 350 l 1
 118.900390625 460 l 1
 161.900390625 460 l 1
 161.900390625 350 l 1
 251.900390625 350 l 1
 251.900390625 307 l 1
 161.900390625 307 l 1
 161.900390625 0 l 5
 118.900390625 0 l 5
 118.900390625 307 l 1
 28.900390625 307 l 1
EndSplineSet
EndChar

StartChar: daggerdbl
Encoding: 8225 8225 300
Width: 286
VWidth: 985
Flags: HW
LayerCount: 2
Fore
SplineSet
28.900390625 110 m 1
 28.900390625 153 l 1
 118.900390625 153 l 1
 118.900390625 307 l 1
 28.900390625 307 l 1
 28.900390625 350 l 1
 118.900390625 350 l 5
 118.900390625 460 l 1
 161.900390625 460 l 1
 161.900390625 350 l 5
 251.900390625 350 l 1
 251.900390625 307 l 1
 161.900390625 307 l 1
 161.900390625 153 l 1
 251.900390625 153 l 1
 251.900390625 110 l 1
 161.900390625 110 l 1
 161.900390625 0 l 1
 118.900390625 0 l 1
 118.900390625 110 l 1
 28.900390625 110 l 1
EndSplineSet
EndChar

StartChar: cyr1000s
Encoding: 1154 1154 301
Width: 361
VWidth: 985
Flags: HW
LayerCount: 2
Fore
SplineSet
22.099609375 182 m 1
 43.099609375 219 l 1
 121.099609375 174 l 1
 198.099609375 307 l 1
 120.099609375 352 l 1
 142.099609375 390 l 1
 220.099609375 345 l 5
 275.099609375 440 l 1
 312.099609375 418 l 1
 257.099609375 323 l 5
 335.099609375 278 l 1
 314.099609375 241 l 1
 236.099609375 286 l 1
 159.099609375 153 l 1
 237.099609375 108 l 1
 215.099609375 70 l 1
 137.099609375 115 l 1
 82.099609375 20 l 1
 45.099609375 42 l 1
 100.099609375 137 l 1
 22.099609375 182 l 1
EndSplineSet
EndChar

StartChar: Yus.sm
Encoding: 1126 1126 302
Width: 492
VWidth: 985
Flags: HW
LayerCount: 2
Fore
SplineSet
20.400390625 0 m 1
 221.549804688 550 l 1
 265.25 550 l 1
 466.400390625 0 l 1
 417.400390625 0 l 1
 351.099609375 190 l 1
 264.400390625 190 l 1
 264.400390625 0 l 1
 222.400390625 0 l 1
 222.400390625 190 l 1
 135.700195312 190 l 1
 69.400390625 0 l 1
 20.400390625 0 l 1
150.150390625 232 m 1
 336.650390625 232 l 1
 243.400390625 492 l 1
 150.150390625 232 l 1
EndSplineSet
EndChar

StartChar: yus.sm
Encoding: 1127 1127 303
Width: 422
VWidth: 985
Flags: HW
LayerCount: 2
Fore
SplineSet
11.0498046875 0 m 1
 188.299804688 469 l 1
 231.299804688 469 l 1
 407.400390625 0 l 1
 356.400390625 0 l 1
 299.450195312 158 l 1
 232.299804688 158 l 1
 232.299804688 0 l 1
 186.299804688 0 l 1
 186.299804688 158 l 1
 120 158 l 1
 63.0498046875 0 l 1
 11.0498046875 0 l 1
135.299804688 204 m 1
 284.150390625 204 l 1
 209.299804688 407 l 1
 135.299804688 204 l 1
EndSplineSet
EndChar

StartChar: Yus.big
Encoding: 1130 1130 304
Width: 601
VWidth: 985
Flags: HW
CounterMasks: 1 1c
LayerCount: 2
Fore
SplineSet
22.9501953125 0 m 1
 49.9501953125 25 51.9501953125 73 52.9501953125 113 c 1
 52.9501953125 240 113.799804688 301 186.900390625 301 c 0
 201.349609375 301 214.950195312 299 227.700195312 294 c 1
 80.9501953125 550 l 1
 517.049804688 550 l 1
 370.150390625 294 l 1
 382.900390625 299 396.5 301 410.950195312 301 c 0
 484.049804688 301 544.049804688 240 544.049804688 113 c 1
 545.049804688 73 547.049804688 25 574.049804688 0 c 1
 531.049804688 0 l 1
 504.049804688 0 502.049804688 69 501.049804688 103 c 1
 501.049804688 204 463.650390625 258 410.950195312 258 c 0
 358.25 258 320 203 320 103 c 2
 320 0 l 1
 277 0 l 1
 277 103 l 2
 277 204 239.599609375 258 186.900390625 258 c 0
 134.200195312 258 95.9501953125 203 95.9501953125 103 c 1
 94.9501953125 69 92.9501953125 0 65.9501953125 0 c 1
 22.9501953125 0 l 1
160.549804688 504 m 1
 299 261 l 5
 437.299804688 504 l 1
 160.549804688 504 l 1
EndSplineSet
EndChar

StartChar: n.alt
Encoding: 57348 57348 305
Width: 334
VWidth: 985
Flags: HW
LayerCount: 2
Fore
SplineSet
30.599609375 0 m 1
 30.599609375 152 l 6
 30.599609375 279 91.4501953125 340 164.549804688 340 c 4
 237.650390625 340 297.650390625 279 297.650390625 152 c 6
 297.650390625 0 l 1
 254.650390625 0 l 1
 254.650390625 142 l 6
 254.650390625 243 217.25 297 164.549804688 297 c 4
 111.849609375 297 73.599609375 242 73.599609375 142 c 6
 73.599609375 0 l 1
 30.599609375 0 l 1
EndSplineSet
EndChar

StartChar: m.alt
Encoding: 57349 57349 306
Width: 558
VWidth: 985
Flags: HW
CounterMasks: 1 38
LayerCount: 2
Fore
SplineSet
30.599609375 0 m 1
 30.599609375 152 l 2
 30.599609375 279 91.4501953125 340 164.549804688 340 c 0
 212.150390625 340 252.099609375 314 276.650390625 261 c 1
 301.900390625 314 341 340 388.599609375 340 c 0
 461.700195312 340 521.700195312 279 521.700195312 152 c 2
 521.700195312 0 l 1
 478.700195312 0 l 1
 478.700195312 142 l 2
 478.700195312 243 441.299804688 297 388.599609375 297 c 0
 335.900390625 297 297.650390625 242 297.650390625 142 c 2
 297.650390625 0 l 1
 254.650390625 0 l 1
 254.650390625 142 l 2
 254.650390625 243 217.25 297 164.549804688 297 c 0
 111.849609375 297 73.599609375 242 73.599609375 142 c 2
 73.599609375 0 l 1
 30.599609375 0 l 1
EndSplineSet
EndChar

StartChar: omega
Encoding: 969 969 307
Width: 558
VWidth: 985
Flags: HW
CounterMasks: 1 70
LayerCount: 2
Fore
SplineSet
30.599609375 177 m 6
 30.599609375 329 l 5
 73.599609375 329 l 5
 73.599609375 187 l 6
 73.599609375 87 111.849609375 32 164.549804688 32 c 4
 217.25 32 254.650390625 86 254.650390625 187 c 6
 254.650390625 329 l 5
 297.650390625 329 l 5
 297.650390625 187 l 6
 297.650390625 87 335.900390625 32 388.599609375 32 c 4
 441.299804688 32 478.700195312 86 478.700195312 187 c 6
 478.700195312 329 l 5
 521.700195312 329 l 5
 521.700195312 177 l 6
 521.700195312 50 461.700195312 -11 388.599609375 -11 c 4
 341 -11 301.900390625 15 276.650390625 68 c 5
 252.099609375 15 212.150390625 -11 164.549804688 -11 c 4
 91.4501953125 -11 30.599609375 50 30.599609375 177 c 6
EndSplineSet
EndChar

StartChar: omegacyr
Encoding: 1121 1121 308
Width: 558
VWidth: 985
Flags: HW
CounterMasks: 1 70
LayerCount: 2
Fore
SplineSet
30.599609375 177 m 6
 30.599609375 329 l 5
 73.599609375 329 l 5
 73.599609375 187 l 6
 73.599609375 87 111.849609375 32 164.549804688 32 c 4
 217.25 32 254.650390625 86 254.650390625 187 c 6
 254.650390625 329 l 5
 297.650390625 329 l 5
 297.650390625 187 l 6
 297.650390625 87 335.900390625 32 388.599609375 32 c 4
 441.299804688 32 478.700195312 86 478.700195312 187 c 6
 478.700195312 329 l 5
 521.700195312 329 l 5
 521.700195312 177 l 6
 521.700195312 50 461.700195312 -11 388.599609375 -11 c 4
 341 -11 301.900390625 15 276.650390625 68 c 5
 252.099609375 15 212.150390625 -11 164.549804688 -11 c 4
 91.4501953125 -11 30.599609375 50 30.599609375 177 c 6
EndSplineSet
EndChar

StartChar: Omegacyr
Encoding: 1120 1120 309
Width: 558
VWidth: 985
Flags: HW
CounterMasks: 1 70
LayerCount: 2
Fore
SplineSet
30.599609375 177 m 0
 30.599609375 373 78.7001953125 457 152.650390625 544 c 1
 178.150390625 513 l 1
 136.5 464 73.599609375 381 73.599609375 187 c 0
 73.599609375 113 111.849609375 32 164.549804688 32 c 0
 217.25 32 254.650390625 86 254.650390625 187 c 2
 254.650390625 329 l 1
 297.650390625 329 l 1
 297.650390625 187 l 2
 297.650390625 87 335.900390625 32 388.599609375 32 c 0
 441.299804688 32 478.700195312 113 478.700195312 187 c 0
 478.700195312 381 415.799804688 464 374.150390625 513 c 5
 399.650390625 544 l 5
 473.599609375 457 521.700195312 373 521.700195312 177 c 0
 521.700195312 84 461.700195312 -11 388.599609375 -11 c 0
 341 -11 301.900390625 15 276.650390625 68 c 1
 252.099609375 15 212.150390625 -11 164.549804688 -11 c 0
 91.4501953125 -11 30.599609375 84 30.599609375 177 c 0
EndSplineSet
EndChar

StartChar: yus.big
Encoding: 1131 1131 310
Width: 518
VWidth: 985
Flags: HW
CounterMasks: 1 1c
LayerCount: 2
Fore
SplineSet
9.349609375 0 m 1
 18.349609375 8 l 2
 39.349609375 28 41.349609375 67 42.349609375 101 c 1
 42.349609375 208 97.849609375 262 162.450195312 262 c 0
 170.950195312 262 181.150390625 261 187.950195312 259 c 1
 62.349609375 468 l 1
 455.049804688 468 l 1
 329.299804688 259 l 1
 337.799804688 261 346.299804688 262 354.799804688 262 c 0
 419.400390625 262 474.049804688 208 474.049804688 101 c 1
 475.049804688 67 477.049804688 28 498.049804688 8 c 0
 507.049804688 0 l 1
 458.049804688 0 l 0
 428.049804688 0 428.049804688 67 427.049804688 93 c 1
 427.049804688 175 396.450195312 215 354.799804688 215 c 0
 313.150390625 215 281.700195312 173 281.700195312 91 c 0
 281.700195312 0 l 1
 234.700195312 0 l 1
 234.700195312 91 l 0
 234.700195312 174 204.099609375 215 162.450195312 215 c 0
 120.799804688 215 89.349609375 174 89.349609375 93 c 1
 88.349609375 67 88.349609375 0 58.349609375 0 c 0
 9.349609375 0 l 1
148 419 m 1
 258.700195312 227 l 1
 369.25 419 l 1
 148 419 l 1
EndSplineSet
EndChar

StartChar: AE
Encoding: 198 198 311
Width: 835
VWidth: 985
Flags: HWO
LayerCount: 2
Fore
SplineSet
21.25 0 m 1
 437.25 550 l 1
 804.25 550 l 1
 804.25 514 l 1
 480.25 514 l 1
 480.25 302 l 1
 754.25 302 l 1
 754.25 266 l 1
 480.25 266 l 1
 481.25 36 l 1
 804.25 36 l 1
 804.25 0 l 1
 437.25 0 l 1
 437.25 183 l 1
 208.25 183 l 1
 70.25 0 l 1
 21.25 0 l 1
235.25 219 m 1
 437.25 219 l 1
 437.25 486 l 1
 235.25 219 l 1
EndSplineSet
EndChar

StartChar: uni04D4
Encoding: 1236 1236 312
Width: 835
VWidth: 985
Flags: HW
LayerCount: 2
Fore
SplineSet
21.25 0 m 1
 437.25 550 l 1
 804.25 550 l 1
 804.25 514 l 1
 480.25 514 l 1
 480.25 302 l 1
 754.25 302 l 1
 754.25 266 l 1
 480.25 266 l 1
 481.25 36 l 1
 804.25 36 l 1
 804.25 0 l 1
 437.25 0 l 5
 437.25 183 l 1
 208.25 183 l 1
 70.25 0 l 1
 21.25 0 l 1
235.25 219 m 1
 437.25 219 l 1
 437.25 486 l 1
 235.25 219 l 1
EndSplineSet
EndChar

StartChar: ae
Encoding: 230 230 313
Width: 865
VWidth: 985
Flags: HW
LayerCount: 2
Fore
SplineSet
26.349609375 203 m 0xba
 26.349609375 330 102.950195312 432 210.900390625 432 c 0
 306.950195312 432 376.150390625 405 393.150390625 323 c 1
 430.150390625 391 499.150390625 432 583.150390625 432 c 0
 711.150390625 432 787.150390625 361 797.150390625 222 c 1
 797.150390625 179 l 1
 410.150390625 179 l 1
 417.150390625 80 504.150390625 32 583.150390625 32 c 0
 720.150390625 32 739.150390625 87 749.150390625 112 c 1
 797.150390625 112 l 1
 787.150390625 52 741.150390625 -11 583.150390625 -11 c 0xbc
 514.150390625 -11 439.150390625 14 397.150390625 76 c 1
 397.150390625 0 l 1
 351.150390625 0 l 1x7a
 351.150390625 73 l 1
 329.049804688 32 289.950195312 -11 210.900390625 -11 c 0
 102.099609375 -11 26.349609375 60 26.349609375 203 c 0xba
72.349609375 203 m 0
 72.349609375 97 119.099609375 34 210.900390625 34 c 0
 303.549804688 34 351.150390625 106 351.150390625 136 c 2
 351.150390625 284 l 2
 348.599609375 356 307.799804688 388 213.450195312 388 c 0
 141.200195312 388 72.349609375 310 72.349609375 203 c 0
412.150390625 222 m 1
 749.150390625 222 l 1
 739.150390625 322 693.150390625 390 587.150390625 390 c 0
 481.150390625 390 426.150390625 327 412.150390625 222 c 1
EndSplineSet
EndChar

StartChar: uni0462
Encoding: 1122 1122 314
Width: 384
VWidth: 985
Flags: HW
LayerCount: 2
Fore
SplineSet
-47.599609375 424 m 1
 -47.599609375 466 l 1
 44.400390625 466 l 1
 44.400390625 550 l 1
 88.400390625 550 l 1
 88.400390625 466 l 1
 198.900390625 466 l 1
 198.900390625 424 l 1
 88.400390625 424 l 1
 88.400390625 293 l 1
 187.849609375 293 l 2
 373.700195312 293 365.700195312 162 365.700195312 142 c 0
 366.700195312 54 308.549804688 0 223.549804688 0 c 2
 44.400390625 0 l 1
 44.400390625 424 l 1
 -47.599609375 424 l 1
88.400390625 36 m 1
 213.349609375 36 l 2
 277.099609375 36 324.700195312 78 324.700195312 142 c 0
 324.700195312 215 277.099609375 256 213.349609375 256 c 2
 88.400390625 256 l 1
 88.400390625 36 l 1
EndSplineSet
EndChar

StartChar: uni0463
Encoding: 1123 1123 315
Width: 327
VWidth: 985
Flags: HW
LayerCount: 2
Fore
SplineSet
-45.0498046875 352 m 1
 -45.0498046875 397 l 1
 32.9501953125 397 l 1
 32.9501953125 467 l 1
 79.9501953125 467 l 1
 79.9501953125 398 l 1
 174.299804688 398 l 1
 174.299804688 353 l 1
 79.9501953125 353 l 1
 79.9501953125 254 l 1
 160.700195312 254 l 0
 323.049804688 254 317.049804688 141 317.049804688 124 c 1
 318.049804688 48 265.25 0 191.299804688 0 c 0
 32.9501953125 0 l 1
 32.9501953125 352 l 1
 -45.0498046875 352 l 1
79.9501953125 41 m 1
 181.950195312 41 l 0
 234.650390625 41 272.049804688 75 272.049804688 124 c 0
 272.049804688 181 234.650390625 213 181.950195312 213 c 0
 79.9501953125 213 l 1
 79.9501953125 41 l 1
EndSplineSet
EndChar

StartChar: uni0464
Encoding: 1124 1124 316
Width: 629
VWidth: 985
Flags: HW
LayerCount: 2
Fore
SplineSet
30.599609375 0 m 1x7c
 30.599609375 550 l 1
 73.599609375 550 l 1
 73.599609375 299 l 1
 149.400390625 299 l 1
 157.400390625 430 234.400390625 561 389.400390625 561 c 0
 477.400390625 561 552.400390625 550 596.400390625 496 c 1
 596.400390625 438 l 1
 552.400390625 492 492.400390625 518 389.400390625 518 c 0
 279.400390625 518 205.400390625 419 196.400390625 299 c 1
 494.400390625 299 l 1
 494.400390625 256 l 1
 196.400390625 256 l 1
 202.400390625 147 259.400390625 32 385.400390625 32 c 0
 488.400390625 32 548.400390625 58 592.400390625 112 c 1
 592.400390625 54 l 1
 548.400390625 0 473.400390625 -11 385.400390625 -11 c 0xbc
 236.400390625 -11 154.400390625 88 148.400390625 256 c 1
 73.599609375 256 l 1
 73.599609375 0 l 1
 30.599609375 0 l 1x7c
EndSplineSet
EndChar

StartChar: Yus.sm_iotified
Encoding: 1128 1128 317
Width: 577
VWidth: 985
Flags: HW
LayerCount: 2
Fore
SplineSet
24.650390625 0 m 1
 24.650390625 550 l 1
 67.650390625 550 l 1
 67.650390625 299 l 1
 218.650390625 299 l 1
 307.049804688 550 l 1
 350.75 550 l 1
 551.900390625 0 l 1
 502.900390625 0 l 1
 436.599609375 190 l 1
 349.900390625 190 l 1
 349.900390625 0 l 1
 307.900390625 0 l 1
 307.900390625 190 l 1
 221.200195312 190 l 1
 154.900390625 0 l 1
 105.900390625 0 l 1
 203.349609375 256 l 1
 67.650390625 256 l 1
 67.650390625 0 l 1
 24.650390625 0 l 1
235.650390625 232 m 1
 422.150390625 232 l 1
 328.900390625 492 l 1
 235.650390625 232 l 1
EndSplineSet
EndChar

StartChar: Yus.big_iotified
Encoding: 1132 1132 318
Width: 690
VWidth: 985
Flags: HW
LayerCount: 2
Fore
SplineSet
30.599609375 0 m 1
 30.599609375 550 l 1
 73.599609375 550 l 1
 73.599609375 301 l 1
 299.349609375 301 l 2
 313.799804688 301 327.400390625 299 340.150390625 294 c 1
 193.400390625 550 l 1
 629.5 550 l 1
 482.599609375 294 l 1
 495.349609375 299 508.950195312 301 523.400390625 301 c 0
 596.5 301 656.5 240 656.5 113 c 0
 657.5 73 659.5 25 686.5 0 c 1
 643.5 0 l 2
 616.5 0 614.5 69 613.5 103 c 0
 613.5 204 576.099609375 258 523.400390625 258 c 0
 470.700195312 258 432.450195312 203 432.450195312 103 c 2
 432.450195312 0 l 1
 389.450195312 0 l 1
 389.450195312 103 l 2
 389.450195312 204 352.049804688 258 299.349609375 258 c 0
 246.650390625 258 208.400390625 203 208.400390625 103 c 0
 207.400390625 69 205.400390625 0 178.400390625 0 c 2
 139.900390625 0 l 1
 162.849609375 25 164.549804688 73 165.400390625 113 c 0
 165.400390625 179 182.400390625 227 210.950195312 258 c 1
 73.599609375 258 l 1
 73.599609375 0 l 1
 30.599609375 0 l 1
273 504 m 1
 411.450195312 261 l 1
 549.75 504 l 1
 273 504 l 1
EndSplineSet
EndChar

StartChar: uni0465
Encoding: 1125 1125 319
Width: 537
VWidth: 985
Flags: HW
LayerCount: 2
Fore
SplineSet
22.099609375 0 m 1x7c
 22.099609375 468 l 1
 69.099609375 468 l 1
 69.099609375 260 l 1
 124.349609375 260 l 1
 133.349609375 369 201.349609375 477 334.349609375 477 c 0
 409.349609375 477 475.349609375 467 514.349609375 419 c 0
 515.349609375 418 l 1
 515.349609375 353 l 1
 506.349609375 364 l 0
 470.349609375 409 421.349609375 430 334.349609375 430 c 0
 245.349609375 430 185.349609375 353 175.349609375 259 c 1
 428.349609375 259 l 1
 428.349609375 213 l 1
 175.349609375 213 l 1
 182.349609375 125 229.349609375 38 330.349609375 38 c 0
 417.349609375 38 466.349609375 59 502.349609375 104 c 0
 511.349609375 115 l 1
 511.349609375 50 l 1
 510.349609375 49 l 0
 471.349609375 1 405.349609375 -9 330.349609375 -9 c 0xbc
 201.349609375 -9 131.349609375 77 124.349609375 218 c 1
 69.099609375 218 l 1
 69.099609375 0 l 1
 22.099609375 0 l 1x7c
EndSplineSet
EndChar

StartChar: yus.sm_iotified
Encoding: 1129 1129 320
Width: 496
VWidth: 985
Flags: HW
LayerCount: 2
Fore
SplineSet
17 0 m 1
 17 469 l 1
 64 469 l 1
 64 261 l 1
 186.549804688 261 l 1
 262.349609375 469 l 1
 306.349609375 469 l 1
 482.599609375 0 l 1
 430.599609375 0 l 1
 374.5 163 l 1
 307.349609375 163 l 1
 307.349609375 0 l 1
 261.349609375 0 l 1
 261.349609375 158 l 1
 194.200195312 158 l 1
 138.099609375 0 l 1
 86.099609375 0 l 1
 170.400390625 214 l 1
 64 214 l 1
 64 0 l 1
 17 0 l 1
209.5 204 m 1
 358.349609375 204 l 1
 284.349609375 407 l 1
 209.5 204 l 1
EndSplineSet
EndChar

StartChar: ys.big_iotified
Encoding: 1133 1133 321
Width: 594
VWidth: 985
Flags: HW
LayerCount: 2
Fore
SplineSet
22.099609375 0 m 1
 22.099609375 468 l 1
 69.099609375 468 l 1
 69.099609375 262 l 1
 258.049804688 262 l 0
 266.549804688 262 276.75 261 283.549804688 259 c 1
 158.799804688 468 l 1
 550.5 468 l 1
 425.75 259 l 1
 434.25 261 442.75 262 451.25 262 c 0
 515.849609375 262 570.5 207 570.5 99 c 1
 571.5 65 573.5 28 594.5 9 c 0
 604.5 0 l 1
 553.5 0 l 0
 523.5 0 524.5 66 523.5 91 c 1
 523.5 174 492.900390625 215 451.25 215 c 0
 409.599609375 215 378.150390625 173 378.150390625 91 c 0
 378.150390625 0 l 1
 331.150390625 0 l 1
 331.150390625 91 l 0
 331.150390625 174 300.549804688 215 258.900390625 215 c 0
 217.25 215 185.799804688 173 185.799804688 91 c 1
 184.799804688 66 184.799804688 0 154.799804688 0 c 0
 109.900390625 0 l 1
 118.400390625 8 l 0
 136.25 27 137.950195312 66 138.799804688 99 c 1
 138.799804688 149 150.799804688 188 171.799804688 215 c 1
 69.099609375 215 l 1
 69.099609375 0 l 1
 22.099609375 0 l 1
243.599609375 419 m 1
 355.150390625 227 l 1
 465.700195312 419 l 1
 243.599609375 419 l 1
EndSplineSet
EndChar

StartChar: uni04D5
Encoding: 1237 1237 322
Width: 865
VWidth: 985
Flags: HW
LayerCount: 2
Fore
SplineSet
26.349609375 203 m 0xba
 26.349609375 330 102.950195312 432 210.900390625 432 c 0
 306.950195312 432 376.150390625 405 393.150390625 323 c 1
 430.150390625 391 499.150390625 432 583.150390625 432 c 0
 711.150390625 432 787.150390625 361 797.150390625 222 c 1
 797.150390625 179 l 1
 410.150390625 179 l 1
 417.150390625 80 504.150390625 32 583.150390625 32 c 0
 720.150390625 32 739.150390625 87 749.150390625 112 c 1
 797.150390625 112 l 1
 787.150390625 52 741.150390625 -11 583.150390625 -11 c 0xbc
 514.150390625 -11 439.150390625 14 397.150390625 76 c 1
 397.150390625 0 l 1
 351.150390625 0 l 1x7a
 351.150390625 73 l 1
 329.049804688 32 289.950195312 -11 210.900390625 -11 c 0
 102.099609375 -11 26.349609375 60 26.349609375 203 c 0xba
72.349609375 203 m 0
 72.349609375 97 119.099609375 34 210.900390625 34 c 0
 303.549804688 34 351.150390625 106 351.150390625 136 c 2
 351.150390625 284 l 2
 348.599609375 356 307.799804688 388 213.450195312 388 c 0
 141.200195312 388 72.349609375 310 72.349609375 203 c 0
412.150390625 222 m 1
 749.150390625 222 l 1
 739.150390625 322 693.150390625 390 587.150390625 390 c 0
 481.150390625 390 426.150390625 327 412.150390625 222 c 1
EndSplineSet
EndChar

StartChar: kappa
Encoding: 954 954 323
Width: 344
VWidth: 985
Flags: HW
LayerCount: 2
Fore
SplineSet
22.099609375 0 m 5
 22.099609375 471 l 5
 69.099609375 471 l 5
 69.099609375 235 l 1
 273.25 471 l 1
 332.25 471 l 1
 151.549804688 274 l 1
 330.25 0 l 1
 272.25 0 l 1
 121.799804688 245 l 1
 69.099609375 184 l 1
 69.099609375 0 l 5
 22.099609375 0 l 5
EndSplineSet
EndChar

StartChar: Digamma
Encoding: 988 988 324
Width: 397
VWidth: 985
Flags: HW
LayerCount: 2
Fore
SplineSet
30.599609375 0 m 1
 30.599609375 550 l 5
 367 550 l 1
 367 514 l 1
 73.599609375 514 l 1
 73.599609375 302 l 1
 317 302 l 1
 317 266 l 1
 73.599609375 266 l 1
 73.599609375 0 l 1
 30.599609375 0 l 1
EndSplineSet
EndChar

StartChar: uni037B
Encoding: 891 891 325
Width: 434
VWidth: 985
Flags: HW
LayerCount: 2
Fore
SplineSet
403.299804688 207 m 0
 403.299804688 27 306.150390625 -11 217.75 -11 c 0
 82.349609375 -11 36.349609375 52 26.349609375 112 c 1
 74.349609375 112 l 1
 84.349609375 87 103.349609375 32 217.75 32 c 0
 288.299804688 32 356.299804688 63 356.299804688 207 c 0
 356.299804688 328 271.299804688 390 214.349609375 390 c 0
 120.349609375 390 84.349609375 337 74.349609375 307 c 1
 26.349609375 307 l 1
 36.349609375 376 102.349609375 432 217.75 432 c 4
 314.650390625 432 403.299804688 346 403.299804688 207 c 0
EndSplineSet
EndChar

StartChar: sigmasymgr
Encoding: 1010 1010 326
Width: 434
VWidth: 985
Flags: HW
LayerCount: 2
Fore
SplineSet
26.349609375 207 m 0
 26.349609375 346 115 432 211.900390625 432 c 4
 327.299804688 432 393.299804688 376 403.299804688 307 c 1
 355.299804688 307 l 1
 345.299804688 337 309.299804688 390 215.299804688 390 c 0
 158.349609375 390 73.349609375 328 73.349609375 207 c 0
 73.349609375 63 141.349609375 32 211.900390625 32 c 0
 326.299804688 32 345.299804688 87 355.299804688 112 c 1
 403.299804688 112 l 1
 393.299804688 52 347.299804688 -11 211.900390625 -11 c 0
 123.5 -11 26.349609375 27 26.349609375 207 c 0
EndSplineSet
EndChar

StartChar: anoteleia
Encoding: 903 903 327
Width: 142
VWidth: 985
Flags: HW
LayerCount: 2
Fore
SplineSet
30.599609375 317 m 0
 30.599609375 337 47.599609375 354 68.599609375 354 c 0
 89.599609375 354 106.599609375 337 106.599609375 317 c 0
 106.599609375 297 89.599609375 280 68.599609375 280 c 0
 47.599609375 280 30.599609375 297 30.599609375 317 c 0
EndSplineSet
EndChar

StartChar: ypogegrammeni
Encoding: 890 890 328
Width: 140
VWidth: 985
Flags: HW
LayerCount: 2
Fore
SplineSet
105.75 41 m 0x80
 105.75 21 88.75 4 67.75 4 c 0
 40.75 4 44.75 -23 46.75 -39 c 1
 39.75 -39 l 1x40
 35.75 -25 30.75 14 29.75 41 c 0
 29.75 61 46.75 78 67.75 78 c 0
 88.75 78 105.75 61 105.75 41 c 0x80
EndSplineSet
EndChar

StartChar: questiongr
Encoding: 894 894 329
Width: 142
VWidth: 985
Flags: HW
LayerCount: 2
Fore
SplineSet
30.599609375 41 m 0xc0
 30.599609375 61 47.599609375 78 68.599609375 78 c 0
 89.599609375 78 106.599609375 61 106.599609375 41 c 0xc0
 105.599609375 14 100.599609375 -25 96.599609375 -39 c 1
 89.599609375 -39 l 1xa0
 91.599609375 -23 95.599609375 4 68.599609375 4 c 0
 47.599609375 4 30.599609375 21 30.599609375 41 c 0xc0
30.599609375 266 m 0
 30.599609375 286 47.599609375 303 68.599609375 303 c 0
 89.599609375 303 106.599609375 286 106.599609375 266 c 4
 106.599609375 246 89.599609375 229 68.599609375 229 c 0
 47.599609375 229 30.599609375 246 30.599609375 266 c 0
EndSplineSet
EndChar

StartChar: tonos
Encoding: 900 900 330
Width: 153
VWidth: 985
Flags: HW
LayerCount: 2
Fore
SplineSet
22.9501953125 627 m 1
 66.9501953125 737 l 5
 126.950195312 737 l 5
 61.9501953125 627 l 1
 22.9501953125 627 l 1
EndSplineSet
EndChar

StartChar: dialytikatonos
Encoding: 901 901 331
Width: 290
VWidth: 985
Flags: HW
LayerCount: 2
Fore
SplineSet
28.0498046875 639 m 0
 28.0498046875 659 45.0498046875 676 66.0498046875 676 c 0
 87.0498046875 676 104.049804688 659 104.049804688 639 c 0
 104.049804688 619 87.0498046875 602 66.0498046875 602 c 0
 45.0498046875 602 28.0498046875 619 28.0498046875 639 c 0
114.049804688 627 m 1
 158.049804688 737 l 1
 218.049804688 737 l 1
 153.049804688 627 l 1
 114.049804688 627 l 1
180.049804688 639 m 4
 180.049804688 659 197.049804688 676 218.049804688 676 c 4
 239.049804688 676 256.049804688 659 256.049804688 639 c 4
 256.049804688 619 239.049804688 602 218.049804688 602 c 4
 197.049804688 602 180.049804688 619 180.049804688 639 c 4
EndSplineSet
EndChar

StartChar: Alphatonos
Encoding: 902 902 332
Width: 450
VWidth: 985
Flags: HW
LayerCount: 2
Fore
SplineSet
20.400390625 0 m 1
 203.799804688 550 l 1
 241.200195312 550 l 1
 424.599609375 0 l 1
 380.599609375 0 l 1
 321.950195312 183 l 1
 123.049804688 183 l 1
 64.400390625 0 l 1
 20.400390625 0 l 1
128.150390625 527 m 5
 165.549804688 637 l 5
 216.549804688 637 l 5
 161.299804688 527 l 5
 128.150390625 527 l 5
134.950195312 219 m 1
 310.049804688 219 l 1
 222.5 492 l 1
 134.950195312 219 l 1
EndSplineSet
EndChar

StartChar: Epsilontonos
Encoding: 904 904 333
Width: 399
VWidth: 985
Flags: HW
LayerCount: 2
Fore
SplineSet
-38.25 527 m 5
 5.75 637 l 5
 65.75 637 l 5
 0.75 527 l 5
 -38.25 527 l 5
42.75 0 m 1
 42.75 550 l 1
 379.150390625 550 l 1
 379.150390625 514 l 1
 85.75 514 l 1
 85.75 302 l 1
 329.150390625 302 l 1
 329.150390625 266 l 1
 85.75 266 l 1
 85.75 36 l 1
 379.150390625 36 l 1
 379.150390625 0 l 1
 42.75 0 l 1
EndSplineSet
EndChar

StartChar: Etatonos
Encoding: 905 905 334
Width: 388
VWidth: 985
Flags: HW
LayerCount: 2
Fore
SplineSet
-38.25 527 m 5
 5.75 637 l 5
 65.75 637 l 5
 0.75 527 l 5
 -38.25 527 l 5
42.75 0 m 1
 42.75 550 l 1
 85.75 550 l 1
 85.75 302 l 1
 318.650390625 302 l 1
 318.650390625 550 l 1
 361.650390625 550 l 1
 361.650390625 0 l 1
 318.650390625 0 l 1
 318.650390625 266 l 1
 85.75 266 l 1
 85.75 0 l 1
 42.75 0 l 1
EndSplineSet
EndChar

StartChar: Iotatonos
Encoding: 906 906 335
Width: 112
VWidth: 985
Flags: HW
LayerCount: 2
Fore
SplineSet
-38.25 527 m 5
 5.75 637 l 5
 65.75 637 l 5
 0.75 527 l 5
 -38.25 527 l 5
42.75 0 m 1
 42.75 550 l 1
 85.75 550 l 1
 85.75 0 l 1
 42.75 0 l 1
EndSplineSet
EndChar

StartChar: Omicrontonos
Encoding: 908 908 336
Width: 538
VWidth: 985
Flags: HW
LayerCount: 2
Fore
SplineSet
25.5 275 m 0
 25.5 424 136.650390625 560 265.849609375 560 c 0
 395.049804688 560 506.200195312 423 506.200195312 275 c 0
 506.200195312 126 394.200195312 -11 265.849609375 -11 c 0
 137.5 -11 25.5 126 25.5 275 c 0
69.5 275 m 0
 69.5 153 155.349609375 30 265.849609375 30 c 0
 376.349609375 30 462.200195312 153 462.200195312 275 c 0
 462.200195312 397 376.349609375 519 265.849609375 519 c 0
 155.349609375 519 69.5 397 69.5 275 c 0
70.349609375 527 m 5
 107.75 637 l 5
 158.75 637 l 5
 103.5 527 l 5
 70.349609375 527 l 5
EndSplineSet
EndChar

StartChar: Upsilontonos
Encoding: 910 910 337
Width: 449
VWidth: 985
Flags: HW
LayerCount: 2
Fore
SplineSet
-38.25 527 m 5
 5.75 637 l 5
 65.75 637 l 5
 0.75 527 l 5
 -38.25 527 l 5
30.75 550 m 1
 79.75 550 l 1
 230.400390625 270 l 1
 385.799804688 550 l 1
 433.799804688 550 l 1
 251.400390625 229 l 1
 251.400390625 0 l 1
 208.400390625 0 l 1
 208.400390625 229 l 1
 30.75 550 l 1
EndSplineSet
EndChar

StartChar: Omegatonos
Encoding: 911 911 338
Width: 538
VWidth: 985
Flags: HW
LayerCount: 2
Fore
SplineSet
25.5 275 m 0
 25.5 424 136.650390625 560 265.849609375 560 c 0
 395.049804688 560 506.200195312 423 506.200195312 275 c 0
 506.200195312 206 471.200195312 100 397.599609375 36 c 1
 504.200195312 36 l 1
 504.200195312 0 l 1
 341.5 0 l 1
 341.5 36 l 1
 417.150390625 83 462.200195312 208 462.200195312 275 c 0
 462.200195312 397 376.349609375 519 265.849609375 519 c 0
 155.349609375 519 69.5 397 69.5 275 c 0
 69.5 208 114.549804688 83 190.200195312 36 c 1
 190.200195312 0 l 1
 27.5 0 l 1
 27.5 36 l 1
 134.099609375 36 l 1
 60.5 100 25.5 206 25.5 275 c 0
70.349609375 527 m 5
 107.75 637 l 5
 158.75 637 l 5
 103.5 527 l 5
 70.349609375 527 l 5
EndSplineSet
EndChar

StartChar: uni03FE
Encoding: 1022 1022 339
Width: 469
VWidth: 985
Flags: HW
LayerCount: 2
Fore
SplineSet
26.349609375 275 m 0
 26.349609375 414 95.4501953125 560 234.849609375 560 c 0
 335.150390625 560 426.5 504 426.5 405 c 1
 378.5 405 l 1
 378.5 465 324.950195312 518 238.25 518 c 0
 138.799804688 518 73.349609375 406 73.349609375 275 c 0
 73.349609375 161 121.799804688 32 236.349609375 32 c 0
 333.799804688 32 389.900390625 87 389.900390625 142 c 1
 437.900390625 142 l 1
 437.900390625 52 346.549804688 -11 236.349609375 -11 c 0
 103.950195312 -11 26.349609375 95 26.349609375 275 c 0
226.349609375 275 m 4
 226.349609375 295 243.349609375 312 264.349609375 312 c 4
 285.349609375 312 302.349609375 295 302.349609375 275 c 4
 302.349609375 255 285.349609375 238 264.349609375 238 c 4
 243.349609375 238 226.349609375 255 226.349609375 275 c 4
EndSplineSet
EndChar

StartChar: uni03FF
Encoding: 1023 1023 340
Width: 469
VWidth: 985
Flags: HW
LayerCount: 2
Fore
SplineSet
26.349609375 142 m 1
 74.349609375 142 l 1
 74.349609375 87 130.450195312 32 227.900390625 32 c 0
 342.450195312 32 390.900390625 161 390.900390625 275 c 0
 379.5 406 314.049804688 518 214.599609375 518 c 0
 127.900390625 518 74.349609375 465 74.349609375 405 c 1
 26.349609375 405 l 1
 26.349609375 504 117.700195312 560 218 560 c 0
 357.400390625 560 426.5 414 437.900390625 275 c 0
 437.900390625 95 360.299804688 -11 227.900390625 -11 c 0
 117.700195312 -11 26.349609375 52 26.349609375 142 c 1
161.900390625 275 m 4
 161.900390625 295 178.900390625 312 199.900390625 312 c 4
 220.900390625 312 237.900390625 295 237.900390625 275 c 4
 237.900390625 255 220.900390625 238 199.900390625 238 c 4
 178.900390625 238 161.900390625 255 161.900390625 275 c 4
EndSplineSet
EndChar

StartChar: uni037C
Encoding: 892 892 341
Width: 451
VWidth: 985
Flags: HW
LayerCount: 2
Fore
SplineSet
26.349609375 207 m 0
 26.349609375 346 115 432 216.849609375 432 c 0
 344.849609375 432 410.849609375 376 420.849609375 307 c 1
 372.849609375 307 l 1
 362.849609375 337 326.849609375 390 220.849609375 390 c 0
 158.349609375 390 73.349609375 328 73.349609375 207 c 0
 73.349609375 63 141.349609375 32 216.849609375 32 c 0
 343.849609375 32 362.849609375 87 372.849609375 112 c 1
 420.849609375 112 l 1
 410.849609375 52 364.849609375 -11 216.849609375 -11 c 0
 123.5 -11 26.349609375 27 26.349609375 207 c 0
183.849609375 207 m 4
 183.849609375 227 200.849609375 244 221.849609375 244 c 4
 242.849609375 244 259.849609375 227 259.849609375 207 c 4
 259.849609375 187 242.849609375 170 221.849609375 170 c 4
 200.849609375 170 183.849609375 187 183.849609375 207 c 4
EndSplineSet
EndChar

StartChar: uni037D
Encoding: 893 893 342
Width: 451
VWidth: 985
Flags: HW
LayerCount: 2
Fore
SplineSet
26.349609375 112 m 1
 74.349609375 112 l 1
 84.349609375 87 103.349609375 32 230.349609375 32 c 0
 305.849609375 32 373.849609375 63 373.849609375 207 c 0
 373.849609375 328 288.849609375 390 226.349609375 390 c 0
 120.349609375 390 84.349609375 337 74.349609375 307 c 1
 26.349609375 307 l 1
 36.349609375 376 102.349609375 432 230.349609375 432 c 0
 332.200195312 432 420.849609375 346 420.849609375 207 c 0
 420.849609375 27 323.700195312 -11 230.349609375 -11 c 0
 82.349609375 -11 36.349609375 52 26.349609375 112 c 1
187.349609375 207 m 4
 187.349609375 227 204.349609375 244 225.349609375 244 c 4
 246.349609375 244 263.349609375 227 263.349609375 207 c 4
 263.349609375 187 246.349609375 170 225.349609375 170 c 4
 204.349609375 170 187.349609375 187 187.349609375 207 c 4
EndSplineSet
EndChar

StartChar: uni0372
Encoding: 882 882 343
Width: 393
VWidth: 985
Flags: HW
LayerCount: 2
Fore
SplineSet
21.25 439 m 1xdc
 21.25 550 l 17
 367 550 l 1
 367 439 l 5
 324 439 l 1xdc
 324 513 l 1
 272.349609375 513 l 1
 272.349609375 0 l 1
 229.349609375 0 l 1
 229.349609375 513 l 1
 64.25 513 l 1xbc
 64.25 439 l 1
 21.25 439 l 1xdc
EndSplineSet
EndChar

StartChar: uni0373
Encoding: 883 883 344
Width: 339
VWidth: 985
Flags: HW
LayerCount: 2
Fore
SplineSet
60.599609375 364 m 1xdc
 13.599609375 364 l 1
 13.599609375 468 l 1
 322.049804688 468 l 1
 322.049804688 364 l 1
 275.049804688 364 l 1xdc
 275.049804688 427 l 1
 235 427 l 1
 235 0 l 1
 188 0 l 1
 188 427 l 1
 60.599609375 427 l 1xbc
 60.599609375 364 l 1xdc
EndSplineSet
EndChar

StartChar: numeralsigngr
Encoding: 884 884 345
Width: 131
VWidth: 985
Flags: HW
LayerCount: 2
Fore
SplineSet
34.849609375 762 m 1
 90.849609375 762 l 1
 78.849609375 622 l 1
 46.849609375 622 l 1
 34.849609375 762 l 1
EndSplineSet
EndChar

StartChar: lownumeralsign
Encoding: 885 885 346
Width: 131
VWidth: 985
Flags: HW
LayerCount: 2
Fore
SplineSet
34.849609375 0 m 1
 90.849609375 0 l 1
 78.849609375 -140 l 1
 46.849609375 -140 l 1
 34.849609375 0 l 1
EndSplineSet
EndChar

